<svg version="1.1" xmlns="http://www.w3.org/2000/svg" xmlns:xlink="http://www.w3.org/1999/xlink" width="97.61047" height="130.82258" viewBox="0,0,97.61047,130.82258"><g transform="translate(-154.47162,-150.91291)"><g data-paper-data="{&quot;isPaintingLayer&quot;:true}" fill-rule="nonzero" stroke="none" stroke-width="0.5" stroke-linecap="butt" stroke-linejoin="miter" stroke-miterlimit="10" stroke-dasharray="" stroke-dashoffset="0" style="mix-blend-mode: normal"><g><path d="M189.94163,251.81113c0,-1.04357 -0.21624,-2.46979 0.02428,-3.47892c0.09054,-0.3799 0.41963,-0.67255 0.53251,-1.04475c-0.00161,-0.23537 -0.00557,-0.5098 -0.00973,-0.79251c-0.00428,-0.05959 -0.00591,-0.11883 -0.00261,-0.17745c-0.01112,-0.76102 -0.02058,-1.53563 0.01235,-1.73761c0.09244,-0.56707 0.44841,-1.06884 0.54507,-1.6352c0.05324,-0.31194 -0.0806,-2.39761 0.01256,-2.78847c0.01615,-0.06776 0.03987,-0.13275 0.06859,-0.1959l-0.61366,-1.98436c0.34832,-0.72731 0.71857,-1.44671 1.08581,-2.16753c0.00797,-0.02874 0.01626,-0.05737 0.02486,-0.08588c0.06012,-0.19948 0.18357,-0.37403 0.29824,-0.55168c0.07375,-0.14665 0.14707,-0.29347 0.21976,-0.44054c0.00229,-0.00821 0.00447,-0.01647 0.00654,-0.02477c0.08777,-0.35261 -0.08813,-0.73761 0,-1.09013c0.09854,-0.39414 0.36338,-0.72676 0.54507,-1.09013l0.77237,-1.78236c0.03219,0.05773 0.0654,0.11503 0.09943,0.17201c0.15152,-0.13179 0.33441,-0.2389 0.49512,-0.36285c0.1093,-0.25005 0.21675,-0.50044 0.32133,-0.75055c-0.03955,-0.16194 -0.09655,-0.32887 -0.06561,-0.48351c0.04319,-0.21595 0.09559,-0.41692 0.15381,-0.60699c-0.26692,-0.05741 -0.7106,-0.24829 -0.7106,-0.88284c0,-0.90753 0.90753,-0.90753 0.90753,-0.90753c0.09974,0 0.27515,-0.00183 0.49064,-0.00249c0.15264,-0.44025 0.2613,-0.90692 0.2613,-1.47875c0.16836,-0.33671 0.40812,-0.64702 0.52078,-1.00434c0,-0.14079 0,-0.28157 0,-0.42236c0,-0.13664 0.00081,-0.27269 0.00216,-0.40818c-0.006,-0.08219 -0.00703,-0.16374 0.00294,-0.24391c0.02695,-1.92792 0.1289,-3.75017 -0.50359,-5.60172c0,0 -0.28699,-0.86096 0.57398,-1.14796c0.86096,-0.28699 1.14796,0.57398 1.14796,0.57398c0.15305,0.46892 0.27002,0.9394 0.35898,1.41162c0.02243,-0.05964 0.04399,-0.11957 0.0645,-0.17986c-0.02988,-2.40863 -0.28698,-5.01693 0.61185,-7.30971c0.14149,-0.36092 0.50199,-0.60612 0.64992,-0.96446c0.36399,-0.88173 0.02022,-1.96809 0.43081,-2.8291c0.2212,-0.46386 0.85591,-0.63272 1.09013,-1.09013c0.14469,-0.28257 -0.12041,-0.64301 -0.0448,-0.95135c0.09919,-0.40454 0.45128,-0.71667 0.55283,-1.12063c0.27585,-1.09732 0.20391,-2.27547 0.5694,-3.34627c0.44467,-1.30277 1.12997,-2.5693 1.64791,-3.8479c0.23378,-0.5771 0.29117,-1.2311 0.61153,-1.76502c0.24072,-0.40119 0.84991,-0.5259 1.02367,-0.96031c0.21866,-0.54665 -0.1978,-1.2389 0.06645,-1.76502c0.18641,-0.37114 0.88762,-0.21898 1.10714,-0.57154c0.20235,-0.32501 -0.02434,-0.76531 -0.03651,-1.14797c0.39718,-1.58224 0.86361,-4.13109 2.8264,-4.69493c0.49592,-0.14246 0.94009,0.44674 1.44401,0.55763c0.35488,0.07809 0.73761,-0.08815 1.09013,0c0.40395,0.10101 0.71856,0.44302 1.12024,0.55271c0.40933,0.11179 0.87526,-0.05821 1.26905,0.09983c0.91985,0.36916 1.58685,1.28712 2.54642,1.53537c0.4108,0.10628 0.87526,-0.05821 1.26905,0.09983c0.91066,0.36547 1.56025,1.30679 2.51632,1.52772c0.35405,0.08182 0.73761,-0.08813 1.09013,0c0.39414,0.09854 0.69599,0.44653 1.09013,0.54507c1.14637,0.28659 1.78951,-0.68272 2.74375,0.95121c0.52498,0.89891 -0.09445,2.54484 0.11127,3.53902c0.08232,0.39784 0.44653,0.69599 0.54507,1.09013c0.08813,0.35253 -0.08813,0.73761 0,1.09013c0.09854,0.39414 0.36338,0.72676 0.54507,1.09013c0,0.54507 -0.10351,1.10005 0,1.6352c0.24593,1.27154 1.31258,2.54714 1.6352,3.81547c0.08958,0.35217 -0.08813,0.73761 0,1.09013c0.09854,0.39414 0.44674,0.69594 0.54507,1.09013c0.08339,0.33429 -0.1187,0.70483 -0.01532,1.03349c0.10554,0.33555 0.48322,0.53267 0.61102,0.8604c0.25226,0.64692 0.40149,1.33368 0.51192,2.0192c0.15951,0.99018 -0.26701,2.21186 -0.01748,3.17279c0.25123,0.96744 0.90678,1.80833 1.1027,2.78847c0.01517,0.07587 0.01171,2.16739 0.01171,2.32565c0,1.99858 0,3.99717 0,5.99574c0,2.90703 0,5.81406 0,8.72108c0,0.90844 0.02638,1.81727 0,2.72534c-0.00722,0.24857 -0.19067,0.5259 -0.06908,0.74283c0.22876,0.40813 0.78296,0.55912 1.02367,0.96031c0.32035,0.53392 0.37828,1.18771 0.61153,1.76502c0.16936,0.41919 1.04781,1.96745 1.13494,2.31905c0.23524,0.94927 0.02428,1.95586 0.02428,2.93384c0,0.23345 0.00679,2.26341 -0.02428,2.38878c-0.32004,1.29149 -1.10312,1.70882 -1.06586,3.0619c-0.04518,0.52242 0.16815,1.13978 -0.13554,1.56725c-1.15253,1.62233 -4.52635,0.97548 -6.22267,0.97548c-2.09916,0 -4.62974,0.38713 -6.68618,-0.01171c-0.56405,-0.1094 -1.07255,-0.42875 -1.6352,-0.54507c-0.73233,-0.15139 -1.51597,0.16082 -2.24341,-0.01256c-0.3952,-0.0942 -0.69733,-0.44132 -1.09013,-0.54507c-0.70266,-0.18559 -1.47331,0.1685 -2.18027,0c-0.3952,-0.0942 -0.69229,-0.46274 -1.09013,-0.54507c-0.82158,-0.17001 -1.67785,0.02428 -2.51683,0.02428c-0.65731,0 -1.33625,-0.19213 -1.97176,-0.02428c-0.3928,0.10375 -0.69599,0.44653 -1.09013,0.54507c-0.35253,0.08813 -0.73761,-0.08813 -1.09013,0c-0.39414,0.09854 -0.69494,0.45088 -1.09013,0.54507c-1.06543,0.25393 -2.2699,-0.20033 -3.33354,0.01256c-0.93871,0.1879 -1.73441,0.84159 -2.6622,1.07757c-0.35217,0.08958 -0.7367,-0.08441 -1.09013,0c-0.32765,0.07824 -0.59314,0.31961 -0.89278,0.47353c-1.23497,0.63439 -3.62059,2.30318 -4.99333,0.75553c-0.36791,-0.41479 0.05523,-1.03969 0.34271,-1.60468z" fill="#00f8ff"/><path d="M197.76314,275.45459c-0.12981,0.51087 -0.51506,1.26891 -1.65835,1.26891c-1.72432,0 -1.72432,-1.72432 -1.72432,-1.72432l0.50504,-1.4916c0.75439,-0.707 0.86283,-1.30358 1.26942,-2.3219c0.23888,-0.48611 0.56465,-0.93845 0.71664,-1.45832c0.16923,-0.57883 -0.04126,-1.20567 -0.04015,-1.80872c0.00271,-1.46412 -0.24284,-2.94455 -0.39183,-4.39043c-0.05654,-0.54865 -0.41157,-0.89747 -0.59038,-1.41106c-0.32923,-0.94559 -0.64163,-2.351 -0.77127,-3.35471c-0.28408,-2.19954 0.13783,-4.46487 0.7305,-6.56795c0,0 0.47371,-1.65797 2.13168,-1.18427c1.65797,0.47371 1.18427,2.13168 1.18427,2.13168c-0.46845,1.61154 -0.86703,3.44877 -0.63114,5.14221c0.23158,1.66258 1.11366,3.13733 1.36165,4.76576c0.2886,1.89506 0.45557,3.89157 0.42516,5.82191c-0.00837,0.5319 0.09389,1.08058 -0.04015,1.59539c-0.19109,0.73389 -0.61155,1.38797 -0.91733,2.08196c-0.46861,1.16945 -0.8335,2.02222 -1.55946,2.90547z" fill="#ffdd72"/><path d="M225.53571,195.41751c-0.54865,0.01493 -1.10604,0.14352 -1.64594,0.0448c-0.39964,-0.07307 -0.69641,-0.44492 -1.09013,-0.54507c-0.39727,-0.10105 -0.86147,0.13686 -1.22893,-0.0448c-1.01353,-0.50108 -0.99045,-1.36525 -2.04148,-1.5904c-0.35532,-0.07611 -0.73839,0.09122 -1.09013,0c-1.18761,-0.30799 -2.27052,-1.22595 -3.4092,-1.68001c-0.80861,-0.32244 -2.30819,-0.62207 -3.00181,-1.26941c-0.34259,-0.31972 -0.38192,-0.87868 -0.70979,-1.21348c-0.78239,-0.79891 -2.05798,-1.35655 -3.22579,-1.86232c-0.0975,0.03387 -0.21193,0.05375 -0.34625,0.05375c-0.54677,0 -0.76412,-0.32941 -0.85053,-0.59132c-0.03384,-0.0165 -0.06732,-0.03302 -0.10041,-0.04956c0,0 -0.81173,-0.40586 -0.40586,-1.21759c0.14569,-0.29138 0.34367,-0.42587 0.53764,-0.47855c0.03993,-0.58822 0.05507,-1.18123 -0.0641,-1.63241c-0.10375,-0.3928 -0.45088,-0.69494 -0.54507,-1.09013c-0.03107,-0.13036 -0.02428,-2.15115 -0.02428,-2.38878c0,-1.61579 -0.19745,-3.41559 0.0068,-5.01649c0.0779,-0.6105 0.34214,-1.18518 0.44461,-1.79204c0.25981,-1.53864 -0.28518,-2.87824 0.90455,-4.18947c0.27299,-0.30088 0.80286,-0.25779 1.09013,-0.54507c0.28727,-0.28727 0.25438,-0.80631 0.54507,-1.09013c0.34585,-0.33769 0.86183,-0.43964 1.27634,-0.68828c0.56942,-0.34155 1.05696,-0.83367 1.67319,-1.08097c0.3938,-0.15804 0.84604,-0.06656 1.26905,-0.09983c1.26706,-0.62516 2.11847,-0.577 3.50902,-0.577c0.26376,0 2.31337,-0.01045 2.44326,0.03894c1.69596,0.64495 2.21162,1.86141 3.53806,2.8577c0.36271,0.27243 0.89426,0.30558 1.20122,0.63958c0.38671,0.42078 0.62189,0.97612 0.78661,1.52335c0.10473,0.34796 -0.08441,0.7367 0,1.09013c0.18873,0.79032 0.89469,1.39159 1.09013,2.18027c0.17481,0.70542 -0.18559,1.4776 0,2.18027c0.10375,0.3928 0.44653,0.69599 0.54507,1.09013c0.08813,0.35253 -0.08813,0.73761 0,1.09013c0.09854,0.39414 0.45088,0.69494 0.54507,1.09013c0.1685,0.70695 -0.18559,1.4776 0,2.18027c0.10375,0.3928 0.36338,0.72676 0.54507,1.09013c0.02373,1.26937 -0.3221,3.14105 0,4.36054c0.10375,0.3928 0.45088,0.69494 0.54507,1.09013c0.03107,0.13036 0.02428,2.15115 0.02428,2.38878c0,0.63035 0.15051,1.71418 0.12197,2.57816c-0.00595,0.00712 -0.01188,0.01427 -0.01779,0.02143c-0.10263,0.08682 -0.20542,0.18139 -0.30822,0.28417c-0.7952,0.7952 -1.09771,1.5904 -1.13647,2.30929c-0.23572,-0.01375 -0.45614,-0.05287 -0.64055,-0.15485z" fill="#ffdd72"/><path d="M209.01899,173.86649c0,-0.50122 0.40632,-0.90753 0.90753,-0.90753c0.50122,0 0.90753,0.40632 0.90753,0.90753c0,0.50122 -0.40632,0.90753 -0.90753,0.90753c-0.50122,0 -0.90753,-0.40632 -0.90753,-0.90753z" fill="#ff0000"/><path d="M213.9246,172.77636c0,-0.50122 0.40632,-0.90753 0.90753,-0.90753c0.50122,0 0.90753,0.40632 0.90753,0.90753c0,0.50122 -0.40632,0.90753 -0.90753,0.90753c-0.50122,0 -0.90753,-0.40632 -0.90753,-0.90753z" fill="#ff0000"/><path d="M216.64993,178.7721c0,-0.50122 0.40632,-0.90753 0.90753,-0.90753c0.50122,0 0.90753,0.40632 0.90753,0.90753c0,0.50122 -0.40632,0.90753 -0.90753,0.90753c-0.50122,0 -0.90753,-0.40632 -0.90753,-0.90753z" fill="#ff0000"/><path d="M218.8302,173.32143c0,-0.50122 0.40632,-0.90753 0.90753,-0.90753c0.50122,0 0.90753,0.40632 0.90753,0.90753c0,0.50122 -0.40632,0.90753 -0.90753,0.90753c-0.50122,0 -0.90753,-0.40632 -0.90753,-0.90753z" fill="#ff0000"/><path d="M221.55555,181.49744c0,-0.50122 0.40632,-0.90753 0.90753,-0.90753c0.50122,0 0.90753,0.40632 0.90753,0.90753c0,0.50122 -0.40632,0.90753 -0.90753,0.90753c-0.50122,0 -0.90753,-0.40632 -0.90753,-0.90753z" fill="#ff0000"/><path d="M219.92034,177.1369c0,-0.50122 0.40632,-0.90753 0.90753,-0.90753c0.50122,0 0.90753,0.40632 0.90753,0.90753c0,0.50122 -0.40632,0.90753 -0.90753,0.90753c-0.50122,0 -0.90753,-0.40632 -0.90753,-0.90753z" fill="#ff0000"/><path d="M211.19926,179.31716c0,-0.50122 0.40632,-0.90753 0.90753,-0.90753c0.50122,0 0.90753,0.40632 0.90753,0.90753c0,0.50122 -0.40632,0.90753 -0.90753,0.90753c-0.50122,0 -0.90753,-0.40632 -0.90753,-0.90753z" fill="#ff0000"/><path d="M215.5598,176.04676c0,-0.50122 0.40632,-0.90753 0.90753,-0.90753c0.50122,0 0.90753,0.40632 0.90753,0.90753c0,0.50122 -0.40632,0.90753 -0.90753,0.90753c-0.50122,0 -0.90753,-0.40632 -0.90753,-0.90753z" fill="#ff0000"/><path d="M218.8302,180.95237c0,-0.50122 0.40632,-0.90753 0.90753,-0.90753c0.50122,0 0.90753,0.40632 0.90753,0.90753c0,0.50122 -0.40632,0.90753 -0.90753,0.90753c-0.50122,0 -0.90753,-0.40632 -0.90753,-0.90753z" fill="#ff0000"/><path d="M223.46078,188.53137c0.13246,0.3384 0.28862,0.67004 0.46868,0.98765l0.21396,-0.03287c0,0 0.90753,0 0.90753,0.90753c0,0.48355 -0.25763,0.70945 -0.49836,0.81499c-0.05784,0.11803 -0.15291,0.23618 -0.30044,0.34683c-0.35176,0.26382 -0.66091,0.22939 -0.88617,0.12379c-0.00583,0.00286 -0.01167,0.00573 -0.01751,0.0086c-1.69797,0.33959 -3.30555,1.24624 -5.11343,1.13826c-0.56542,-0.03378 -1.20424,-0.07118 -1.64467,-0.42738c-0.42401,-0.34292 -0.50146,-0.97017 -0.70759,-1.47503c-0.41491,-1.01625 -0.78002,-2.24402 -1.09573,-3.28606c-0.08091,-0.26703 0.01885,-0.57249 -0.08071,-0.83314c-0.13776,-0.36066 -0.76664,0.09223 -1.15042,0.13436c-0.26402,0.02897 -2.4877,-0.00449 -2.61568,-0.06466c-1.91975,-0.9027 -1.21393,-3.96204 -1.21393,-5.63217c0,0 0,-0.90753 0.90753,-0.90753c0.90753,0 0.90753,0.90753 0.90753,0.90753c0,1.01685 0.03426,2.03427 0,3.05054c-0.01021,0.30301 -0.20812,0.87356 0.09345,0.90471c0.94813,0.09794 1.97342,-0.28605 2.912,-0.25125c0.14091,-0.31848 0.45968,-0.5407 0.83033,-0.5407c0.50122,0 0.90753,0.40632 0.90753,0.90753c0,0.15424 -0.03848,0.2995 -0.10636,0.42669c0.26579,0.35325 0.17498,0.88697 0.32552,1.30903c0.38613,1.0826 0.75036,2.13197 1.08323,3.25082c0.0687,0.23092 -0.00466,0.53187 0.164,0.70393c0.12469,0.1272 0.35715,0.02703 0.53429,0.00841c0.4565,-0.04796 0.90771,-0.13726 1.36131,-0.20757c0.93469,-0.14487 1.68335,-0.46516 2.545,-0.69857c-0.15309,-0.29365 -0.29184,-0.59463 -0.4162,-0.90017l-0.23623,-0.70375c0,0 -0.1409,-0.42269 0.07093,-0.77446c0.12694,-0.34805 0.46088,-0.59655 0.85285,-0.59655c0.50122,0 0.90753,0.40632 0.90753,0.90753c0,0.05862 -0.00555,0.11594 -0.01618,0.17146z" fill="#ff0000"/><path d="M217.74007,182.58757c0,-0.50122 0.40632,-0.90753 0.90753,-0.90753c0.50122,0 0.90753,0.40632 0.90753,0.90753c0,0.50122 -0.40632,0.90753 -0.90753,0.90753c-0.50122,0 -0.90753,-0.40632 -0.90753,-0.90753z" fill="#ff0000"/><path d="M217.195,168.41582c0,-0.50122 0.40632,-0.90753 0.90753,-0.90753c0.50122,0 0.90753,0.40632 0.90753,0.90753c0,0.50122 -0.40632,0.90753 -0.90753,0.90753c-0.50122,0 -0.90753,-0.40632 -0.90753,-0.90753z" fill="#ff0000"/><path d="M210.10912,170.59609c0,-0.50122 0.40632,-0.90753 0.90753,-0.90753c0.50122,0 0.90753,0.40632 0.90753,0.90753c0,0.50122 -0.40632,0.90753 -0.90753,0.90753c-0.50122,0 -0.90753,-0.40632 -0.90753,-0.90753z" fill="#ff0000"/><path d="M222.64567,174.41156c0,-0.50122 0.40632,-0.90753 0.90753,-0.90753c0.50122,0 0.90753,0.40632 0.90753,0.90753c0,0.50122 -0.40632,0.90753 -0.90753,0.90753c-0.50122,0 -0.90753,-0.40632 -0.90753,-0.90753z" fill="#ff0000"/><path d="M221.55555,170.05102c0,-0.50122 0.40632,-0.90753 0.90753,-0.90753c0.50122,0 0.90753,0.40632 0.90753,0.90753c0,0.50122 -0.40632,0.90753 -0.90753,0.90753c-0.50122,0 -0.90753,-0.40632 -0.90753,-0.90753z" fill="#ff0000"/><path d="M223.73581,183.67771c0,-0.50122 0.40632,-0.90753 0.90753,-0.90753c0.50122,0 0.90753,0.40632 0.90753,0.90753c0,0.50122 -0.40632,0.90753 -0.90753,0.90753c-0.50122,0 -0.90753,-0.40632 -0.90753,-0.90753z" fill="#ff0000"/><path d="M223.73581,178.22703c0,-0.50122 0.40632,-0.90753 0.90753,-0.90753c0.50122,0 0.90753,0.40632 0.90753,0.90753c0,0.50122 -0.40632,0.90753 -0.90753,0.90753c-0.50122,0 -0.90753,-0.40632 -0.90753,-0.90753z" fill="#ff0000"/><path d="M210.94736,276.49885c-1.63583,0.54527 -2.18111,-1.09055 -2.18111,-1.09055l0.06495,0.00271c-0.41876,-0.65122 -0.76763,-1.35967 -0.98929,-2.10152c-1.22746,-2.67652 0.05293,-5.49882 -0.37146,-8.27306c-0.26859,-1.75574 -0.48026,-3.58316 -0.92519,-5.3c-0.23769,-0.91718 -0.70267,-1.76019 -1.0259,-2.65084c-0.62824,-1.73108 -1.03547,-3.53762 -1.541,-5.30534c0,0 -0.47371,-1.65797 1.18427,-2.13168c1.65797,-0.47371 2.13168,1.18427 2.13168,1.18427c0.47901,1.67802 0.85629,3.4013 1.45461,5.04317c0.37405,1.02646 0.87148,2.01241 1.15273,3.06808c0.48072,1.80431 0.70858,3.74366 0.98112,5.59316c0.25958,1.76147 -0.12546,3.2797 -0.118,5.01535c0.00426,0.99328 -0.19147,1.66526 0.2912,2.50668c0.1368,0.50741 0.3407,1.01007 0.64469,1.43877l0.33728,0.8197c0,0 0.54527,1.63583 -1.09055,2.18111z" fill="#ffdd72"/><path d="M214.35706,275.26531c-1.21928,-1.21928 0,-2.43856 0,-2.43856l0.13616,-0.13616c0.35993,-0.34748 0.77216,-0.65994 1.0389,-1.08319c-0.11278,-1.36186 -0.19245,-2.98773 0.16064,-4.3133c0.18385,-0.69025 0.73177,-1.2396 0.95653,-1.91762c0.42613,-1.28542 0.12775,-3.31927 -0.17001,-4.577c-0.66796,-2.82143 -2.58278,-5.4791 -3.6068,-8.20667c0,0 -0.60545,-1.61453 1.00908,-2.21998c1.61453,-0.60545 2.21998,1.00908 2.21998,1.00908c1.09071,2.91218 3.02373,5.65581 3.74609,8.67775c0.43291,1.81105 0.65822,4.47771 0.10232,6.31617c-0.2045,0.67632 -0.76733,1.21239 -0.94977,1.89498c-0.32922,1.23188 -0.06864,2.86967 -0.11169,4.1289c-0.48551,1.00868 -1.17492,1.9282 -1.95673,2.72941l-0.13616,0.13616c0,0 -1.21928,1.21928 -2.43856,0z" fill="#ffdd72"/><path d="M229.60191,279.22214c-1.63583,0.54527 -2.18111,-1.09055 -2.18111,-1.09055l-0.36081,-1.36226c0,-3.92932 0.25498,-7.96719 -0.25424,-11.86952c-0.15334,-1.17503 -0.54558,-2.28494 -0.79795,-3.4335c-0.55425,-2.5224 -0.38796,-5.07821 -1.29496,-7.52803c0,0 -0.58927,-1.62051 1.03123,-2.20978c1.62051,-0.58927 2.20978,1.03123 2.20978,1.03123c0.94675,2.64217 0.82298,5.30451 1.42832,7.99474c0.27382,1.21689 0.67348,2.40039 0.83602,3.64707c0.53107,4.07316 0.29042,8.26716 0.29042,12.36778l0.18384,0.27171c0,0 0.54527,1.63583 -1.09055,2.18111z" fill="#ffdd72"/><path d="M172.93785,163.33862c0.90753,0 0.90753,0.90753 0.90753,0.90753v0.2179c-0.00067,0.18469 -0.06876,1.61875 0.11051,1.96863c0.47311,0.92333 2.02687,1.41512 2.41196,2.42636c0.78421,2.05934 -0.17095,4.25263 0.2859,6.29131c0.30805,1.37465 1.34142,2.50676 2.57315,3.10102c0,0 0.31169,0.15585 0.45221,0.46754c0.24185,-0.08675 0.48498,-0.10065 0.69927,-0.08187c-0.43425,-0.43073 -1.2958,-1.29363 -1.33211,-1.47594c-0.42377,-2.12798 0.92784,-2.14853 1.55696,-3.68873c0.5164,-1.26422 0.9721,-3.54047 0.45662,-4.89821c-0.07563,-0.19918 -0.32861,-0.27173 -0.48369,-0.41783c-0.41333,-0.38939 -0.72219,-0.90031 -1.1963,-1.21287c-0.22592,-0.14894 -2.0775,-0.95647 -2.29004,-1.18399c-1.28438,-1.37491 -0.47929,-3.25513 -0.47929,-4.87118c0.16608,-0.83042 0.53126,-2.10407 -0.06789,-2.89051c-1.23765,-1.62453 -3.82714,-2.29489 -5.51724,-3.31633l-0.77465,-1.00346c0,0 -0.54452,-0.72603 0.18151,-1.27055c0.72603,-0.54452 1.27055,0.18151 1.27055,0.18151l0.53272,0.73971c2.42685,1.37666 5.77853,2.19147 6.39185,5.32475c0.17226,0.88004 -0.04282,1.57484 -0.2106,2.41375c0,0.70029 -0.67798,2.87058 -0.0435,3.40887c0.58329,0.49487 1.43313,0.56811 2.06788,0.99497c1.51276,1.01729 2.37399,2.37939 2.55357,4.15824c0.14786,1.4647 -0.1572,3.21946 -0.72639,4.56558c-0.12308,0.29109 -1.64303,1.91299 -1.49359,2.41236c0.13735,0.45894 0.74612,0.60386 1.08486,0.94261c0,0 0.02414,0.02414 0.05837,0.06774c0.16966,-0.20858 0.32615,-0.42463 0.43307,-0.66937c0.62608,-1.43306 0.71415,-3.15255 1.59552,-4.48574c0.48641,-0.73575 1.25174,-1.25574 1.7557,-1.97957c0.80048,-1.14972 1.53409,-2.29187 2.46574,-3.3556c0.50114,-0.5722 1.51429,-1.19701 1.80294,-1.93073c0.19061,-0.48451 0.1484,-1.43555 0.14913,-1.9504c-0.06823,-0.33364 -0.13646,-0.66728 -0.20469,-1.00092l-0.01762,-0.39588c0,0 0,-0.90753 0.90753,-0.90753c0.90753,0 0.90753,0.90753 0.90753,0.90753l-0.01762,0.03991c0.07704,0.39268 0.15407,0.78536 0.2311,1.17804c0.00099,0.9379 0.07698,1.94331 -0.28666,2.84331c-0.40332,0.9982 -1.43714,1.6469 -2.11919,2.42719c-0.88267,1.0098 -1.56391,2.09516 -2.32797,3.18128c-0.49897,0.7093 -1.24595,1.22343 -1.73064,1.94256c-0.81629,1.21113 -0.86224,2.91328 -1.45503,4.23011c-0.28146,0.62525 -0.77902,1.12875 -1.18114,1.68415c-0.11454,0.1582 -0.21448,0.32518 -0.30552,0.49753c0.65503,0.65587 1.02093,1.37212 1.35379,2.46865c0.23687,0.84149 0.49569,1.82178 0.86025,2.6094c0.15576,0.3365 0.47563,0.58864 0.59568,0.93948c0.38309,1.11957 0.56629,3.1007 0.76254,4.24884c0.31396,1.83678 0.36881,3.27426 0.43446,5.16006c0.01818,0.52212 -0.26237,1.05626 -0.13072,1.56183c0.01855,0.07124 0.15563,-0.00178 0.21754,0.03805c0.35168,0.22627 0.6741,0.49516 1.00619,0.74931c0.44334,0.33927 0.89743,0.66597 1.31999,1.03079c0.47518,0.41026 0.76397,1.01168 1.25089,1.40792c0.52666,0.42856 1.66576,0.3688 2.25621,0.529c0.70206,0.19048 1.7582,0.67625 2.43661,0.9714c1.90534,1.40323 2.88482,-1.47425 3.70315,-2.79449c1.66128,-2.68017 1.82908,-9.29888 6.52452,-7.74967c0.48605,0.16036 0.81361,0.6212 1.22041,0.9318c0,0 0.84031,0.70027 0.62464,1.6546c0.00703,1.48448 -1.5381,1.65616 -1.5381,1.65616c-0.31505,0.01624 -0.71727,-0.115 -0.94021,0.1082c-0.14826,0.14845 0.01727,0.41926 0.02314,0.62898c0.00626,0.22327 -0.00547,2.46168 -0.0103,2.50295c-0.09337,0.79918 -0.49774,2.29025 -0.90427,2.99351c-0.67212,1.16272 -1.74412,1.78771 -2.77372,2.55726c-2.28894,1.71079 -4.57538,2.7252 -7.3794,3.32799c-1.20573,-0.00507 -2.25432,0.15969 -3.33184,-0.65947c-0.42838,-0.32567 -0.58279,-0.90539 -0.84956,-1.37273c-0.14853,-0.2602 -0.15181,-0.68052 -0.43124,-0.78859c-1.58805,-0.6142 -3.28984,-1.03721 -4.55618,-2.30355c-1.14522,-1.14522 -1.65543,-2.71222 -2.17555,-4.18192c-0.99634,-2.81539 -1.08763,-5.90225 -1.88863,-8.80323c-0.62017,-1.22108 -1.57274,-2.21715 -1.95957,-3.56365c-0.3015,-1.04952 -0.16074,-2.14867 -0.31904,-3.21733l-0.01599,-0.60178c-0.3677,0.29639 -0.69565,0.66185 -1.13441,0.82105c-0.45073,0.16353 -0.95745,0.05702 -1.43678,0.06908c-1.28966,0.03247 -2.9681,0.26848 -4.05815,-0.63859c-0.4616,-0.38411 -0.67509,-0.99374 -1.03235,-1.47643c-0.95016,-1.28379 -1.95592,-2.18318 -3.26015,-3.051c-0.40957,-0.27252 -0.97737,-0.83732 -1.50737,-0.97634c-2.46301,-0.64606 -5.48718,-0.17661 -8.00728,-0.17661c-0.5718,-0.03194 -1.20905,0.17172 -1.71542,-0.09581c-2.08256,-1.10029 -1.18089,-4.6503 -0.40586,-6.2292l-0.09581,0.18796c0,0 0,-0.90753 0.90753,-0.90753c0.90753,0 0.90753,0.90753 0.90753,0.90753l-0.09581,0.62375c-0.48983,0.95705 -0.5329,1.57672 -0.55788,2.64468c-0.00904,0.38634 -0.22478,1.06352 0.15201,1.14934c0.29536,0.06727 0.60247,-0.06387 0.90369,-0.09581c2.69901,0 5.91833,-0.4775 8.54847,0.25918c1.74412,0.48851 3.59114,2.20803 4.76356,3.52944c0.62429,0.70362 0.97065,1.63521 1.63875,2.29738c0.55343,0.54851 2.29701,0.21217 2.91452,0.23299c0.24833,0.00837 0.51132,0.16093 0.74218,0.06908c0.22449,-0.08931 0.2747,-0.40971 0.47034,-0.55147c0.0349,-0.02528 0.07058,-0.04927 0.10692,-0.07218c-1.40055,-1.5731 -3.48804,-2.57329 -5.2644,-3.63796c-1.28297,-0.73634 -3.4131,-1.73773 -3.88868,-3.32879c-0.33082,-1.10676 -0.04657,-3.24905 -0.04657,-4.42701c0,-2.27287 -0.22573,-4.27184 -0.8271,-6.47413c-0.27155,-0.99445 -1.19823,-1.15051 -1.79478,-1.87811c-1.11778,-1.36335 -0.86446,-3.31969 -0.86446,-4.93943c0,0 0,-0.90753 0.90753,-0.90753c0.90753,0 0.90753,0.90753 0.90753,0.90753c0,0.99692 -0.33528,2.93065 0.44291,3.77642c0.83877,0.91161 1.70322,1.15368 2.12735,2.47981c0.74041,2.31504 0.91607,4.62569 0.91607,7.03542c0,1.04524 -0.28074,2.82637 -0.04657,3.85303c0.22872,1.00283 2.35663,1.92284 3.08399,2.33651c0.97261,0.58422 1.80401,1.17298 2.707,1.80507c0.23125,0.16187 0.46395,0.31261 0.69498,0.45837c-0.38188,-0.58042 -0.66722,-1.2262 -0.82173,-1.92549c-0.41425,-1.87488 0.46994,-4.06264 -0.14989,-5.91087c-0.06696,-0.19968 -0.32791,-0.26517 -0.48016,-0.41069c-0.65749,-0.62839 -1.49905,-1.14111 -1.90159,-1.95667c-0.41966,-0.85024 -0.32244,-1.92535 -0.32528,-2.82509v-0.2179c0,0 0,-0.90753 0.90753,-0.90753zM178.61185,179.99414c0.00431,-0.01577 0.00888,-0.03164 0.01369,-0.04762c-0.01706,-0.00403 -0.03334,-0.00827 -0.04874,-0.01259c0.01179,0.0199 0.02349,0.03997 0.03505,0.06021z" fill="#ffdd72"/><path d="M240.672,162.84936c0.12399,-1.23074 -0.23336,-2.57243 0.01196,-3.78643c0.57658,-2.85329 3.02952,-5.05712 5.49691,-6.3054c0,0 0.81173,-0.40586 1.21759,0.40586c0.40586,0.81173 -0.40586,1.21759 -0.40586,1.21759c-1.94335,0.95776 -4.07974,2.75921 -4.52631,5.02519c-0.22593,1.14643 0.12829,2.4512 0.01196,3.62204c-0.24379,2.45353 -1.08506,4.61217 -1.08506,7.10114v0.0915c0.10139,-0.01471 0.21014,-0.0226 0.32677,-0.0226c0.28804,0 0.52797,0.04811 0.72781,0.12827c0.55759,-1.75549 0.4317,-3.72959 1.38676,-5.43549c0.77742,-1.38862 2.23746,-1.95386 3.12638,-3.16443c0.55926,-0.76164 1.43117,-1.66809 1.88523,-2.50087c0.36734,-0.67372 0.70547,-1.38866 1.23892,-1.94027l0.3224,-0.51537c0,0 0.50341,-0.75512 1.25853,-0.25171c0.75512,0.50341 0.25171,1.25853 0.25171,1.25853l-0.54918,0.792c-0.43701,0.4157 -0.64339,1.02092 -0.94005,1.54607c-0.49501,0.87625 -1.427,1.92989 -2.0369,2.72864c-0.85743,1.12292 -2.27089,1.65656 -2.97471,2.93666c-1.08743,1.97779 -0.75332,4.28985 -1.72261,6.28022c0,0 -0.08386,0.16773 -0.25159,0.31257c-0.03947,3.78565 -0.78603,7.25966 -1.7011,10.92476c-0.43731,1.31397 -0.72938,2.66124 -1.31677,3.91985c-0.67012,1.4359 -1.61498,2.9135 -2.29043,4.44395c-0.02488,0.17317 -0.0512,0.34616 -0.0789,0.51893c-0.17649,0.37015 -0.34489,0.74334 -0.51051,1.11744c-0.11875,0.44538 -0.20036,0.89533 -0.23238,1.35012c-0.0989,1.4047 -0.1269,3.1264 0.22661,4.50336c0.21877,0.85217 0.60825,1.66654 0.72059,2.53914c0.33126,2.57296 -0.45694,5.18315 -1.58428,7.45337c-0.74971,1.07466 -0.94319,1.67276 -2.35335,2.1465c-0.9571,0.32154 -1.62802,-0.0012 -2.52822,-0.06652c-1.00336,-0.07281 -2.09158,-0.17137 -2.92846,-0.72963c-1.6362,-1.09147 -2.81186,-3.00452 -3.66584,-4.71264c-0.28061,-0.56128 -0.85188,-1.64962 -0.96381,-2.19458c-0.33618,-1.63667 0.00491,-3.11234 -0.71278,-4.70555c0,0 -0.12586,-0.29369 -0.14281,-0.6824c-0.09065,-0.42961 -0.02099,-0.95903 0.50844,-1.48845c1.21928,-1.21928 2.43856,0 2.43856,0l0.48777,0.53513c0.59287,0.90953 1.39393,1.47689 2.0774,2.31424c0.9967,1.2211 1.5689,2.88308 2.10722,4.34248c0.00427,0.33049 0.18722,0.66342 0.4197,0.89836c0.15574,0.1574 0.44866,0.41582 0.59411,0.63141c0.08206,-0.28476 0.21898,-0.66515 0.22525,-0.81635c0.05129,-1.23701 -0.2325,-2.24536 -0.39757,-3.4615c-0.15457,-1.13872 -0.5276,-2.59249 -0.2136,-3.72417c0.11981,-0.4318 0.4825,-0.75675 0.68784,-1.15504c0.78025,-1.51338 1.40092,-3.09368 2.17595,-4.60671c0.09354,-0.26809 0.19479,-0.53362 0.3022,-0.79712c0.19384,-1.87945 0.28022,-3.78054 0.0417,-5.65994c-0.23639,-1.86273 -0.93688,-3.54702 -0.68163,-5.46593c0.36209,-2.72214 1.87747,-5.41099 3.3916,-7.77415c-0.36383,-0.25918 -0.36383,-0.75261 -0.36383,-0.75261c0.04738,-2.65564 -2.76479,-4.01891 -3.24416,-6.54627c-0.26289,-1.386 -0.00381,-3.34484 0.20533,-4.71181c0.13715,-0.89639 0.4303,-2.04508 0.22074,-2.96114c-0.35663,-1.55897 -1.4644,-3.12756 -2.28209,-4.48872l-0.06345,0.1269c0,0 -0.81173,-0.40586 -0.40586,-1.21759c0.40586,-0.81173 1.21759,-0.40586 1.21759,-0.40586l0.80814,0.5627c0.9415,1.57098 2.10083,3.29953 2.51163,5.09871c0.566,2.4789 -0.87364,5.07252 -0.44551,7.57978c0.1656,0.96976 1.06608,1.7668 1.59614,2.51052c0.29609,0.41544 0.56445,0.82506 0.79589,1.2413c0.08907,-4.13343 0.26225,-8.25478 -0.03838,-12.38761c-0.07454,-1.02475 -0.64838,-1.94647 -0.85838,-2.96199c0,0 -0.17798,-0.88991 0.71193,-1.0679c0.88991,-0.17798 1.0679,0.71193 1.0679,0.71193c0.21424,1.11825 0.7788,1.98435 0.88479,3.1391c0.11222,1.22265 -0.12468,2.48386 0,3.70424c0.22651,2.21712 0.20912,4.42873 0.14549,6.64422c0.264,-0.97083 0.56204,-1.93758 0.66302,-2.93999z" fill="#ffdd72"/><path d="M197.64386,276.68502c0.19646,0.2506 0.3332,0.59944 0.3332,1.085c0,1.72432 -1.72432,1.72432 -1.72432,1.72432l-0.77396,-0.03349c-1.26713,-0.25343 -2.44776,-0.44939 -3.63666,-0.98942c-0.40137,-0.18231 -0.8991,-0.26487 -1.17344,-0.60995c-0.65481,-0.82366 -1.77007,-1.74958 -1.51368,-2.77011c0.23902,-0.95143 1.65189,-1.08832 2.5699,-1.43414c0.39286,-0.148 0.83959,-0.0069 1.25939,-0.00839c0.5163,-0.00185 2.40821,-0.01686 2.72424,0.08848c0.51771,0.17257 0.90726,0.60671 1.3609,0.91007c0,0 1.13413,0.85061 0.57443,2.03763z" fill="#00f8ff"/><path d="M212.57237,277.25537c0.00372,0.05009 0.00372,0.07885 0.00372,0.07885l-0.12333,1.07619c-0.35669,0.62565 -0.47876,1.46584 -1.07008,1.87693c-0.56858,0.39529 -1.36676,0.23149 -2.05619,0.29647c-2.02348,0.1907 -6.63511,0.29692 -5.79558,-3.2959c0.21014,-0.8993 1.32247,-1.31983 2.12325,-1.7799c1.40409,-0.80669 3.99399,-0.33428 5.48108,-0.09255c0,0 1.60364,0.26727 1.43713,1.8399z" fill="#00f8ff"/><path d="M213.02399,276.04817c-0.26126,-0.32449 -0.90796,-1.32728 0.09484,-2.33007c0.73519,-0.73519 1.4704,-0.58377 1.9383,-0.34766c0.81061,-0.44133 1.69341,0.08835 1.69341,0.08835c1.08956,0.68384 2.31244,1.59361 2.9765,2.75103c0.30135,0.52525 0.36983,1.16889 0.68,1.6863l0.552,0.276c0.58325,0.27648 0.9866,0.87063 0.9866,1.55898c0,0.95231 -0.77201,1.72432 -1.72432,1.72432h-1.08948v-0.05256c-0.05627,0.0158 -0.1129,0.03056 -0.16991,0.04417c-0.66499,0.15885 -1.88696,-0.52396 -2.50039,-0.71678c-0.46256,-0.14539 -1.00625,-0.08466 -1.41178,-0.35044c-0.58122,-0.38093 -1.10793,-0.89996 -1.43312,-1.51411c-0.2115,-0.39942 0.01609,-0.9127 -0.08513,-1.35318c-0.1156,-0.50298 -0.33827,-0.97642 -0.50751,-1.46434z" fill="#00f8ff"/><path d="M227.28208,276.76864c0.477,-0.41512 0.83381,-1.03747 1.43099,-1.24537c0.79237,-0.27585 1.67753,-0.05999 2.51378,-0.12793c2.75336,-0.22367 5.09061,-0.5028 7.73969,0.56372c1.33452,0.53728 4.45996,2.42711 3.27355,4.55448c-0.7224,1.29536 -2.71062,1.15751 -3.93342,1.15976c-1.08708,0.002 -2.18598,0.14708 -3.26123,-0.01292c-0.94504,-0.14062 -1.83878,-0.58223 -2.79188,-0.64916c-0.94468,-0.06634 -1.90403,-0.03217 -2.83264,-0.2179c-0.30652,0.0028 -0.61305,0.00559 -0.91957,0.00839h-1.08948v0c-0.95231,0 -1.72432,-0.77201 -1.72432,-1.72432c0,-0.75779 0.48883,-1.40142 1.16836,-1.63273c0.15917,-0.40905 0.42615,-0.67603 0.42615,-0.67603z" fill="#00f8ff"/><path d="M212.22824,166.6324l-0.53481,0.16866c-0.49569,0.24785 -1.10035,0.3254 -1.50731,0.70158c-0.48032,0.444 -0.50888,2.01423 -0.62339,2.5868c0,0 -0.02802,0.14006 -0.11738,0.29795c0.06799,0.15622 0.11407,0.33764 0.13272,0.54921c0.10283,1.16665 -1.56218,1.97756 -2.13009,2.77394c-0.3861,0.54142 -0.72103,1.15084 -1.03092,1.78633c-0.04612,0.16469 -0.08889,0.33022 -0.12726,0.49687c-0.05983,0.25989 -0.64624,3.01504 -1.11529,3.27527c-0.10579,0.05869 -0.21575,0.1045 -0.32895,0.1402l0.02428,0.0607l-1.07037,0.42815c-0.10936,0.0467 -0.22974,0.07256 -0.35616,0.07256c-0.50122,0 -0.90753,-0.40632 -0.90753,-0.90753c0,-0.25061 0.10158,-0.4775 0.26581,-0.64172l0.57455,-0.57455c0.37851,-0.78893 0.7519,-1.727 1.17963,-2.66083c0.23348,-0.59952 0.48438,-1.16979 0.64388,-1.64693c0.37257,-1.11451 0.39568,-2.25481 0.62094,-3.36343c0.24677,-1.21446 0.81099,-2.62001 1.38681,-3.72058c0.19507,-0.37282 0.30826,-0.80992 0.60579,-1.10744c2.29877,-2.29877 6.34856,-1.12507 9.13967,-1.1374c1.39573,0 3.81367,-0.38276 5.21917,0.21796c0.00344,-0.00004 0.00689,-0.00006 0.01034,-0.00006c0.15243,0 0.29608,0.03758 0.42219,0.10398l0.85526,0.42762l-0.02345,0.04691l0.14823,0.02859c1.39027,1.37873 2.00982,3.18248 3.0094,4.76128c0.38899,0.19084 0.85669,0.30426 1.10331,0.65359c0.36721,0.52014 0.41822,1.11103 0.38716,1.71397c0.03104,0.02717 0.06344,0.05309 0.09735,0.07764c1.80399,1.30598 4.64102,1.24165 5.31799,3.91213c0.14672,0.57879 0.11649,1.18849 0.17474,1.78274c-0.49278,0.30678 -0.92679,0.73937 -1.47833,0.92032c-1.46574,0.48088 -3.89836,-0.38421 -4.68474,-1.71351c-0.14274,-0.24129 -0.24649,-0.49456 -0.33367,-0.75214c-0.07702,-0.0611 -0.14925,-0.12773 -0.21587,-0.19996c-0.37697,-0.40873 -0.53741,-0.98981 -0.65912,-1.53237c-0.0107,-0.04772 -0.01613,-0.21252 -0.01842,-0.43703c-0.0518,-0.06233 -0.10761,-0.12317 -0.16794,-0.18234c-1.1786,-1.15606 -3.05725,-1.25482 -3.70558,-2.96949c-0.10945,-0.28949 -0.0632,-0.6082 -0.04312,-0.92388c-0.46671,-0.93743 -0.61325,-2.22015 -0.68268,-3.4325l-0.19863,-0.5959c-1.23969,-0.43431 -3.29234,-0.09248 -4.53359,-0.09248c-1.37242,-0.00514 -2.72255,-0.21818 -4.09329,-0.25222c0.03334,0.63779 -0.63134,0.85934 -0.63134,0.85934zM207.61298,171.14803c0.00314,-0.00177 0.00628,-0.00354 0.00943,-0.0053c-0.00332,0.00092 -0.00656,0.00173 -0.00969,0.00239c0.00009,0.00097 0.00018,0.00194 0.00026,0.00291z" fill="#ff7734"/></g></g></g></svg>