<svg version="1.1" xmlns="http://www.w3.org/2000/svg" xmlns:xlink="http://www.w3.org/1999/xlink" width="119.15968" height="148.3925" viewBox="0,0,119.15968,148.3925"><g transform="translate(-77.37843,-156.6653)"><g data-paper-data="{&quot;isPaintingLayer&quot;:true}" stroke-miterlimit="10" stroke-dasharray="" stroke-dashoffset="0" style="mix-blend-mode: normal"><g fill-rule="evenodd"><path d="" fill="#ffab19" stroke="#001026" stroke-width="1.2" stroke-linecap="round" stroke-linejoin="round"/><path d="" fill="#ffffff" stroke="none" stroke-width="1" stroke-linecap="butt" stroke-linejoin="miter"/></g><path d="" fill="#ffab19" fill-rule="evenodd" stroke="#001026" stroke-width="1.2" stroke-linecap="round" stroke-linejoin="round"/><path d="" fill="#ffab19" fill-rule="evenodd" stroke="#001026" stroke-width="1.2" stroke-linecap="round" stroke-linejoin="round"/><g fill-rule="evenodd"><path d="" fill="#ffab19" stroke="#001026" stroke-width="1.2" stroke-linecap="round" stroke-linejoin="round"/><path d="" fill="#ffffff" stroke="none" stroke-width="1" stroke-linecap="butt" stroke-linejoin="miter"/></g><path d="" fill="#ffab19" fill-rule="evenodd" stroke="#001026" stroke-width="1.2" stroke-linecap="round" stroke-linejoin="round"/><g fill-rule="evenodd"><path d="" fill="#ffab19" stroke="#001026" stroke-width="1.2" stroke-linecap="butt" stroke-linejoin="miter"/><path d="" fill="#ffffff" stroke="none" stroke-width="1" stroke-linecap="butt" stroke-linejoin="miter"/><path d="" fill="#ffffff" stroke="#001026" stroke-width="1.2" stroke-linecap="round" stroke-linejoin="round"/><path d="" fill="#001026" stroke="#001026" stroke-width="1.2" stroke-linecap="round" stroke-linejoin="round"/><g><path d="" fill="#ffffff" stroke="#001026" stroke-width="1.2" stroke-linecap="round" stroke-linejoin="round"/><path d="" fill="#001026" stroke="none" stroke-width="1" stroke-linecap="butt" stroke-linejoin="miter"/></g><g><path d="" fill="#ffffff" stroke="#001026" stroke-width="1.2" stroke-linecap="round" stroke-linejoin="round"/><path d="" fill="#001026" stroke="none" stroke-width="1" stroke-linecap="butt" stroke-linejoin="miter"/></g></g><path d="" fill="#000000" fill-rule="nonzero" stroke="none" stroke-width="0.5" stroke-linecap="butt" stroke-linejoin="miter"/><path d="" fill="#000000" fill-rule="nonzero" stroke="none" stroke-width="0.5" stroke-linecap="butt" stroke-linejoin="miter"/><g data-paper-data="{&quot;index&quot;:null}" fill-rule="nonzero" stroke-linejoin="miter"><path d="M190.89056,216.42243c0.49089,2.85436 -0.33717,5.27018 -1.27175,7.81746c1.06029,0.31013 2.65085,0.92783 2.89356,1.23731c1.25398,1.59902 0.4473,2.84534 -0.11002,4.38199c-0.58516,1.61342 -1.0665,4.46168 -2.87194,5.22467c-0.54526,0.23044 -1.17848,-0.12351 -1.77012,-0.14267c-1.60125,-0.05187 -2.36111,-0.43687 -3.86973,-0.79719c-3.17102,-0.75736 -7.24644,-1.78266 -10.13562,-3.39459c-1.75616,-0.97979 -3.24138,-2.05644 -5.3109,-2.317c-3.55194,1.26817 -4.98947,4.3035 -6.63891,7.50014c-0.56039,1.08603 -0.56049,2.30635 -1.54448,3.19542c-2.5837,2.33449 -7.32366,-0.58938 -10.09782,-1.59551l-0.58576,-0.42115c-0.18135,0.14254 -0.43992,0.23361 -0.80653,0.178c-1.05534,-0.16007 -0.89527,-1.2154 -0.89527,-1.2154c0.40332,-2.59698 1.55939,-4.44898 2.72109,-6.75675c0.69163,-1.37397 1.16008,-3.12587 1.90702,-4.45913c0.84765,-1.51305 1.90453,-2.93779 2.7478,-4.42962c0.86376,-1.52808 1.32998,-4.8888 2.9343,-5.93905c1.15629,-0.75695 3.0849,-0.02505 4.14397,0.20954c0.7113,0.25626 1.40829,0.52976 2.09492,0.81784c0.04444,-0.18934 0.08525,-0.38038 0.19323,-0.53713c0.87044,-1.26347 2.48375,-2.43901 3.62086,-3.47546c0.3774,-0.34399 0.69021,-0.78829 1.1482,-1.01411c0.33567,-0.16552 0.80547,0.10256 1.11801,-0.10331c0.4698,-0.30947 0.57473,-1.01848 1.04762,-1.32321c0.37229,-0.23991 0.91263,-0.01081 1.31378,-0.19852c0.58097,-0.27186 0.96404,-0.87884 1.54934,-1.14124c0.19898,-0.08921 2.0757,-0.2688 2.4706,-0.30931c2.79139,-1.17647 5.43476,0.05358 8.22548,1.06572c0.28042,0.1017 2.1633,0.772 2.28207,0.87638c1.69397,1.48873 3.12273,4.88959 3.497,7.06587zM187.14435,224.53435c0.03664,-0.01527 0.07324,-0.03073 0.10982,-0.04628c0.50008,-1.34978 1.30099,-2.86914 1.56074,-4.26388c0.4381,-2.35233 -0.27974,-4.55349 -1.24796,-6.64672c-0.35975,-0.77774 -0.7972,-1.91253 -1.4516,-2.51104c-0.766,-0.70057 -3.28748,-1.13313 -4.24036,-1.48917c-1.51086,-0.56453 -3.02105,-0.84866 -4.406,-0.10913c-0.75528,0.09554 -1.58777,-0.09382 -2.27107,0.24187c-0.5757,0.28283 -0.96825,0.86962 -1.54934,1.14124c-0.32005,0.1496 -0.76293,-0.11862 -1.05706,0.07708c-0.46839,0.31162 -0.57595,1.01659 -1.04762,1.32321c-0.35343,0.22976 -0.86648,0.00368 -1.25283,0.17228c-1.05675,0.46114 -2.31203,2.2913 -3.18007,3.09332c-0.27425,0.25339 -0.46458,0.57713 -0.64665,0.90835c1.46711,0.68927 2.90356,1.43576 4.35092,2.21165c1.46018,0.78276 2.9506,1.30695 4.18595,2.35629c1.18916,0.43129 2.37833,0.86257 3.56749,1.29386c0.6293,-0.05255 1.26622,-0.20477 1.89115,-0.13532c2.10774,0.23425 4.62622,1.55959 6.68449,2.38239z" fill="#ececec" stroke="none" stroke-width="0.5" stroke-linecap="butt"/><path d="M187.16225,224.55413c-2.05826,-0.82281 -4.58834,-2.142 -6.69608,-2.37625c-0.62493,-0.06945 -1.26901,0.08352 -1.89832,0.13607c-1.18916,-0.43128 -2.39227,-0.86702 -3.58143,-1.29831c-1.23534,-1.04934 -2.73559,-1.58546 -4.19577,-2.36822c-1.44736,-0.77589 -2.88576,-1.53026 -4.35287,-2.21953c0.18208,-0.33122 0.37229,-0.65688 0.64655,-0.91028c0.86803,-0.80202 2.12472,-2.64123 3.18147,-3.10237c0.38635,-0.1686 0.90008,0.05568 1.2535,-0.17408c0.47167,-0.30663 0.58204,-1.01662 1.05042,-1.32824c0.29413,-0.1957 0.73863,0.07045 1.05868,-0.07915c0.58108,-0.27162 0.9794,-0.86339 1.5551,-1.14623c0.6833,-0.33569 1.52431,-0.1499 2.2796,-0.24544c1.38494,-0.73953 2.91369,-0.45287 4.42455,0.11166c0.95288,0.35604 3.48481,0.79873 4.25081,1.4993c0.65441,0.59851 1.09493,1.74151 1.45468,2.51926c0.96822,2.09323 1.68383,4.31129 1.24573,6.66362c-0.25976,1.39475 -1.06652,2.92198 -1.56661,4.27175c-0.03658,0.01554 -0.07336,0.03116 -0.11,0.04644z" data-paper-data="{&quot;noHover&quot;:false,&quot;origItem&quot;:[&quot;Path&quot;,{&quot;applyMatrix&quot;:true,&quot;segments&quot;:[[[680.91901,246.09945],[-7.72459,-1.86777],[2.29027,0.55378]],[[687.40838,248.99244],[-2.14983,-0.98916],[4.74029,0]],[[701.62926,248.99244],[-4.74029,0],[5.69268,-2.11831]],[[719.38633,246.0398],[-6.14411,0.89193],[6.09017,-0.8841]],[[737.53976,243.80751],[-6.04906,0.55372],[-0.21823,-1.39949]],[[736.42229,239.7813],[0.64241,1.2431],[-2.03325,-3.93447]],[[729.17157,224.82087],[3.1336,2.9747],[-1.14566,-1.08757]],[[724.97818,222.61325],[0.9515,1.26095],[-1.26985,-1.68283]],[[722.97818,216.61325],[1.25189,1.69624],[-0.78617,-1.06521]],[[719.35279,214.99115],[0.93635,0.93594],[-1.70004,-1.69931]],[[715.35279,208.99115],[1.66676,1.73196],[-1.97825,-2.05563]],[[707.66116,205.23741],[2.5387,1.30157],[-3.93409,-4.37479]],[[692,199.99244],[6.04386,-0.05836],[-3.81175,0.03681]],[[675.15914,199.82081],[3.59361,-1.48932],[-3.07009,1.27236]],[[666.83708,206.81219],[2.26102,-2.28025],[-6.08536,6.13711]],[[653.94835,228.63317],[1.46216,-8.84668],[-0.86694,5.24535]],[[653.9988,245.64834],[-0.03718,-5.39402],[0.109,0.1015]],[[654.32655,245.95169],[-0.10956,-0.10062],[8.30225,-0.26885]]],&quot;closed&quot;:true}]}" fill="#96ebff" stroke="none" stroke-width="0.5" stroke-linecap="butt"/><g stroke="none" stroke-linecap="butt"><path d="M180.55798,212.28355c1.35433,-0.38616 2.72311,-0.01763 3.77419,0.76999c-0.08244,1.20083 -0.42675,2.34527 -1.29134,3.22627c-0.27506,0.28029 -0.62028,0.42982 -0.91229,0.682c-0.08012,0.06919 -0.30114,0.26649 -0.20862,0.25413c1.24628,-0.16652 2.42354,-0.37395 3.66455,-0.3355c0.44795,0.01388 1.33692,-0.1095 1.73881,0.15906c0.00713,0.00476 0.01423,0.00959 0.02129,0.01448l0.00232,-0.00605l0.49071,0.19529c0.18487,0.06747 0.29659,0.28592 0.2593,0.54049c-0.0361,0.24642 -0.20068,0.45069 -0.39519,0.51382l-0.46763,0.16493c-1.29544,0.43773 -2.14608,2.01192 -3.55611,2.37813c-1.09003,0.2831 -2.04541,-0.06344 -3.02187,-0.36465c-1.08355,-0.33425 -2.32711,-0.33516 -3.4782,-0.37082c-1.00679,-0.0312 -2.36888,-0.10157 -3.08958,-0.94836c-0.46915,-0.55124 -0.53816,-2.275 -1.22013,-2.51053c-0.75034,-0.25914 -1.85519,0.2905 -2.57509,-0.0872c-0.46455,-0.24373 -1.23629,-1.54028 -0.69275,-2.27394c0.1522,-0.20545 1.7091,-0.04813 1.93755,-0.04106c0.50465,0.01563 1.1196,0.18646 1.62428,0.06504c0.47375,-0.11398 0.87433,-0.73334 1.30172,-0.99671c0.78042,-0.48093 1.79864,-0.92558 2.62952,-1.17029c1.09696,-0.32307 2.34103,-0.07738 3.46456,0.14145z" fill="#ffc396" stroke-width="0.5"/><path d="M184.12879,214.26799c0.42004,-0.29224 0.60363,0.17132 0.60363,0.17132c0.15468,0.40919 0.58605,1.95028 0.13567,2.41852c-0.87024,0.90474 -1.47675,-0.63636 -1.62883,-1.17972l0.27571,-0.85051c0,0 0.15613,-0.27603 0.39106,-0.30006c0.04102,-0.09068 0.11023,-0.18126 0.22276,-0.25955z" fill="#ffffff" stroke-width="0.5"/><path d="M186.69697,217.35121c-0.07307,0.01998 -0.12623,0.01833 -0.12623,0.01833l-0.28906,-0.03719c-0.21781,-0.17172 -0.59381,-0.20069 -0.65343,-0.51514c-0.05999,-0.31634 0.23823,-0.65034 0.37195,-0.96931c0.11552,-0.27556 0.27451,-0.52548 0.45677,-0.7565l-0.06311,-0.06491l0.46536,-0.62161c0.10236,-0.13971 0.25166,-0.22861 0.40524,-0.22385c0.20303,0.00629 0.35091,0.17432 0.37484,0.39992l0.06867,0.54038c0.08256,0.70266 -0.01272,1.27743 -0.11924,2.00462c0,0 -0.08023,0.5478 -0.53157,0.53382c-0.23784,-0.00737 -0.32807,-0.16298 -0.36021,-0.30855z" fill="#ffffff" stroke-width="0.5"/><path d="M180.83542,213.70668c0.49853,0.01545 0.8398,0.45717 0.76225,0.98662c-0.07755,0.52946 -0.54455,0.94613 -1.04309,0.93069c-0.49853,-0.01545 -0.8398,-0.45718 -0.76225,-0.98663c0.07755,-0.52945 0.54455,-0.94612 1.04309,-0.93068z" fill="#ffffff" stroke-width="0"/><path d="M181.0778,214.63133c-0.04431,0.30254 -0.28231,0.54154 -0.53157,0.53382c-0.24927,-0.00773 -0.41541,-0.25924 -0.3711,-0.56179c0.04432,-0.30255 0.28232,-0.54154 0.53158,-0.53382c0.24926,0.00772 0.4154,0.25923 0.37109,0.56178z" fill="#000000" stroke-width="0.5"/></g><path d="M120.30324,191.41121c0.48568,-1.50228 1.34977,-3.24359 1.60111,-4.80333c0.0849,-0.5269 -0.09023,-1.07508 0,-1.60111c0.1902,-1.10895 0.84526,-2.09923 1.06741,-3.20222c0.14349,-0.71242 -0.21755,-1.59862 0.23463,-2.16754c0.52505,-0.66059 1.5147,-0.75384 2.31047,-1.03459c1.71147,-0.60381 3.55414,-1.00786 5.28815,-1.58586c0.60558,-0.20187 3.54564,-1.23116 3.9307,-1.10018c3.97476,1.35203 1.25468,4.07564 0.37995,6.10797c-0.30694,0.71313 -0.2449,1.55838 -0.59283,2.25243c-0.23291,0.46462 -0.82613,0.66578 -1.09349,1.11148c-0.28939,0.48243 -0.24219,1.11995 -0.5337,1.60111c-0.29103,0.48034 -0.8209,0.77235 -1.17056,1.21185c-1.06774,1.34209 -1.97618,2.98001 -3.4539,3.97243c-1.81638,1.21986 -4.1186,1.55444 -5.9164,2.7c-0.5981,0.38111 -0.9452,1.06464 -1.4897,1.51906c-0.8652,0.72208 -1.79383,1.42952 -2.40425,2.3768c0,0 -0.11021,0.1653 -0.30935,0.32581c0.00009,0.5079 -0.00028,0.92203 -0.00028,1.06889c0,2.13391 0.18232,4.11703 0.51648,6.19072c0.39403,2.44518 2.01885,3.40703 3.08378,5.49825c0.61085,1.19954 0.86372,2.42149 2.1714,3.18715c0.52196,0.30562 1.24815,0.21723 1.70953,0.60835c0.22016,0.18663 0.40316,0.40717 0.56806,0.64424c0.30518,0.07772 0.6021,0.17649 0.88055,0.32244c2.04835,1.07363 3.48814,4.43327 4.72241,6.2917c1.20925,1.82075 2.42227,2.95533 3.32475,5.03285c1.43187,3.29619 1.70267,6.59273 1.70267,10.11727c0,1.31656 0.19857,2.65089 -0.01723,3.94965c-0.28156,1.69458 -1.16616,3.55 -1.71955,5.17581c-2.05645,3.12254 -4.0287,6.26565 -6.65957,8.89652c-0.15501,0.15501 -2.75895,2.81254 -3.10138,2.95774c-0.58304,0.24723 -1.27389,-0.02315 -1.89799,0.08434c-1.10882,0.19098 -2.09319,0.87766 -3.20222,1.06741c-0.54272,0.09286 -1.10609,-0.06603 -1.6518,0.00723c-1.80957,0.24291 -3.83002,1.20461 -5.44756,2.00914c-0.08438,0.04197 -0.17059,0.08602 -0.25828,0.132c-0.22225,1.37713 -0.42003,2.76243 -0.60447,4.16693c-0.19322,1.47138 -0.89295,2.84755 -1.07455,4.3204c-0.10895,0.88365 0.11177,1.78776 -0.0004,2.671c-0.28357,2.233 -1.23373,4.52483 -1.56916,6.78039c-0.22314,1.50053 -0.01472,3.23076 -0.01472,4.74737c0,2.63396 -0.31997,5.2825 0.51647,7.79183c0.00574,0.60495 0.07877,1.21301 0.01723,1.81484c-0.02813,0.2751 -0.49421,0.60198 -0.28259,0.77999c0.68473,0.57599 1.78947,0.02274 2.68425,0.02056c2.28864,-0.00557 4.65195,-0.10312 6.93815,0c0.97428,0.04395 2.10956,-0.29813 2.91496,0.25186c0.99382,0.67867 1.38844,3.58858 1.03056,4.67128c-1.64383,4.9731 -7.30852,3.69815 -11.0974,3.0652c-0.50974,-0.08516 -1.03879,0.08032 -1.55041,0.00723c-0.72614,-0.10373 -1.40907,-0.42732 -2.13482,-0.5337c-0.80069,-0.11736 -3.05998,0.24351 -3.6359,-0.13086c-0.9729,-0.63243 -1.45751,-1.80599 -2.18627,-2.70898c-1.18637,-3.55914 -0.6861,-7.55718 -0.6861,-11.29331c0,-4.37369 -0.60055,-9.23122 0.01723,-13.55631c0.27834,-1.94872 1.31564,-3.84609 1.59387,-5.82004c0.05443,-0.38619 0.11516,-0.77611 0.17925,-1.16883c-1.0664,0.00325 -2.97961,-0.00468 -3.22049,-0.16028c-2.41035,-1.55703 -1.47796,-2.23445 -1.76209,-4.21558c-0.01378,-0.0961 -0.02871,-0.19094 -0.04464,-0.28464c-0.83357,1.69913 -1.27869,3.54651 -1.84137,5.63052c-0.7867,2.91372 -1.61573,5.83925 -2.44682,8.74043c-0.39039,1.36278 -1.19565,2.59495 -1.49995,3.9795c-0.1704,0.77528 0.10814,1.61075 -0.08885,2.37971c-0.19567,0.76382 -0.84242,1.35631 -1.06221,2.11354c-0.13546,0.46668 0.09464,0.97657 0.0257,1.45759c-0.26817,1.87121 -1.2356,3.64501 -1.62681,5.40116c-0.11117,0.49903 1.02308,0.08694 1.53298,0.0497c1.00782,0.34561 2.2873,0.26662 3.02345,1.03684c0.56166,0.58765 0.23177,1.61093 0.28259,2.42223c0.079,1.26156 0.05868,3.16251 -0.9245,4.14569c-1.51395,1.51396 -5.45482,1.14662 -7.04909,0.14718c-0.58278,-0.36534 -0.66183,-1.24129 -1.18183,-1.6915c-0.47858,-0.41435 -1.11755,-0.60623 -1.71471,-0.81629c-1.58477,-0.55748 -3.46261,-0.40124 -4.44939,-2.22292c-0.18831,-0.34762 -0.15788,-3.54703 -0.15788,-4.3655c0,-0.32872 -0.00998,-3.34169 0.03569,-3.50878c0.22117,-0.8091 0.83807,-1.46574 1.10393,-2.26128c0.28988,-0.8674 0.22845,-1.83184 0.55009,-2.68798c0.21637,-0.57592 0.88712,-0.93136 1.03409,-1.52876c0.20665,-0.83996 -0.20669,-1.75041 -0.0196,-2.59493c0.17208,-0.77677 0.87445,-1.36298 1.06741,-2.13482c0.17259,-0.69036 0,-1.42321 0,-2.13482c1.0524,-2.17555 1.79257,-4.40496 2.73602,-6.61243c0.6181,-1.44624 1.56392,-2.74475 2.11449,-4.21802c0.26636,-0.71275 0.26385,-1.51287 0.56489,-2.21168c1.02073,-2.36945 2.60421,-4.67793 3.75754,-6.98458c1.66155,-3.3231 3.3413,-6.60366 5.18904,-9.81637c-0.05965,-2.08731 -0.30222,-4.35916 0.02955,-6.35596c0.30459,-1.83317 1.06741,-2.90274 1.06741,-4.80334c1.04504,-3.23244 1.56784,-6.32595 2.13482,-9.60667c0.20919,-1.21047 -0.15944,-2.46629 -0.00723,-3.68523c0.18177,-1.45571 0.88523,-2.81397 1.06741,-4.26963c0.17674,-1.41219 -0.17327,-2.85701 0,-4.26963c0.0893,-0.72805 0.44091,-1.40721 0.5337,-2.13482c0.42582,-3.33907 -0.55696,-6.71509 0.44573,-9.96485c-3.8279,-1.21472 -6.83964,-3.72424 -9.6716,-6.54089c-2.70979,-2.7098 -5.6701,-4.86497 -7.66338,-8.24756c-0.85717,-1.45461 -2.55219,-4.16377 0.00458,-5.63079c1.55976,-0.89495 4.25897,1.60605 5.13318,2.2608c0.76231,0.57094 1.60271,1.05316 2.27772,1.72506c0.61894,0.6161 0.93588,1.49562 1.56565,2.10064c0.50878,0.48878 1.22306,0.70898 1.7925,1.12551c3.32727,2.43376 6.82517,5.45839 8.54156,9.22541c0.18417,0.16615 0.36444,0.33682 0.54266,0.51062c0.95188,-0.34995 2.02732,-0.51365 2.96266,-0.88767c1.0368,-0.4973 2.24715,-0.56848 3.27484,-1.08434c0.49597,-0.24896 0.66913,-1.03486 1.2142,-1.13903c1.29722,-0.24792 2.78795,-0.45986 3.95927,0.15029c0.55608,0.28966 0.76128,0.95312 0.90187,1.62516c0.39319,-0.35907 0.80157,-0.70263 1.208,-1.04089c0.41333,-0.34399 0.73915,-0.79204 1.11347,-1.17904z" fill="#ffa166" stroke="none" stroke-width="0.5" stroke-linecap="butt"/><path d="M123.45553,295.6033c0.56966,0.36099 0.56966,1.16125 0.56966,1.16125v0.2783c0.0547,0.39839 0.05048,0.8387 -0.02052,1.31835c-0.07309,1.917 -0.38934,3.07586 -1.81034,4.68384c-0.45966,0.45221 -0.80431,1.10424 -1.37897,1.35664c-0.60064,0.26381 -1.29348,0.08229 -1.94097,0.10156c-0.09916,0.00295 -0.20379,0.00757 -0.31302,0.0134c-1.90584,0.90859 -4.23448,0.52053 -6.36159,-0.05323c-0.28969,-0.07813 -0.72347,-0.18861 -1.2009,-0.31849c-1.03405,-0.0393 -2.09978,-0.17538 -2.91663,-0.17538c-0.44031,0 -3.19878,0.02565 -3.41262,-0.10156c-0.448,-0.2665 -0.94465,-0.67265 -1.37379,-1.16846c-1.27948,-0.21323 -2.60687,-0.63159 -3.07619,-1.4189c-0.60266,-1.011 -0.5124,-2.15757 -0.05935,-3.20084c-0.18908,-1.5756 -0.58333,-4.33382 -0.0788,-5.56177c1.0848,-2.64028 4.33591,-2.6497 6.5291,-2.42477c0.78527,0.08054 1.8724,-0.3012 2.33883,0.3908c0.65825,0.97657 0.32432,2.40156 0.35919,3.61198c0.00824,0.28611 -0.36479,0.57418 -0.23149,0.82096c0.11369,0.21049 0.44881,-0.0013 0.67321,-0.00317c0.58859,-0.00493 1.17715,-0.0141 1.76576,-0.01723c2.55182,-0.01358 5.10393,-0.00486 7.65587,-0.0013c0.4542,-0.23429 0.9154,-0.43102 1.40915,-0.45322c0.94332,-0.04242 1.76276,0.18477 2.36925,0.65181c0.08275,0.05543 0.15899,0.12127 0.22718,0.19582c0.10033,0.09672 0.19317,0.20131 0.27797,0.3136zM109.30861,297.53585v0.03049c0.08177,-0.00079 0.16353,-0.00124 0.24528,-0.00124c0.41623,0 1.54599,0 1.96221,0c-0.9905,-0.00094 -2.10746,-0.00465 -2.15865,-0.01722c-0.01639,-0.00403 -0.03267,-0.00804 -0.04884,-0.01203zM104.85717,294.32718c-0.03038,-0.03457 -0.09124,-0.03066 -0.15796,-0.0025c0.05474,0.17302 0.11233,0.35567 0.16953,0.5378c0.16731,0.01238 0.3346,0.02483 0.50082,0.03086c-0.17198,-0.18824 -0.34479,-0.3754 -0.51239,-0.56616zM102.20941,299.72032c0.01138,0.008 0.02296,0.01521 0.03476,0.02168c0.01207,-0.07275 0.02733,-0.1456 0.04594,-0.21846c-0.0178,-0.00745 -0.0356,-0.0149 -0.0534,-0.02235c-0.05845,0.08854 -0.09355,0.17253 -0.0273,0.21913z" fill="#8a8a8a" stroke="none" stroke-width="0.5" stroke-linecap="butt"/><path d="M94.79569,293.46847c0.41932,0.36099 0.41932,1.16125 0.41932,1.16125v0.2783c0.04026,0.39839 0.03715,0.8387 -0.01511,1.31835c-0.05381,1.917 -0.28658,3.07586 -1.33258,4.68384c-0.33835,0.45221 -0.59206,1.10424 -1.01506,1.35664c-0.44213,0.26381 -0.95213,0.08229 -1.42875,0.10156c-0.07299,0.00295 -0.15001,0.00757 -0.23041,0.0134c-1.40289,0.90859 -3.11701,0.52053 -4.68277,-0.05323c-0.21323,-0.07813 -0.53254,-0.18861 -0.88398,-0.31849c-0.76117,-0.0393 -1.54566,-0.17538 -2.14694,-0.17538c-0.3241,0 -2.35462,0.02565 -2.51203,-0.10156c-0.32978,-0.26649 -0.69536,-0.67264 -1.01125,-1.16845c-0.94183,-0.21323 -1.91893,-0.63159 -2.26439,-1.4189c-0.44362,-1.011 -0.37717,-2.15757 -0.04368,-3.20084c-0.13918,-1.5756 -0.42938,-4.33382 -0.058,-5.56177c0.79852,-2.64028 3.19166,-2.6497 4.80607,-2.42477c0.57804,0.08054 1.37826,-0.3012 1.72161,0.3908c0.48454,0.97657 0.23874,2.40156 0.26441,3.61198c0.00607,0.28611 -0.26851,0.57418 -0.17039,0.82096c0.08369,0.21049 0.33037,-0.0013 0.49555,-0.00317c0.43327,-0.00492 0.86651,-0.01409 1.29978,-0.01722c1.87839,-0.01357 3.757,-0.00486 5.63549,-0.0013c0.33433,-0.23429 0.67381,-0.43102 1.03727,-0.45322c0.69438,-0.04242 1.29756,0.18477 1.74401,0.65181c0.06092,0.05543 0.11703,0.12127 0.16723,0.19582c0.07386,0.09672 0.14219,0.20131 0.20461,0.3136zM84.38216,295.40103v0.03049c0.06018,-0.00079 0.12037,-0.00124 0.18054,-0.00124c0.30639,0 1.138,0 1.44439,0c-0.72911,-0.00094 -1.55131,-0.00465 -1.58899,-0.01722c-0.01205,-0.00403 -0.02403,-0.00804 -0.03594,-0.01203zM81.4826,292.75853c-0.12659,-0.18824 -0.2538,-0.3754 -0.37717,-0.56616c-0.02235,-0.03457 -0.06716,-0.03066 -0.11627,-0.0025c0.0403,0.17302 0.0827,0.35567 0.1248,0.5378c0.12315,0.01238 0.24629,0.02483 0.36865,0.03086zM79.17651,297.36637c-0.04302,0.08854 -0.06887,0.17253 -0.0201,0.21913c0.00838,0.008 0.01691,0.01521 0.02559,0.02168c0.00889,-0.07275 0.02013,-0.1456 0.03383,-0.21846c-0.0131,-0.00745 -0.02621,-0.0149 -0.03931,-0.02235z" fill="#8a8a8a" stroke="none" stroke-width="0.5" stroke-linecap="butt"/><path d="M116.81688,244.72842c-1.33426,0 -1.33426,-1.33426 -1.33426,-1.33426v-1.60111c0,-4.69662 -0.84399,-10.35875 0.60217,-14.83193c0,0 0.42193,-1.26579 1.68772,-0.84386c1.26579,0.42193 0.84386,1.68772 0.84386,1.68772c-0.5997,1.7314 -0.46523,3.06343 -0.46523,4.91511c0,3.02432 0,7.64976 0,10.67408c0,0 0,1.33426 -1.33426,1.33426z" fill="#ca7f51" stroke="none" stroke-width="0.5" stroke-linecap="butt"/><path d="M97.06985,180.95084c0,-0.9011 0.44664,-1.69788 1.13061,-2.18105c0.26481,-1.19493 1.3307,-2.08858 2.60532,-2.08858c1.47378,0 2.66852,1.19474 2.66852,2.66852c0,0.09006 -0.00447,0.17908 -0.01318,0.26685c0.0087,0.08769 0.01318,0.17661 0.01318,0.26659c0.33512,0.44604 0.5337,1.00052 0.5337,1.60137c0,1.10483 -0.67142,2.05283 -1.62848,2.45825c1.55159,1.57688 2.3863,3.74896 2.41307,6.48532v1.38608c0,0 0,1.51375 -1.45802,1.71142c0.01926,0.11297 0.0297,0.23528 0.0297,0.36771c0,1.7326 -1.7854,1.73261 -1.7854,1.73261c-1.97566,-0.0182 -3.58936,0.22582 -5.3687,-1.04873c-0.75224,-0.53884 -0.94502,-1.59023 -1.60706,-2.2309c-2.10956,-2.04148 -7.2858,-4.64213 -6.18846,-8.5536c0.92307,-3.29026 5.08025,-3.08824 7.66907,-2.70763c0.34415,0.0506 0.67898,0.11041 1.00436,0.17938c-0.01204,-0.10286 -0.01823,-0.2075 -0.01823,-0.3136z" fill="#ffffff" stroke="none" stroke-width="0.5" stroke-linecap="butt"/><path d="M104.27485,245.52898v-1.60111c0.02442,-2.57213 1.21174,-4.66608 1.61834,-7.15187c0.08615,-0.5267 -0.08918,-1.07491 0,-1.60111c0.22263,-1.31369 0.76686,-2.55316 1.09002,-3.8458c0.43767,-1.75071 1.04979,-3.22316 1.02756,-5.01343c0,0 0,-1.33426 1.33426,-1.33426c1.33426,0 1.33426,1.33426 1.33426,1.33426c-0.03082,3.24642 -1.63501,6.12568 -2.15204,9.28668c-0.08615,0.5267 0.08918,1.07491 0,1.60111c-0.39181,2.31191 -1.61336,4.35057 -1.58388,6.72442v1.60111c0,0 0,1.33426 -1.33426,1.33426c-1.33426,0 -1.33426,-1.33426 -1.33426,-1.33426z" fill="#ca7f51" stroke="none" stroke-width="0.5" stroke-linecap="butt"/><path d="M120.73948,191.87537c-0.98723,-0.20227 -0.98723,-1.75129 -0.98723,-1.75129v-1.41839c0.03537,-5.46385 2.15366,-8.72915 5.89684,-9.56083c1.75291,-0.38948 4.56778,-0.59621 5.19279,2.77074c0.74302,4.00264 -2.76185,6.6639 -4.19025,8.75297c-0.44828,0.6556 -0.57881,1.73149 -1.08815,2.28289c-1.2048,1.30426 -2.29745,1.05455 -3.63519,1.07317c0,0 -1.20891,0.00001 -1.20891,-1.77298c0,-0.13552 0.00706,-0.26068 0.02011,-0.37628z" fill="#ffffff" stroke="none" stroke-width="0.5" stroke-linecap="butt"/><path d="M116.6582,195.39698c-0.16225,0.05408 -0.32452,0.10817 -0.48677,0.16225c-2.33172,0.75383 -4.32242,0.24905 -6.66335,0.59218c-1.73033,0.25363 -3.07854,1.20533 -4.94326,0.44214c-0.85661,-0.3506 -1.36416,-1.25156 -2.03397,-1.89035c-1.45895,-1.39138 -2.84292,-2.78628 -3.92745,-4.51163c-1.01293,-1.61144 -2.05057,-3.86628 -3.83611,-4.90351c-1.473,-0.85567 -3.5105,-1.41865 -4.26716,-3.2929c-0.26381,-0.65347 -0.08471,-1.4072 -0.10156,-2.11171c-0.04417,-1.84627 -0.00031,-3.70403 0.01722,-5.55076c0.64282,-1.92845 0.36515,-3.73841 1.16424,-5.66309c0.25242,-0.60799 0.79258,-1.05975 1.08902,-1.64754c0.72357,-1.43473 0.2304,-1.79976 1.13101,-3.31748c0.61146,-1.03044 1.47079,-1.89256 2.23796,-2.81296c0.78461,-0.94132 2.01617,-1.40961 3.11415,-1.95379c0.63745,-0.31593 1.11528,-0.95505 1.80067,-1.14583c0.2637,-0.0734 4.19399,-0.05725 4.65628,-0.05725c0.25618,0 3.2777,-0.00508 3.41594,0.01722c0.5554,0.08957 1.04628,0.44073 1.60111,0.5337c0.55691,0.09333 1.15346,-0.1451 1.69393,0.01847c1.36191,0.41216 2.37589,1.56817 3.59714,2.29839c0.48284,0.2887 1.12045,0.24136 1.60111,0.5337c0.49035,0.29825 0.82676,0.79628 1.24015,1.19442c1.17496,0.88123 2.43229,1.66499 3.35985,2.83059c0.80682,1.01388 1.18885,2.30276 1.76786,3.46192c0.29416,0.58892 0.83659,1.03955 1.08901,1.64754c0.81591,1.96518 0.64322,2.79067 0.64777,4.80941c0.00435,1.93275 0.26363,4.11811 -0.01,6.03376c-0.34424,2.41004 -1.36451,4.75956 -2.31494,6.97143c-1.16459,2.71028 -2.38596,5.55886 -4.4703,7.6853c0,0 -0.94346,0.94346 -1.88692,0c-0.12528,-0.12528 -0.21729,-0.25056 -0.28266,-0.37363z" fill="#fff0ca" stroke="none" stroke-width="0.5" stroke-linecap="butt"/><path d="M121.62022,172.14473c-1.95691,0 -3.91383,0 -5.87074,0c-6.58222,0 -13.16486,0.0226 -19.74704,0c-1.28804,-0.00443 -4.55724,0.38423 -5.46302,-1.27127c-0.31013,-0.5668 0.73226,-3.4326 0.99501,-4.22084c0.51513,-1.5454 0.89489,-3.69468 1.73191,-5.08287c0.78006,-1.29374 2.59273,-2.62972 3.67983,-3.66183c1.4014,-0.37867 2.74711,-0.98822 4.17959,-1.22337c0.13581,-0.0223 3.16189,-0.01723 3.41594,-0.01723c3.64061,0 7.55945,-0.13483 10.84184,1.80038c0.46014,0.27129 0.70167,0.82369 1.1461,1.11999c0.66197,0.44134 1.49177,0.59894 2.13482,1.06741c1.21545,0.88548 1.98147,2.26393 2.9202,3.43873c1.78433,2.23306 2.93195,4.24898 2.97093,7.25035c0,0 0,1.33426 -1.33426,1.33426c-0.57765,0 -0.90521,-0.25008 -1.09096,-0.5337z" fill="#8a4900" stroke="none" stroke-width="0.5" stroke-linecap="butt"/><path d="M116.81689,166.27398c-0.80056,0 -0.80056,-0.80056 -0.80056,-0.80056l0.02142,-0.88348c-0.57271,-1.08684 -1.66975,-3.4846 -3.13148,-3.63098c-0.41928,-0.04199 -0.78217,0.31373 -1.17326,0.4706c0,0 -0.75948,0.25315 -1.01263,-0.50632c-0.25315,-0.75947 0.50631,-1.01263 0.50631,-1.01263c0.62154,-0.18067 1.22245,-0.62294 1.86464,-0.54202c2.27504,0.28664 3.65685,3.09266 4.5047,4.8535l0.02141,1.25133c0,0 0,0.80056 -0.80056,0.80056z" fill="#000000" stroke="none" stroke-width="0.5" stroke-linecap="butt"/><path d="M97.57118,167.04217l0.56811,-0.56614c1.35676,-1.20112 2.84014,-2.50243 4.44328,-3.31974c0,0 0.71604,-0.35803 1.07406,0.35801c0.35802,0.71604 -0.35802,1.07406 -0.35802,1.07406c-1.46737,0.71597 -2.8659,1.98784 -4.09598,3.08469l-0.49929,0.50127c0,0 -0.56608,0.56608 -1.13216,0c-0.56608,-0.56608 0,-1.13215 0,-1.13215z" fill="#000000" stroke="none" stroke-width="0.5" stroke-linecap="butt"/><path d="M102.67373,178.81603c0,-0.80056 0.80056,-0.80056 0.80056,-0.80056h0.31169c-0.11119,-0.24958 -0.4303,-0.35655 -0.59109,-0.58042c-0.24929,-0.34711 -0.29383,-0.85422 -0.63206,-1.11542c-0.46422,-0.3585 -1.17052,0.09474 -1.75706,0.09473c-1.52517,-0.00003 -2.50843,-0.0897 -3.98909,-0.57478c0,0 -0.00486,-0.00162 -0.01369,-0.005v0.31293c0,0.25808 -0.01495,0.54056 -0.03544,0.83648c0.23643,0.06516 0.56914,0.24854 0.56914,0.76463c0,0.59958 -0.44906,0.7501 -0.67453,0.78789c-0.0247,0.61322 -0.00916,1.20701 0.11942,1.6967c0.10103,0.38475 0.43722,0.68148 0.5337,1.0674c0.35432,1.41728 0.1759,2.51712 1.71369,3.20382c0.77388,0.40768 1.81254,0.2752 2.62356,-0.05242c0.71783,-0.28997 1.77932,-0.07528 2.20818,-0.71982c0.31725,-0.4768 -0.11957,-1.14124 -0.11957,-1.71394c0,-0.58848 0.14017,-1.53427 0.18585,-2.40166c-0.15292,0 -0.3039,0 -0.45269,0c0,0 -0.80056,0 -0.80056,-0.80056zM105.43867,178.01548c1.74645,0 3.49292,0 5.23937,0c0.00076,-0.09314 0.00125,-0.18226 0.00125,-0.26685c0,-0.39718 -0.02849,-2.34643 0.11956,-2.55569c0.88643,-1.25289 2.62935,-0.91338 3.88321,-0.91338h0.5337c0,0 0.51346,0 0.71796,0.4112c0.3611,-0.15184 0.7466,-0.29226 1.20003,-0.37241c0.52738,-0.09322 1.07575,0.04509 1.60644,-0.02697c0.65044,-0.08832 1.28843,-0.64129 1.91679,-0.45144c0.56443,0.17053 0.79685,0.87591 1.12015,1.36899c0.27997,0.427 0.45002,0.87193 0.55086,1.32925l1.06902,-0.573c0,0 0.71603,-0.35802 1.07405,0.35802c0.35803,0.71604 -0.35801,1.07405 -0.35801,1.07405l-0.85935,0.38375c-0.22562,0.48217 -0.31213,1.03656 -0.29923,1.56874c0,0 0,0.61069 -0.53338,0.76532c0.00077,0.58398 0.00119,2.00955 -0.02174,2.08713c-0.15912,0.53836 -0.35156,1.13557 -0.78832,1.48826c-1.8274,1.47565 -5.80314,0.72945 -7.99637,0.72948c-0.49609,-0.03985 -1.07709,0.16083 -1.48828,-0.11956c-1.18302,-0.8067 -1.41445,-2.91067 -1.45003,-4.68377c-1.59265,0 -3.41111,0 -5.12405,0c-0.00911,1.23165 -0.16821,2.5747 -0.21005,3.46908c-0.02325,0.49715 0.15665,1.07426 -0.11956,1.48828c-0.30989,0.46451 -0.93452,0.61958 -1.44204,0.85245c-1.99963,0.91748 -3.42479,1.49219 -5.46771,0.51012c-2.60098,-1.39415 -3.04051,-4.45097 -3.10548,-7.32589c-0.88985,0.05761 -1.81712,0.10911 -2.59117,-0.08286c-0.77221,-0.19151 -1.36349,-0.87241 -2.13482,-1.06741c-0.62217,-0.15729 -1.48975,-0.0714 -2.25335,-0.01512c-0.0649,0.23651 -0.24805,0.57024 -0.76494,0.57024c-0.80055,0 -0.80056,-0.80056 -0.80056,-0.80056l0.80056,-1.33426c1.00622,0 2.4156,-0.21928 3.38615,0.02141c0.77221,0.19151 1.36349,0.87241 2.13482,1.06741c0.65068,0.1645 1.44448,0.11591 2.21449,0.05577c0.00138,-0.29969 0.00324,-0.59307 0.00324,-0.87774v-1.06741c0,0 0,-0.80056 0.80056,-0.80056c0.24597,0 0.41637,0.07557 0.53441,0.18028c0.32347,-0.29343 0.78615,-0.13921 0.78615,-0.13921c1.32492,0.45047 2.11585,0.49266 3.48277,0.49263c0.36035,-0.00001 2.3267,-0.02326 2.51256,0.09473c0.54196,0.34403 0.75216,1.0407 1.14422,1.54899c0.26539,0.34407 0.67566,0.60013 0.82749,1.00727c0.06188,0.16594 0.11072,0.35117 0.14863,0.55123zM112.87482,175.80675c-0.35163,0.02121 -0.63532,0.08451 -0.71397,0.22794c-0.27539,0.50214 0.11956,1.14123 0.11956,1.71393c0,1.22318 -0.2611,5.36522 1.33426,5.07019c1.44842,-0.00003 2.89676,-0.00009 4.34517,-0.00758c0.67622,-0.00349 1.94752,0.12026 2.60216,-0.33035c0.41458,-0.28537 0.26126,-1.20454 0.25768,-1.53003c-0.01349,-1.22839 0.3116,-2.90109 0.02141,-4.0857c-0.07585,-0.30964 -0.31007,-0.55771 -0.44519,-0.84646c-0.1011,-0.21601 -0.02524,-0.64067 -0.26244,-0.66565c-0.41366,-0.04357 -0.72707,0.43726 -1.13501,0.51848c-0.52161,0.10385 -1.0705,-0.06083 -1.59536,0.02513c-1.468,0.24041 -2.26027,1.02527 -3.78842,1.05142c0,0 -0.80056,0 -0.80056,-0.80056c0,-0.13511 0.0228,-0.24742 0.0607,-0.34077z" fill="#000000" stroke="none" stroke-width="0.5" stroke-linecap="butt"/><path d="M116.81688,182.01824c-1.47379,0 -2.66852,-1.19473 -2.66852,-2.66851c0,-1.47378 1.19474,-2.66852 2.66852,-2.66852c1.47378,0 2.66852,1.19474 2.66852,2.66852c0,1.47378 -1.19474,2.66851 -2.66852,2.66851z" fill="#ffffff" stroke="none" stroke-width="0.5" stroke-linecap="butt"/><path d="M100.27207,182.55196c-1.47378,0 -2.66852,-1.19474 -2.66852,-2.66852c0,-1.47378 1.19474,-2.66851 2.66852,-2.66851c1.47378,0 2.66852,1.19473 2.66852,2.66851c0,1.47378 -1.19474,2.66852 -2.66852,2.66852z" fill="#ffffff" stroke="none" stroke-width="0.5" stroke-linecap="butt"/><path d="M116.28318,181.35111c-1.10534,0 -2.00138,-0.89604 -2.00138,-2.00138c0,-1.10534 0.89604,-2.00139 2.00138,-2.00139c1.10534,0 2.00139,0.89605 2.00139,2.00139c0,1.10534 -0.89605,2.00138 -2.00139,2.00138z" fill="#000000" stroke="none" stroke-width="0.5" stroke-linecap="butt"/><path d="M100.80577,181.88483c-1.10534,0 -2.00139,-0.89605 -2.00139,-2.00139c0,-1.10534 0.89605,-2.00138 2.00139,-2.00138c1.10534,0 2.00139,0.89604 2.00139,2.00138c0,1.10534 -0.89605,2.00139 -2.00139,2.00139z" fill="#000000" stroke="none" stroke-width="0.5" stroke-linecap="butt"/><path d="M114.68207,190.55751l-9.07296,-0.5337" fill="none" stroke="#000000" stroke-width="1.5" stroke-linecap="round"/><path d="M107.74391,241.92651c1.94574,-0.11112 3.92117,0 5.87074,0h2.13482c1.10534,0 2.00139,0.89605 2.00139,2.00139c0,0.10545 -0.00815,0.209 -0.02387,0.31004c1.09128,0.48899 1.09128,1.82477 1.09128,1.82477c0,0.96616 -0.00394,1.93233 -0.01435,2.89844l0.47741,1.90964c0.04605,0.16849 0.07064,0.34584 0.07064,0.52894c0,1.10534 -0.89605,2.00139 -2.00139,2.00139c-0.70571,0 -1.32611,-0.36526 -1.68247,-0.91704l-0.95701,-1.43551c-0.1833,-0.14906 -0.95713,-0.86074 -1.28236,-0.36846c-0.31011,0.46938 -0.04382,1.32452 -0.5337,1.60111c-1.16556,0.65809 -2.6439,1.33887 -3.91136,0.9086c-0.99674,-0.33837 -1.08507,-1.80782 -1.53734,-2.75831c-0.03708,-0.07795 -0.07491,-0.15738 -0.11124,-0.23803c-0.63138,0.77146 -2.06571,1.40274 -2.79394,1.0002c-3.40966,-1.88479 -1.95706,-7.4364 0.65728,-9.03038c0.72758,-0.4436 1.69471,-0.18822 2.54548,-0.23681z" fill="#fff0ca" stroke="none" stroke-width="0.5" stroke-linecap="butt"/><path d="M126.3672,235.80962c-0.95472,0.47736 -1.43208,-0.47736 -1.43208,-0.47736l-0.61784,-1.29953c-0.02681,-1.23229 0.31617,-3.08697 0,-4.26963c-0.10274,-0.3843 -0.44224,-0.68025 -0.5337,-1.0674c-0.15115,-0.63982 0.34287,-1.38166 0.0527,-1.97158c-0.32179,-0.65421 -1.49187,-0.8309 -1.90344,-1.25482c-0.35569,-0.36638 -0.49683,-0.89242 -0.73365,-1.34482c-0.4296,-0.82067 -0.55007,-1.78684 -1.02068,-2.58471c-0.76415,-1.29553 -2.6679,-2.77223 -3.98576,-3.43116c-0.11265,-0.11265 -2.15282,-1.59962 -2.26547,-1.71227c-0.87277,-0.87277 -1.51164,-2.33014 -2.24597,-3.33286c-0.34434,-0.47018 -0.92976,-0.76042 -1.18764,-1.28305c-0.18168,-0.36821 0.04431,-0.83168 -0.05269,-1.23065c-0.18795,-0.77308 -0.90193,-1.35662 -1.06741,-2.13482c-0.11616,-0.54626 0.07254,-1.12376 -0.01477,-1.67537c-0.1459,-0.92175 -0.83331,-1.68717 -1.05264,-2.59426c-0.47643,-1.97043 -0.02855,-4.6177 -0.02855,-6.64968c0,0 0,-1.06741 1.06741,-1.06741c1.06741,0 1.06741,1.06741 1.06741,1.06741c0,1.82339 -0.48654,4.41175 -0.02855,6.15921c0.24918,0.95074 0.91347,1.77452 1.08218,2.74278c0.08736,0.50142 -0.10692,1.02629 -0.01478,1.52685c0.14403,0.78246 0.86978,1.36416 1.06741,2.13482c0.07499,0.29244 -0.18973,0.63516 -0.0527,0.90417c0.19273,0.37836 0.68778,0.51561 0.94718,0.85177c0.69329,0.89849 1.24066,2.28857 2.02366,3.07157c0.37869,0.37868 1.62549,1.11127 2.00417,1.48995c1.53909,0.76954 3.64161,2.54045 4.5535,4.04069c0.50013,0.82281 0.67293,2.80273 1.44789,3.54232c0.73898,0.70525 1.90685,1.03499 2.3662,1.9474c0.34455,0.68439 -0.14519,1.55783 0.0527,2.29806c0.10274,0.38431 0.44224,0.68026 0.5337,1.06741c0.29734,1.25866 0.04503,2.9733 0,4.26963l0.44957,0.83528c0,0 0.47736,0.95472 -0.47736,1.43208z" fill="#ca7f51" stroke="none" stroke-width="0.5" stroke-linecap="butt"/><path d="M111.47984,207.10233c-0.58952,0 -1.06741,-0.47789 -1.06741,-1.06741c0,-0.58952 0.47789,-1.06741 1.06741,-1.06741c0.58952,0 1.06741,0.47789 1.06741,1.06741c0,0.58952 -0.47789,1.06741 -1.06741,1.06741z" fill="#000000" stroke="none" stroke-width="0.5" stroke-linecap="butt"/><path d="M123.75503,222.57973c-0.58952,0 -1.06741,-0.47789 -1.06741,-1.06741c0,-0.58952 0.47789,-1.06741 1.06741,-1.06741c0.58952,0 1.06741,0.47789 1.06741,1.06741c0,0.58952 -0.47789,1.06741 -1.06741,1.06741z" fill="#000000" stroke="none" stroke-width="0.5" stroke-linecap="butt"/><path d="M126.95725,235.38862c-0.58952,0 -1.06741,-0.47789 -1.06741,-1.06741c0,-0.58952 0.47789,-1.06741 1.06741,-1.06741c0.58952,0 1.06741,0.47789 1.06741,1.06741c0,0.58952 -0.47789,1.06741 -1.06741,1.06741z" fill="#000000" stroke="none" stroke-width="0.5" stroke-linecap="butt"/><path d="M196.37176,165.0642c0.05295,-0.02818 0.10856,-0.05201 0.16634,-0.07106c-0.05521,0.02362 -0.11067,0.04731 -0.16634,0.07106z" fill="#fff0ca" stroke="none" stroke-width="0.5" stroke-linecap="butt"/><path d="M147.22027,230.23736c0.49675,-1.88453 1.21401,-3.72851 1.81761,-5.58228l0.66095,-2.02992c0.34221,-1.05103 1.47166,-1.62562 2.52269,-1.2834c0.10027,0.03265 0.1962,0.07247 0.28742,0.11869c0.80284,-0.88626 2.07298,-0.4727 2.07298,-0.4727c0.91869,0.29913 1.83618,0.60201 2.75159,0.91102l1.96363,0.13728c0.17447,0.00838 0.35072,0.03991 0.52482,0.0966c1.05103,0.34222 1.62562,1.47166 1.28341,2.52269c-0.21849,0.67104 -0.75787,1.14788 -1.39288,1.31589l-1.66127,0.46554c-0.19847,0.12815 -1.11478,0.64361 -0.74738,1.10528c0.35031,0.44019 1.24588,0.45174 1.35721,1.00319c0.26489,1.31203 0.45454,2.92852 -0.34701,4.00048c-0.63033,0.843 -2.05494,0.47204 -3.09875,0.60782c-0.0856,0.01113 -0.17284,0.02251 -0.26077,0.03208c0.53807,0.8392 0.69426,2.39851 0.08603,2.96632c-2.84784,2.65859 -7.67694,-0.44143 -8.38318,-3.42083c-0.19655,-0.82918 0.34572,-1.66972 0.56292,-2.49373z" fill="#fff0ca" stroke="none" stroke-width="0.5" stroke-linecap="butt"/><path d="M116.28318,205.50121c0,-1.06741 1.06741,-1.06741 1.06741,-1.06741l0.9195,0.22311c0.30567,-0.22311 0.68161,-0.22311 0.68161,-0.22311l1.37672,0.0458c0.97295,0.62065 2.06932,1.0522 2.98333,1.75679c1.24967,0.96334 1.45097,2.32794 2.66852,3.20222c0.74049,0.53172 1.53929,1.00046 2.18741,1.64156c1.65757,1.1489 2.95397,0.90943 4.75073,2.09436c0.42006,0.27702 0.67704,0.74991 1.06741,1.06741c0.46357,0.37704 1.17776,0.20989 1.75593,0.36077c1.55487,0.40578 2.95359,1.63937 4.45556,2.18743c0.66945,0.24428 1.39893,0.29047 2.07398,0.51884c1.03777,0.35108 2.02079,1.31378 3.07713,1.56337c2.21509,0.52338 4.51534,1.16395 6.63656,2.21895c0,0 0.95472,0.47736 0.47736,1.43208c-0.29478,0.58957 -0.7716,0.63302 -1.09322,0.58002c0.1385,0.27016 0.1385,0.54374 0.1385,0.54374c-0.03333,1.53225 -0.60179,2.23839 -1.14866,3.6107c-0.331,0.83058 -0.62039,2.32437 -1.29879,3.01481c-0.21199,0.21576 -0.48741,0.34752 -0.7699,0.46992c-0.01467,0.09195 -0.0436,0.21429 -0.1006,0.33936c0.10864,0.12218 0.21908,0.24154 0.3368,0.34969c0,0 0.75477,0.75478 0,1.50955c-0.75477,0.75477 -1.50955,0 -1.50955,0c-0.24037,-0.27868 -0.37484,-0.71137 -0.72111,-0.83603c-0.50215,-0.18078 -1.11574,0.22195 -1.60111,0c-0.63359,-0.28973 -1.09213,-0.88342 -1.52486,-1.42944c-0.16901,-0.21325 0.00393,-0.64279 -0.22894,-0.78354c-0.30451,-0.18405 -0.7732,0.2001 -1.06741,0c-0.39163,-0.26635 -0.39647,-0.8817 -0.72731,-1.22062c-1.03161,-1.05682 -3.03545,-1.0046 -4.2938,-1.31703c-0.7119,-0.17675 -1.40131,-0.5337 -2.13482,-0.5337l-1.29953,-0.61784c0,0 -0.33392,-0.16696 -0.50806,-0.50089c-0.61569,-0.24789 -0.61569,-0.98753 -0.61569,-0.98753c0.03515,-1.0122 -0.94632,-3.89564 -2.00959,-4.35088c-0.37464,-0.1604 -0.87891,0.14471 -1.2201,-0.07816c-0.33304,-0.21755 -0.21717,-0.82646 -0.5337,-1.06741c-0.18372,-0.13986 -0.44979,0.18554 -0.67722,0.14563c-1.60378,-0.28145 -4.70524,-1.21808 -5.92083,-2.43367c-1.48192,-1.48192 -0.90295,-3.10139 -1.35148,-4.77916c-0.18943,-0.70862 -0.5337,-1.4013 -0.5337,-2.13481c-0.83197,-1.54577 -1.66164,-2.5036 -2.91814,-3.7601l0.22107,0.31264c0,0 -1.06741,0 -1.06741,-1.06741zM131.10169,218.39136c1.80661,1.00067 3.10955,3.86032 3.30354,5.91963l0.80285,0.43211c0.7335,0 1.42351,0.35457 2.13481,0.5337c1.67896,0.42282 3.92502,0.52789 5.31287,1.88519c0.23245,0.22733 0.06742,0.73709 0.34009,0.91419c0.29839,0.1938 0.77715,-0.20579 1.06741,0c0.68402,0.48497 0.64958,1.80181 1.44842,2.05665c0.26681,0.08511 0.55951,0.02276 0.84829,-0.02523l0.40069,-1.01074c1.31815,-0.55689 1.07653,-1.28711 1.62602,-2.65599c0.44181,-1.10063 1.02758,-1.60102 0.98615,-2.79374c0,0 0,-0.90813 0.83764,-1.04912c-1.36335,-0.65294 -2.93683,-1.31901 -4.2851,-1.64795c-0.34567,-0.08433 -0.72314,0.08987 -1.06741,0c-1.18324,-0.30886 -2.17327,-1.25627 -3.32731,-1.63886c-0.67448,-0.2236 -1.40137,-0.27115 -2.06817,-0.5167c-1.33761,-0.49258 -2.81024,-1.78294 -4.21119,-2.11407c-0.84704,-0.20021 -1.80259,-0.20477 -2.5137,-0.70664c-0.41111,-0.29013 -0.65597,-0.77773 -1.0674,-1.06741c-0.83792,-0.58997 -1.98712,-0.52831 -2.93153,-0.92613c-0.70478,-0.29688 -1.28294,-0.83276 -1.92441,-1.24914c-0.60967,-0.61697 -1.39676,-1.02913 -2.08221,-1.56065c-0.79222,-0.6143 -1.25821,-1.56232 -1.84292,-2.37661c-0.49064,-0.68326 -1.34058,-1.17233 -2.14108,-1.63328c0.50163,0.69866 0.94323,1.45195 1.37734,2.36503c0,0.73351 0.36506,1.42097 0.5337,2.13482c0.29664,1.25569 -0.28963,2.68716 0.78332,3.7601c0.93001,0.93002 3.53448,1.56697 4.75324,1.83596c0.4768,0.10524 1.04059,-0.1084 1.45759,0.14563c0.33973,0.20695 0.2052,0.84305 0.5337,1.06741c0.25271,0.17259 0.64703,-0.22645 0.91473,-0.07817z" fill="#ca7f51" stroke="none" stroke-width="0.5" stroke-linecap="butt"/><path d="M134.40023,224.33723c-0.19399,-2.05932 -1.51858,-4.94686 -3.32519,-5.94754c-0.2677,-0.14828 -0.66205,0.25144 -0.91475,0.07884c-0.3285,-0.22436 -0.19339,-0.86512 -0.53312,-1.07207c-0.41701,-0.25403 -0.98091,-0.03981 -1.45772,-0.14505c-1.21877,-0.269 -3.8228,-0.90782 -4.75281,-1.83784c-1.07294,-1.07294 -0.48434,-2.51026 -0.78098,-3.76594c-0.16864,-0.71385 -0.53231,-1.40358 -0.53231,-2.13709c-0.43411,-0.9131 -0.87472,-1.66772 -1.37635,-2.36639c0.8005,0.46095 1.69248,0.98291 2.18311,1.66618c0.58472,0.81429 1.0516,1.76111 1.8438,2.37542c0.68545,0.53152 1.47266,0.9435 2.08234,1.56047c0.64147,0.41638 1.17571,0.92194 1.88049,1.21882c0.94441,0.39782 2.09652,0.33265 2.93444,0.92262c0.41143,0.28968 0.65625,0.77732 1.06736,1.06745c0.71111,0.50186 1.68265,0.49861 2.52969,0.69882c1.40094,0.33113 2.9033,1.64884 4.2409,2.14143c0.6668,0.24556 1.39355,0.29507 2.06803,0.51867c1.15405,0.38258 2.14347,1.33349 3.32671,1.64235c0.34426,0.08986 0.72189,-0.08495 1.06755,-0.00062c1.34827,0.32894 2.92146,0.99621 4.28481,1.64915c-0.83764,0.14098 -0.8383,1.05124 -0.8383,1.05124c0.04143,1.19273 -0.5466,1.69788 -0.98841,2.79851c-0.54949,1.36887 -0.31114,2.10343 -1.62928,2.66032l-0.40189,1.01197c-0.28878,0.04799 -0.58231,0.11109 -0.84912,0.02597c-0.79882,-0.25484 -0.76399,-1.57205 -1.448,-2.05702c-0.29025,-0.20579 -0.77034,0.19494 -1.06873,0.00114c-0.27267,-0.1771 -0.10709,-0.68733 -0.33954,-0.91466c-1.38786,-1.35731 -3.64389,-1.45706 -5.32285,-1.87989c-0.7113,-0.17914 -1.40974,-0.53273 -2.14325,-0.53273l-0.80665,-0.43255z" data-paper-data="{&quot;noHover&quot;:false,&quot;origItem&quot;:[&quot;Path&quot;,{&quot;applyMatrix&quot;:true,&quot;segments&quot;:[[[398.46927,250.30448],[-6.77009,3.74994],[1.00316,-0.55565]],[[401.89708,250.5974],[-0.94698,0.64677],[1.231,-0.84075]],[[403.89708,246.5974],[-1.2731,0.77553],[1.56268,-0.95194]],[[409.35927,246.05165],[-1.78679,0.39437],[4.56719,-1.00805]],[[427.17157,239.17157],[-3.48515,3.48515],[4.02075,-4.02075]],[[430.107,225.08099],[-1.11163,4.70556],[0.63196,-2.6751]],[[432.107,217.08099],[0,2.74874],[1.6268,-3.42171]],[[437.26843,208.21828],[-1.8798,2.61818],[-2.99978,1.72735]],[[429.24497,214.33884],[1.83858,-2.56046],[-2.19116,3.05147]],[[422.33884,223.24497],[2.96871,-2.30204],[-2.56866,1.99183]],[[414.53596,229.09337],[2.2847,-2.31205],[-2.40384,1.56034]],[[407.32442,233.77437],[2.6411,-1.11252],[-3.53909,1.49078]],[[396.33884,237.24497],[3.14001,-2.21086],[-1.54179,1.08556]],[[392.33884,241.24497],[1.54059,-1.08727],[-2.66483,1.8807]],[[382.91901,243.893],[3.17419,-0.75025],[-5.24992,1.24087]],[[367.13801,251.81527],[5.01254,-1.84593],[-2.49876,0.9202]],[[359.38778,253.75154],[2.52754,-0.83792],[-4.32465,1.43369]],[[346.91901,259.893],[4.43408,-1.15742],[-1.29011,0.33676]],[[342.91901,259.893],[1.29534,-0.31602],[-5.0525,1.23266]],[[326.86104,266.06856],[5.10901,-2.44683],[3.13896,0.52832]],[[330,270],[0,0],[-0.15523,4.46961]],[[333.69552,280.46927],[-1.65565,-4.12449],[2.05917,5.12972]],[[339.78885,290.42229],[-4.93962,-2.08688],[0,0]],[[341.29038,294.20996],[0,0],[1.08217,0.17982]],[[344.46927,294.30448],[-0.99984,0.31897],[2.99355,-0.955]],[[349.89708,286.5974],[-2.56329,1.81739],[1.08769,-0.77118]],[[353.89708,286.5974],[-1.11818,0.72626],[1.02179,-0.66366]],[[355.17157,283.17157],[-0.87108,0.8519],[5.20083,-5.08636]],[[375.08099,276.107],[-6.29171,1.58451],[2.66551,-0.67128]],[[383.08099,274.107],[-2.74874,0],[0,0]],[[386.08957,272.48773],[0,0],[0.72696,-7.71708]]],&quot;closed&quot;:true}]}" fill="#ffa166" stroke="none" stroke-width="0.5" stroke-linecap="butt"/></g></g></g></svg>