<svg version="1.1" xmlns="http://www.w3.org/2000/svg" xmlns:xlink="http://www.w3.org/1999/xlink" width="68.89137" height="123.5961" viewBox="0,0,68.89137,123.5961"><defs><radialGradient cx="355.35815" cy="81.55063" r="6.93307" gradientUnits="userSpaceOnUse" id="color-1"><stop offset="0" stop-color="#ff0000"/><stop offset="1" stop-color="#ff0000" stop-opacity="0"/></radialGradient><radialGradient cx="371.46436" cy="81.85279" r="5.63105" gradientUnits="userSpaceOnUse" id="color-2"><stop offset="0" stop-color="#ff0000"/><stop offset="1" stop-color="#ff0000" stop-opacity="0"/></radialGradient></defs><g transform="translate(-333.91481,-36.39572)"><g data-paper-data="{&quot;isPaintingLayer&quot;:true}" stroke-miterlimit="10" stroke-dasharray="" stroke-dashoffset="0" style="mix-blend-mode: normal"><g><g fill-rule="evenodd"><path d="" fill="#ffab19" stroke="#001026" stroke-width="1.2" stroke-linecap="round" stroke-linejoin="round"/><path d="" fill="#ffffff" stroke="none" stroke-width="1" stroke-linecap="butt" stroke-linejoin="miter"/></g><path d="" fill="#ffab19" fill-rule="evenodd" stroke="#001026" stroke-width="1.2" stroke-linecap="round" stroke-linejoin="round"/><path d="" fill="#ffab19" fill-rule="evenodd" stroke="#001026" stroke-width="1.2" stroke-linecap="round" stroke-linejoin="round"/><g fill-rule="evenodd"><path d="" fill="#ffab19" stroke="#001026" stroke-width="1.2" stroke-linecap="round" stroke-linejoin="round"/><path d="" fill="#ffffff" stroke="none" stroke-width="1" stroke-linecap="butt" stroke-linejoin="miter"/></g><path d="" fill="#ffab19" fill-rule="evenodd" stroke="#001026" stroke-width="1.2" stroke-linecap="round" stroke-linejoin="round"/><g fill-rule="evenodd"><path d="" fill="#ffab19" stroke="#001026" stroke-width="1.2" stroke-linecap="butt" stroke-linejoin="miter"/><path d="" fill="#ffffff" stroke="none" stroke-width="1" stroke-linecap="butt" stroke-linejoin="miter"/><path d="" fill="#ffffff" stroke="#001026" stroke-width="1.2" stroke-linecap="round" stroke-linejoin="round"/><path d="" fill="#001026" stroke="#001026" stroke-width="1.2" stroke-linecap="round" stroke-linejoin="round"/><g><path d="" fill="#ffffff" stroke="#001026" stroke-width="1.2" stroke-linecap="round" stroke-linejoin="round"/><path d="" fill="#001026" stroke="none" stroke-width="1" stroke-linecap="butt" stroke-linejoin="miter"/></g><g><path d="" fill="#ffffff" stroke="#001026" stroke-width="1.2" stroke-linecap="round" stroke-linejoin="round"/><path d="" fill="#001026" stroke="none" stroke-width="1" stroke-linecap="butt" stroke-linejoin="miter"/></g></g><path d="M371.47432,82.42417c0.26758,-0.01573 0.53427,-0.03855 0.79852,-0.08142c0.07507,-0.01217 0.14893,-0.03098 0.222,-0.05404l3.42329,0.5135l0.01391,0.01286l0.05103,-0.00311l0.07043,0.01056l0.25916,-0.02498c0.02335,0.0097 0.04543,0.01891 0.06615,0.02756c2.49617,1.04245 3.6319,2.33868 4.88703,4.63222c0.8161,1.49128 1.56045,2.39588 1.57126,4.2177c0.00674,1.13471 -0.42813,2.76887 -0.66817,3.84315c-1.471,3.7097 -3.57344,5.9277 -6.81423,8.2103c-1.25581,0.88451 -1.62851,1.47359 -3.04383,1.81839c-4.314,1.05101 -9.68932,0.5974 -13.86781,-0.85964c-2.35838,-0.82237 -4.29944,-2.71415 -6.02078,-4.43849c-1.14456,-1.53771 -1.70266,-1.9278 -2.10897,-3.82688c-0.58808,-2.74863 1.16915,-4.80033 2.40122,-6.97801c0.82173,-0.21214 1.88329,-0.85442 2.22469,-1.08767c1.42945,-0.97661 3.04454,-1.22678 4.14042,-2.71614c0.61415,-0.83467 0.79026,-1.93739 1.2002,-2.87518l1.4099,0.35247h0.23017l0.2233,0.05582h1.64972l0.06174,-0.01544l0.06263,0.01129l1.5646,-0.1043l0.022,0.01202l0.05395,-0.01708l0.00917,-0.00061l0.42744,-0.13765l0.42809,-0.13556l0.00783,-0.00482l0.05386,-0.01735l0.01096,-0.02255l1.3571,-0.83514l0.12559,-0.12844l0.15791,-0.08564l0.28415,-0.26047c0.54638,0.03427 1.09414,0.06158 1.64316,0.06932l1.07234,0.50463l0.22675,0.04475c0.05437,0.10376 0.09423,0.22721 0.1121,0.37407z" fill="#ffad66" fill-rule="nonzero" stroke="none" stroke-width="0.5" stroke-linecap="butt" stroke-linejoin="miter"/><path d="M381.16651,83.88925c1.41593,2.46479 1.45186,4.42605 1.86642,7.12006c0.34829,2.26342 0.83625,4.22112 0.83625,6.55117v1.23844c0,0.60741 -0.49241,1.09982 -1.09981,1.09982c-0.30371,0 -0.57866,-0.12311 -0.77769,-0.32214l-0.82563,-0.82563l0.03202,-0.03202c-0.08796,-0.07952 -0.1693,-0.16636 -0.24232,-0.26246c-0.10172,-0.13389 -0.40417,-2.90094 -0.50046,-3.34994c-0.55374,-2.58199 -0.39498,-5.38564 -1.19924,-7.91128c-0.37106,-1.16526 -1.88221,-3.13182 -2.99807,-3.73642c-1.45126,-0.78632 -3.55292,-0.70519 -5.13734,-1.1454c-0.40345,-0.11209 -0.79415,-0.26702 -1.17903,-0.4404c-0.11907,0.04414 -0.24786,0.06826 -0.38228,0.06826c-0.40764,0 -0.76348,-0.22178 -0.95345,-0.55125l-0.04997,-0.08328l0.3715,-0.34054l2.20808,1.0391l0.26723,0.05275l0.25153,0.10453l4.26391,0.63958l0.01391,0.01286l0.05103,-0.00311l0.07043,0.01056l0.41961,-0.04044l0.42076,-0.02566l0.06791,-0.02144l0.05089,-0.00491l0.01173,-0.01487l1.95912,-0.61867l0.33348,-0.20485c0.63831,0.63562 1.19495,1.33456 1.8495,1.99758z" fill="#000000" fill-rule="nonzero" stroke="none" stroke-width="0.5" stroke-linecap="butt" stroke-linejoin="miter"/><path d="" fill="#000000" fill-rule="nonzero" stroke="none" stroke-width="0.5" stroke-linecap="butt" stroke-linejoin="miter"/><path d="M364.69955,79.36917l-0.2623,0.01749c-0.00119,-0.01675 -0.00257,-0.03368 -0.00415,-0.05079z" fill="#000000" fill-rule="nonzero" stroke="none" stroke-width="0.5" stroke-linecap="butt" stroke-linejoin="miter"/><path d="M355.49081,88.52533c-0.72424,1.56553 -2.06335,2.8982 -3.14506,4.22231c-0.19158,0.41106 -0.25813,0.90914 -0.56793,1.23792c-0.04238,0.16135 -0.10857,0.30931 -0.22385,0.43088c-0.17694,0.18661 -0.45035,0.19555 -0.72798,0.20386c-0.33416,0.17582 -0.66696,0.35299 -0.92327,0.62176l-0.02065,0.02065c-0.02762,0.10109 -0.05521,0.20222 -0.09657,0.29133c-0.62289,0.41147 -1.14008,1.39705 -1.86867,1.2344c-1.1243,-0.25098 -1.98181,-2.90555 -1.69681,-3.89814c0.25264,-0.8799 1.71609,-1.61895 2.2761,-2.23745c0.61496,-0.67919 1.0599,-1.49771 1.5216,-2.28911c0.03326,-0.05701 0.06202,-0.11631 0.08785,-0.1771c0.13046,0.03392 0.26322,0.06228 0.39748,0.08501c0.18685,0.35538 1.13761,0.99197 1.37226,1.14841c0.63839,0.42559 2.57866,-0.73236 3.06392,-1.0639c0.28598,-0.19538 0.57939,-0.36169 0.87457,-0.51466c-0.10943,0.22711 -0.21715,0.45504 -0.32299,0.68382z" fill="#000000" fill-rule="nonzero" stroke="none" stroke-width="0.5" stroke-linecap="butt" stroke-linejoin="miter"/><path d="" fill="#000000" fill-rule="nonzero" stroke="none" stroke-width="0.5" stroke-linecap="butt" stroke-linejoin="miter"/><path d="M356.86129,119.83282c0.03695,-0.01698 0.07389,-0.03244 0.11085,-0.04645l-0.37363,-0.3318c-0.00817,0.16356 -0.01335,0.32686 -0.01602,0.48993c0.09504,-0.05269 0.19179,-0.08801 0.27879,-0.11168zM356.76782,118.86151c0.06863,-0.06427 0.13719,-0.12869 0.20652,-0.19185c-0.10701,0.00285 -0.21401,0.00526 -0.32097,0.00715c-0.00773,0.10238 -0.01552,0.20474 -0.02338,0.30709zM368.79402,126.44632c-0.11223,0.02654 -0.22384,0.04948 -0.33267,0.06991c-0.96525,0.1812 -1.96115,-0.28758 -2.93945,-0.20114c-1.75021,0.15463 -3.29387,0.60195 -5.04448,0.62297c-0.40756,0 -2.68379,0.0208 -2.89776,-0.08372c-0.37808,-0.18468 -0.66653,-0.39672 -0.88576,-0.63106c-0.0201,0.17687 -0.04461,0.35396 -0.07417,0.5313l0.00375,1.14773c0,0 0,1.09982 -1.09982,1.09982c-1.09982,0 -1.09982,-1.09982 -1.09982,-1.09982l0.00375,-1.32916c0.4241,-2.54458 -0.19773,-5.05586 -0.00098,-7.62431c0.38128,-4.97746 0.61645,-9.98629 0.61645,-14.98974c0,0 0,-1.09982 1.09982,-1.09982c1.09982,0 1.09982,1.09982 1.09982,1.09982c0,4.17454 -0.1592,8.35501 -0.43357,12.51689c2.68725,-0.05149 5.38412,-0.40177 8.08082,-0.19748c1.88311,0.14265 3.74642,0.47504 5.61936,0.33208c-0.01005,-0.25936 -0.00715,-0.5168 0.05419,-0.76705c0.1002,-0.4088 0.52116,-0.68557 0.63708,-1.0902c0.27326,-0.95387 0.44254,-1.93726 0.57566,-2.92054c0.24948,-1.8428 -0.0142,-3.94962 -0.0142,-5.80963c0,0 0,-1.09982 1.09981,-1.09982c1.09982,0 1.09982,1.09982 1.09982,1.09982c0,1.9852 0.24475,4.19387 -0.0142,6.16198c-0.14515,1.10321 -0.35782,2.20157 -0.66278,3.27168c-0.10456,0.36692 -0.50671,0.60427 -0.60136,0.97387c-0.01893,0.07393 -0.02864,0.14875 -0.03205,0.22422c0.25161,0.14743 0.48476,0.42066 0.48476,0.92705c0,0.49294 -0.22093,0.76494 -0.46476,0.91503c-0.12961,2.35605 -0.20535,4.80845 -0.58224,7.10924l-0.24788,0.78621c0,0 -0.34779,1.04338 -1.39117,0.69558c-0.37662,-0.12554 -0.57199,-0.34172 -0.66787,-0.56674c-0.32845,-0.03052 -0.65848,-0.0514 -0.98807,-0.07496z" fill="#0008ff" fill-rule="nonzero" stroke="none" stroke-width="0.5" stroke-linecap="butt" stroke-linejoin="miter"/><path d="M355.66226,112.62819c0,-1.09982 1.09982,-1.09982 1.09982,-1.09982c3.3136,0.01989 6.64627,1.00294 9.97588,1.24057c1.30992,0.09349 2.92153,-0.38132 4.04602,0.59234c0.56318,0.48763 1.35774,1.06071 1.31833,1.80462c-0.03644,0.68775 -2.19155,2.32481 -2.9445,2.46209c-0.40639,0.07409 -2.48019,-0.31253 -3.06919,-0.40399c-1.39388,-0.21643 -2.74865,-0.1868 -4.14076,-0.41484c-1.20925,-0.20555 -2.32871,-0.06888 -3.53451,-0.19145c-0.1136,-0.01155 -0.22039,-0.07019 -0.32751,-0.11953c-0.10503,0.00324 -0.20725,0.00923 -0.30541,0.01864c0.02422,0.05302 0.06571,0.11867 0.07366,0.16402c0.07734,0.44124 0.21807,0.87878 0.21415,1.32673c-0.00889,1.01712 -0.33308,1.7769 -0.64476,2.70879l-0.19279,1.15673c-0.07875,0.53013 -0.53579,0.93685 -1.08783,0.93685c-0.35111,0 -0.66379,-0.16454 -0.86516,-0.4207l-0.81928,-1.0241l0.0383,-0.03064c-0.07952,-0.09119 -0.1525,-0.18817 -0.21731,-0.29236c-0.31866,-0.5123 -0.05305,-1.20565 -0.062,-1.8089c-0.02325,-1.56817 0.2244,-3.56525 1.79276,-4.46393c0.16825,-0.09641 0.38225,-0.16705 0.62276,-0.21868l-0.18542,-0.30903c-0.10523,-0.16867 -0.16603,-0.36791 -0.16603,-0.58136c0,-0.01256 0.00021,-0.02507 0.00063,-0.03753c-0.29617,-0.12488 -0.61985,-0.39785 -0.61985,-0.9945zM360.55026,114.15856c0.27461,0.01557 0.5542,0.02252 0.83616,0.02433c-0.27564,-0.04483 -0.55159,-0.08836 -0.82738,-0.1296c-0.00123,0.03409 -0.0041,0.06917 -0.00878,0.10527z" fill="#0008ff" fill-rule="nonzero" stroke="none" stroke-width="0.5" stroke-linecap="butt" stroke-linejoin="miter"/><path d="M358.13914,115.51789c0,-0.60741 0.4924,-1.09982 1.09981,-1.09982c0.60741,0 1.09982,0.49241 1.09982,1.09982c0,0.60741 -0.49241,1.09981 -1.09982,1.09981c-0.60741,0 -1.09981,-0.4924 -1.09981,-1.09981z" fill="#ff0000" fill-rule="nonzero" stroke="none" stroke-width="0.5" stroke-linecap="butt" stroke-linejoin="miter"/><path d="M368.6659,115.9307c0,-0.60741 0.49241,-1.09982 1.09982,-1.09982c0.60741,0 1.09982,0.49241 1.09982,1.09982c0,0.60741 -0.49241,1.09982 -1.09982,1.09982c-0.60741,0 -1.09982,-0.49241 -1.09982,-1.09982z" fill="#ff0000" fill-rule="nonzero" stroke="none" stroke-width="0.5" stroke-linecap="butt" stroke-linejoin="miter"/><path d="M372.51679,107.67442c0,1.09982 -1.09982,1.09982 -1.09982,1.09982h-1.03204c-1.63812,0 -3.48827,0.23098 -5.10631,-0.01063c-2.52672,-0.37729 -4.95019,-0.58143 -7.53539,-0.20683c0,0 -1.08876,0.15553 -1.2443,-0.93323c-0.15553,-1.08876 0.93322,-1.2443 0.93322,-1.2443c2.7823,-0.39236 5.42541,-0.22725 8.15155,0.20598c1.50411,0.23903 3.27478,-0.01063 4.80122,-0.01063h1.03204c0,0 1.09982,0 1.09982,1.09982z" fill="#fbff00" fill-rule="nonzero" stroke="none" stroke-width="0.5" stroke-linecap="butt" stroke-linejoin="miter"/><path d="M354.83663,109.73849c0,-1.09982 1.09981,-1.09981 1.09981,-1.09981h0.41282c5.34146,0 10.36148,2.28317 15.68694,2.27047c0,0 1.09981,0 1.09981,1.09982c0,1.09982 -1.09981,1.09981 -1.09981,1.09981c-5.33792,-0.01122 -10.358,-2.27047 -15.68694,-2.27047h-0.41282c0,0 -1.09981,0 -1.09981,-1.09982z" fill="#fbff00" fill-rule="nonzero" stroke="none" stroke-width="0.5" stroke-linecap="butt" stroke-linejoin="miter"/><path d="M373.02029,107.00726c-0.5872,0.5872 -1.17442,0.28766 -1.42684,0.10568c-1.62712,-0.06798 -3.16621,-0.46131 -4.7954,-0.61195c-0.67167,-0.06211 -1.32004,0.27974 -1.98453,0.39574c-2.38858,0.41697 -5.21082,0.01984 -7.63864,0.01984c0,0 -1.09982,0 -1.09982,-1.09982c0,-1.09982 1.09982,-1.09981 1.09982,-1.09981c2.25773,0 5.01424,0.44062 7.22267,0.01984c0.84884,-0.16173 1.69415,-0.48612 2.55643,-0.4299c1.72483,0.11247 3.34674,0.62212 5.08221,0.61646l0.98409,0.52854c0,0 0.77769,0.77769 0,1.55537z" fill="#ff9400" fill-rule="nonzero" stroke="none" stroke-width="0.5" stroke-linecap="butt" stroke-linejoin="miter"/><path d="M347.9349,113.37478c0.3942,-0.78841 1.10435,-0.62899 1.37079,-0.53462c2.13021,-1.21688 3.57923,-3.11409 5.77,-4.23358c0.18242,-0.79354 1.06716,-0.79353 1.06716,-0.79353h0.61922c1.63505,0 3.55399,-0.26345 5.16175,0.01985c1.19996,0.21144 2.33685,0.70384 3.59805,0.80953c2.2058,0.18485 4.5058,-0.00374 6.72072,-0.00374c0,0 0.74041,-0.00001 1.00622,0.60751c0.02286,-0.0263 0.04741,-0.05264 0.07374,-0.07897c0.77769,-0.77769 1.55538,0 1.55538,0c0.81364,0.82093 1.37074,1.86383 2.12017,2.74376c1.1471,1.34686 2.80689,2.39074 4.07205,3.65486l0.82563,0.82562c0,0 0.77769,0.77769 0,1.55538c-0.77769,0.77769 -1.55538,0 -1.55538,0l-0.82563,-0.82563c-1.30597,-1.30709 -2.98773,-2.38785 -4.18424,-3.7758c-0.71893,-0.83396 -1.2253,-1.84838 -2.00798,-2.62283c0,0 -0.10678,-0.10679 -0.20164,-0.28079c-0.3212,0.39651 -0.87832,0.39652 -0.87832,0.39652c-2.2765,0 -4.63424,0.18432 -6.90215,-0.00375c-1.33477,-0.11069 -2.56585,-0.60227 -3.8326,-0.84172c-1.36432,-0.2579 -3.06396,-0.01141 -4.49268,0.01721c-0.20494,0.23323 -0.46387,0.33679 -0.46387,0.33679c-1.81455,0.71031 -2.60005,1.85063 -4.01767,3.10593c-0.81615,0.72269 -1.75519,1.12459 -2.71037,1.60398l-1.39652,-0.2064c0,0 -0.98371,-0.49185 -0.49185,-1.47556z" fill="#ff9400" fill-rule="nonzero" stroke="none" stroke-width="0.5" stroke-linecap="butt" stroke-linejoin="miter"/><path d="M358.66194,94.07714c0,-0.60741 0.49241,-1.09982 1.09982,-1.09982c0.60741,0 1.09982,0.49241 1.09982,1.09982c0,0.60741 -0.49241,1.09982 -1.09982,1.09982c-0.60741,0 -1.09982,-0.49241 -1.09982,-1.09982z" fill="#000000" fill-rule="nonzero" stroke="none" stroke-width="0.5" stroke-linecap="butt" stroke-linejoin="miter"/><path d="M375.36735,88.49518c0,-0.60741 0.4924,-1.09982 1.09981,-1.09982c0.60741,0 1.09982,0.49241 1.09982,1.09982c0,0.60741 -0.49241,1.09982 -1.09982,1.09982c-0.60741,0 -1.09981,-0.49241 -1.09981,-1.09982z" fill="#000000" fill-rule="nonzero" stroke="none" stroke-width="0.5" stroke-linecap="butt" stroke-linejoin="miter"/><path d="M355.77614,90.21992l0.42378,0.1234l1.62975,0.32595c0.51404,0.09233 0.9041,0.54184 0.9041,1.08246c0,0.4539 -0.27496,0.84358 -0.6674,1.01155l-1.18711,0.53959l-0.10983,-0.24164l-0.45625,0.33461c-0.56745,-0.36585 -1.13146,-0.77156 -1.63193,-1.2361c-0.16735,-0.09094 -0.38362,-0.25123 -0.49856,-0.50906c-0.21125,-0.23912 -0.40377,-0.49275 -0.5713,-0.76286c0,0 -0.04004,-0.06673 -0.08106,-0.17535c-1.05583,0.00478 -2.13416,-0.26877 -3.0971,-0.72657c0,0 -0.98371,-0.49185 -0.49185,-1.47556c0.49185,-0.98371 1.47556,-0.49186 1.47556,-0.49186c0.51718,0.27836 1.12047,0.4393 1.70779,0.4338c0.59816,-0.0056 1.21929,0.12073 1.77738,-0.19258c0.81378,-0.45686 1.32412,-1.66423 1.81677,-2.39716c0.80622,-1.19946 2.59296,-3.41289 4.14837,-3.66502c0.91755,-0.14874 1.77713,0.5212 2.64549,0.65735c1.89646,0.29735 3.12986,-0.97938 4.65684,-1.83054c0.12052,-0.07767 0.23836,-0.1607 0.35277,-0.24869l2.61316,1.22972l0.08101,0.01599c0.16519,0.29115 0.16519,0.60189 0.16519,0.60189c0,1.09982 0,2.19964 0,3.29946v0.43223c0.03719,0.2304 0.01318,0.51065 -0.1957,0.77007c-0.11429,0.17783 -0.29534,0.34084 -0.58214,0.41105c-0.11059,0.04012 -0.2154,0.05865 -0.31371,0.06109c-0.07756,0.06814 -0.17196,0.13195 -0.28629,0.18912c-0.98371,0.49185 -1.47556,-0.49185 -1.47556,-0.49185l-0.22609,-0.71182v-1.42976c0,-0.53208 0.37784,-0.97592 0.87985,-1.07782c0,-0.38446 0,-0.75881 0,-1.09822c-1.49025,0.84698 -2.65012,1.86183 -4.4077,2.04384c0.00217,0.01469 0.00297,0.02276 0.00297,0.02276c0.07741,0.78341 0.11416,1.57168 0.11431,2.35891l-0.02436,0.04783l0.02097,0.0019l-0.10897,1.19863c-0.04502,0.56607 -0.51866,1.01141 -1.09632,1.01141c-0.54062,0 -0.99013,-0.39007 -1.08245,-0.90411l-0.11608,-0.58043c-0.13525,-0.16129 -0.23122,-0.39021 -0.23122,-0.7151c0,-0.46746 0.19869,-0.73624 0.42717,-0.89078c-0.01657,-0.43733 -0.04768,-0.87424 -0.09176,-1.30941c0,0 -0.01648,-0.16487 0.02733,-0.37302c-0.18291,-0.05643 -0.39601,-0.12839 -0.66546,-0.21882c-0.24987,-0.08387 -0.46917,-0.33275 -0.7309,-0.30166c-0.58467,0.06944 -0.87721,0.78564 -1.32162,1.17185c-1.20495,1.04712 -1.69887,2.47457 -2.7569,3.63688c-0.40923,0.44957 -0.87259,0.78975 -1.37014,1.03418c0.00175,0.00276 0.0035,0.00552 0.00525,0.00828z" fill="#ff0000" fill-rule="nonzero" stroke="none" stroke-width="0.5" stroke-linecap="butt" stroke-linejoin="miter"/><path d="M355.98422,95.82105c0,0.48593 -0.51702,0.87986 -1.15481,0.87986c-0.63779,0 -1.15481,-0.39393 -1.15481,-0.87986c0,-0.48593 0.51702,-0.87985 1.15481,-0.87985c0.63778,0 1.15481,0.39392 1.15481,0.87985z" fill="#ff0000" fill-rule="nonzero" stroke="none" stroke-width="0" stroke-linecap="butt" stroke-linejoin="miter"/><path d="M373.36134,88.2873c0,0.15185 -0.12309,0.27496 -0.27495,0.27496c-0.15186,0 -0.27496,-0.1231 -0.27496,-0.27496c0,-0.15185 0.1231,-0.27496 0.27496,-0.27496c0.15186,0 0.27495,0.1231 0.27495,0.27496z" fill="#ff0000" fill-rule="nonzero" stroke="none" stroke-width="0" stroke-linecap="butt" stroke-linejoin="miter"/><path d="M377.32069,95.16116c0,0.36445 -0.29544,0.65989 -0.65989,0.65989c-0.36445,0 -0.65989,-0.29544 -0.65989,-0.65989c0,-0.36445 0.29544,-0.65989 0.65989,-0.65989c0.36445,0 0.65989,0.29544 0.65989,0.65989z" fill="#ff0000" fill-rule="nonzero" stroke="none" stroke-width="0" stroke-linecap="butt" stroke-linejoin="miter"/><path d="M371.93158,103.51977c0,0.36445 -0.51702,0.65989 -1.15481,0.65989c-0.63778,0 -1.15481,-0.29544 -1.15481,-0.65989c0,-0.36445 0.51703,-0.65989 1.15481,-0.65989c0.63779,0 1.15481,0.29544 1.15481,0.65989z" fill="#ff0000" fill-rule="nonzero" stroke="none" stroke-width="0" stroke-linecap="butt" stroke-linejoin="miter"/><path d="M360.71344,108.35897c0,0.30371 -0.41854,0.5499 -0.93484,0.5499c-0.5163,0 -0.93485,-0.2462 -0.93485,-0.5499c0,-0.30371 0.41855,-0.54991 0.93485,-0.54991c0.5163,0 0.93484,0.2462 0.93484,0.54991z" fill="#ff0000" fill-rule="nonzero" stroke="none" stroke-width="0" stroke-linecap="butt" stroke-linejoin="miter"/><path d="M370.77984,92.19778c0.98371,-0.49185 1.47556,0.49185 1.47556,0.49185l0.31472,0.71609c0.07865,0.40238 0.15731,0.80476 0.23597,1.20713c0.00606,1.9203 -0.20298,3.57721 -1.61528,5.0435c-1.05037,1.09054 -2.2424,1.17904 -3.6123,1.52111c-2.93182,0.73207 -5.98384,2.24352 -8.88562,0.30047c-1.72449,-1.15474 -1.87808,-3.39767 -2.44006,-5.22346c0,0 -0.32344,-1.05118 0.72774,-1.37462c1.05119,-0.32344 1.37462,0.72774 1.37462,0.72774c0.30236,0.98299 0.5017,3.44206 1.51928,4.01501c2.0653,1.16287 3.98282,0.34722 6.03533,-0.23965c1.89918,-0.54303 3.93611,-0.57278 4.64225,-2.79066c0.08039,-0.25249 0.06421,-1.55063 0.06511,-1.76269c-0.06799,-0.33083 -0.13598,-0.66167 -0.20396,-0.9925l-0.12522,-0.16377c0,0 -0.49185,-0.98371 0.49185,-1.47556z" fill="#000000" fill-rule="nonzero" stroke="none" stroke-width="0.5" stroke-linecap="butt" stroke-linejoin="miter"/><g fill-rule="nonzero" stroke-linejoin="miter"><path d="M386.22967,106.555c0.35537,5.84854 -1.93048,19.22832 -6.54449,22.91012c-3.44388,2.74808 -7.75041,1.25212 -12.7149,1.55378c-5.58085,0.33911 -10.91244,2.38432 -14.86701,-0.50573c-4.2763,-3.12518 -7.61556,-16.09564 -7.938,-21.40221c-0.16872,-2.77663 -5.49142,-1.48721 -8.39836,-2.26883c-1.51254,-0.40669 -2.37105,-2.50007 -1.50918,-3.62168c3.57488,-4.65216 23.00101,-13.46721 29.816,-13.88131c6.61087,-0.4017 29.13927,8.90736 33.24978,12.8671c3.11195,2.99781 -11.36124,-0.0521 -11.09383,4.34876z" fill="#c6e24b" stroke="none" stroke-width="0" stroke-linecap="butt"/><path d="M348.10765,95.44818l33.66516,-0.13854" fill="none" stroke="#544100" stroke-width="5" stroke-linecap="round"/><path d="M339.18422,101.01135l49.54626,-3.21527" fill="none" stroke="#544100" stroke-width="5" stroke-linecap="round"/><path d="M390.98029,102.87618l-49.54626,3.21527" fill="none" stroke="#544100" stroke-width="5" stroke-linecap="round"/><path d="M385.53343,109.07306l-40.24123,2.61143" fill="none" stroke="#544100" stroke-width="5" stroke-linecap="round"/><path d="M384.46778,115.49493l-37.34096,2.42321" fill="none" stroke="#544100" stroke-width="5" stroke-linecap="round"/><path d="M351.27944,114.38076l-5.85255,-18.44914l11.71688,-4.83686l5.16801,21.15981z" fill="#53a2d0" stroke="none" stroke-width="0" stroke-linecap="butt"/><path d="M367.25295,111.71167l2.56798,-21.62986l12.21632,3.38262l-3.57569,19.02204z" data-paper-data="{&quot;index&quot;:null}" fill="#53a2d0" stroke="none" stroke-width="0" stroke-linecap="butt"/><path d="M354.91217,132.23687c0,0 -4.27493,-0.96119 -5.83743,-3.69612c-1.79826,-3.14759 -4.34457,-14.12599 -4.34457,-14.12599c0,0 13.75821,-3.39173 20.74901,-3.93938c6.80977,-0.53347 20.66697,0.6949 20.66697,0.6949c0,0 -1.74079,11.82187 -3.64952,15.35796c-1.1787,2.18365 -4.73177,4.44136 -4.73177,4.44136c0,0 -6.12832,0.22093 -9.92342,0.43391c-4.71084,0.26436 -12.92926,0.83337 -12.92926,0.83337z" fill="#53a2d0" stroke="none" stroke-width="0" stroke-linecap="butt"/><path d="M358.63779,111.68921c0.0791,1.30177 -1.02031,2.42775 -2.45559,2.51497c-1.43528,0.08721 -2.66293,-0.89738 -2.74203,-2.19915c-0.0791,-1.30177 1.02031,-2.42776 2.45559,-2.51497c1.43528,-0.08721 2.66293,0.89738 2.74203,2.19914z" fill="#bb0000" stroke="#000000" stroke-width="0.5" stroke-linecap="butt"/><path d="M347.47962,151.61376c0,0 0.24895,-21.12284 3.30213,-25.85627c3.05318,-4.73344 8.45684,-6.29227 11.53931,2.8471c3.08248,9.13937 -2.40881,24.59695 -2.40881,24.59695z" data-paper-data="{&quot;index&quot;:null}" fill="#53a2d0" stroke="none" stroke-width="0" stroke-linecap="butt"/><path d="M370.26391,151.56671c0,0 -5.49129,-15.45757 -2.40881,-24.59695c3.08248,-9.13937 8.48614,-7.58055 11.53931,-2.84711c3.05318,4.73344 3.30212,25.85628 3.30212,25.85628z" fill="#53a2d0" stroke="none" stroke-width="0" stroke-linecap="butt"/><path d="M347.23066,112.10027c0.35088,4.18681 25.48717,13.25925 19.35875,13.52925c-6.12842,0.26999 -28.56148,-8.32778 -28.91235,-12.51459c-0.35087,-4.18682 -5.11415,-6.65788 -1.22206,-7.55505c5.85113,-1.34876 10.42479,2.35358 10.77567,6.5404z" fill="#ffebc1" stroke="none" stroke-width="0" stroke-linecap="butt"/><path d="M375.34055,111.03826c0.0791,1.30176 -1.02031,2.42775 -2.45559,2.51497c-1.43528,0.08721 -2.66293,-0.89738 -2.74203,-2.19914c-0.0791,-1.30177 1.0203,-2.42776 2.45558,-2.51497c1.43528,-0.08721 2.66293,0.89738 2.74203,2.19915z" fill="#bb0000" stroke="#000000" stroke-width="0.5" stroke-linecap="butt"/><path d="M394.02093,101.83186c6.36826,-0.28187 2.77618,1.90772 1.05849,6.40445c-1.55081,4.05985 -23.2533,16.67142 -29.62155,16.95328c-6.36825,0.28187 18.01851,-11.02481 17.66764,-15.23114c-0.35088,-4.20633 4.52717,-7.84472 10.89542,-8.12659z" data-paper-data="{&quot;index&quot;:null}" fill="#ffebc1" stroke="none" stroke-width="0" stroke-linecap="butt"/><path d="M365.70073,125.44859l-3.98551,-1.69896" fill="none" stroke="#000000" stroke-width="0.5" stroke-linecap="round"/><path d="M362.83717,123.08716l3.78783,2.43891" fill="none" stroke="#000000" stroke-width="0.5" stroke-linecap="round"/><path d="M363.95712,122.87147l3.29698,2.3474" fill="none" stroke="#000000" stroke-width="0.5" stroke-linecap="round"/><path d="M367.29493,124.90222l6.24993,-3.3414" fill="none" stroke="#000000" stroke-width="0.5" stroke-linecap="round"/><path d="M371.35516,122.17034l-4.71748,2.22778" fill="none" stroke="#000000" stroke-width="0.5" stroke-linecap="round"/><path d="M364.13506,125.16494c0.63691,0.62374 0.93087,1.40232 0.65659,1.73901c-0.27429,0.33669 -1.01295,0.10399 -1.64986,-0.51975c-0.63691,-0.62374 -0.93088,-1.40233 -0.65659,-1.73902c0.27428,-0.33669 1.01295,-0.10399 1.64987,0.51976z" fill="#ffebc1" stroke="none" stroke-width="0" stroke-linecap="butt"/><path d="M369.15086,122.13256c0.02396,0.33357 -0.71397,0.65458 -1.64819,0.71702c-0.93422,0.06243 -1.71099,-0.15737 -1.73495,-0.49093c-0.02396,-0.33357 0.71397,-0.65458 1.64819,-0.71702c0.93423,-0.06243 1.71099,0.15736 1.73495,0.49093z" data-paper-data="{&quot;index&quot;:null}" fill="#ffebc1" stroke="none" stroke-width="0" stroke-linecap="butt"/><path d="M348.03196,68.99488c0,0.17556 -0.02033,0.31788 -0.04541,0.31788c-0.02508,0 -0.04542,-0.14232 -0.04542,-0.31788c0,-0.17556 0.02033,-0.31788 0.04542,-0.31788c0.02508,0 0.04541,0.14232 0.04541,0.31788z" fill="#ffebc1" stroke="none" stroke-width="0" stroke-linecap="butt"/><path d="M382.45398,80.52945c0,9.45521 -8.0716,17.12019 -18.02842,17.12019c-9.95682,0 -18.02842,-7.66497 -18.02842,-17.12019c0,-9.45521 8.0716,-17.12019 18.02842,-17.12019c9.95682,0 18.02842,7.66497 18.02842,17.12019z" fill="#ffebc1" stroke="none" stroke-width="0" stroke-linecap="butt"/><path d="M377.42645,67.92696c0,1.08462 1.07394,1.78873 0.17397,2.13975c-2.25385,0.8791 -8.6589,-0.0822 -14.93156,-0.0822c-6.11408,0 -11.16439,0.86269 -12.58986,-0.2429c-0.62093,-0.48159 0.88312,-1.79656 0.88312,-2.94985c0,-3.80091 4.56125,-6.52739 13.55145,-7.30784c8.45777,-0.73423 12.2799,4.36555 12.54469,8.13527c0.00898,0.12777 0.36821,0.18316 0.36821,0.30777z" fill="#000000" stroke="#252525" stroke-width="0.5" stroke-linecap="butt"/><path d="M381.63657,74.30805c0,1.38843 1.37474,2.28975 0.22269,2.7391c-2.88516,1.12534 -11.08428,-0.10523 -19.11393,-0.10523c-7.82665,0 -14.29156,1.10433 -16.11632,-0.31094c-0.79485,-0.61648 1.13048,-2.29977 1.13048,-3.77611c0,-4.86555 5.83886,-8.35574 17.34724,-9.3548c10.82682,-0.93989 15.71954,5.58836 16.05849,10.41399c0.01148,0.16357 0.47135,0.23446 0.47135,0.39398z" fill="#000000" stroke="none" stroke-width="NaN" stroke-linecap="butt"/><path d="M348.2136,94.10752l-0.54494,-18.61877" fill="none" stroke="#000000" stroke-width="2.5" stroke-linecap="round"/><path d="M380.81916,94.74329l-0.18165,-19.16371" fill="none" stroke="#000000" stroke-width="2.5" stroke-linecap="round"/><path d="M351.23221,93.54998c0.00652,0.00326 0.01289,0.00657 0.0191,0.00993c0.03773,0.00621 0.07837,0.01924 0.12193,0.04103c0.32494,0.16247 0.16247,0.48741 0.16247,0.48741l-0.18813,0.37564c-0.31579,0.52136 -0.78663,1.04828 -1.36014,1.2507c-0.91719,0.32372 -1.85619,-0.0241 -2.15178,-0.77656c-0.053,-0.04577 -0.0976,-0.09841 -0.12819,-0.16251c-0.10471,-0.21945 0.04055,-0.4846 0.06082,-0.72689c0,0 0.08907,-0.4453 0.53436,-0.35623c0.4453,0.08907 0.35623,0.53436 0.35623,0.53436c-0.05374,0.08066 0.05749,0.22505 0.15163,0.24813l0.10802,0.07178c0.10507,-0.04568 0.20329,-0.04567 0.20329,-0.04567c0.71161,0.00264 1.06056,0.00318 1.43862,-0.61519l0.0625,-0.13284c0,0 0.20308,-0.40618 0.60926,-0.20309z" fill="#000000" stroke="none" stroke-width="0.5" stroke-linecap="butt"/><path d="M383.45127,94.23744c0.4453,0.08907 0.35624,0.53436 0.35624,0.53436l-0.16773,0.63058c-0.28164,0.17435 -0.54321,0.38634 -0.84492,0.52304c-0.93885,0.42542 -1.46263,0.14693 -1.77076,-0.4108c-0.59735,1.19103 -2.68751,0.78412 -3.01341,-0.70009l-0.00706,-0.16207c0,0 0,-0.3633 0.36329,-0.3633c0.36329,0 0.36329,0.3633 0.36329,0.3633l-0.00705,0.01957c0.16291,0.94847 1.78354,1.18936 1.73269,0.16207c0,0 0,-0.27286 0.23648,-0.34563c-0.11722,-0.61839 -0.15402,-1.27985 -0.2303,-1.72919c0,0 -0.07466,-0.44794 0.37327,-0.5226c0.44794,-0.07466 0.5226,0.37328 0.5226,0.37328c0.19628,1.19698 -0.19909,3.09351 1.54507,2.26135l0.01392,-0.27765c0,0 0.08906,-0.4453 0.53436,-0.35624z" fill="#000000" stroke="none" stroke-width="0.5" stroke-linecap="butt"/><path d="M351.93736,38.64478l10.35385,22.70581" fill="none" stroke="#000000" stroke-width="2.5" stroke-linecap="round"/><path d="M364.1985,40.37042l0.18165,21.61594l-2.72469,-21.34346" fill="none" stroke="#000000" stroke-width="2.5" stroke-linecap="round"/><path d="M363.19945,60.53318l-5.0861,-20.98018" fill="none" stroke="#000000" stroke-width="2.5" stroke-linecap="round"/><path d="M363.56274,64.71106l-7.8108,-24.52229" fill="none" stroke="#000000" stroke-width="2.5" stroke-linecap="round"/><path d="M367.92226,41.4603l-4.99528,21.52512l-13.16938,-24.52229" fill="none" stroke="#000000" stroke-width="2.5" stroke-linecap="round"/><path d="M376.09635,44.82076l-10.26303,19.98112l7.90162,-21.071" fill="none" stroke="#000000" stroke-width="2.5" stroke-linecap="round"/><path d="M363.10862,65.80094l7.8108,-23.34158" fill="none" stroke="#000000" stroke-width="2.5" stroke-linecap="round"/><path d="M375.00647,40.27959l-12.0795,24.159" fill="none" stroke="#000000" stroke-width="2.5" stroke-linecap="round"/><path d="M363.92603,61.80471l5.44939,-21.34347" fill="none" stroke="#000000" stroke-width="2.5" stroke-linecap="round"/><path d="M379.45681,42.27771l-11.89785,21.071" fill="none" stroke="#000000" stroke-width="2.5" stroke-linecap="round"/><path d="M366.01497,37.64572l-0.45412,25.79381" fill="none" stroke="#000000" stroke-width="2.5" stroke-linecap="round"/><path d="M376.73211,40.82453l-10.17221,22.615" fill="none" stroke="#000000" stroke-width="2.5" stroke-linecap="round"/><path d="M373.82577,60.9873c0,2.20705 -3.95648,-1.36235 -9.17315,-1.36235c-5.21668,0 -9.71809,3.56941 -9.71809,1.36235c0,-2.20705 4.22894,-3.99623 9.44562,-3.99623c5.21668,0 9.44563,1.78917 9.44563,3.99623z" fill="#ff0000" stroke="#000000" stroke-width="2.5" stroke-linecap="butt"/><path d="M352.93641,72.52186l3.36047,-7.53833" fill="none" stroke="#080808" stroke-width="2.5" stroke-linecap="round"/><path d="M361.01969,65.61929l-0.45412,9.53644" fill="none" stroke="#080808" stroke-width="2.5" stroke-linecap="round"/><path d="M365.28838,64.07529l0.99906,10.5355" fill="none" stroke="#080808" stroke-width="2.5" stroke-linecap="round"/><path d="M374.00742,73.79339l-3.36047,-10.5355" fill="none" stroke="#080808" stroke-width="2.5" stroke-linecap="round"/><path d="M352.57312,75.7915l4.54117,-9.3548" fill="none" stroke="#141414" stroke-width="2.5" stroke-linecap="round"/><path d="M362.29122,66.4367l-0.45412,9.44562" fill="none" stroke="#141414" stroke-width="2.5" stroke-linecap="round"/><path d="M372.19094,74.70162l-4.35951,-8.53739" fill="none" stroke="#141414" stroke-width="2.5" stroke-linecap="round"/><path d="M372.19095,66.52751l4.90446,7.17504" fill="none" stroke="#141414" stroke-width="2.5" stroke-linecap="round"/><path d="M347.12373,79.3336c0,0.72659 0,1.45317 0,2.17976v0.18165c0,0 0,0.02937 -0.00835,0.07142c0.04845,0.16009 -0.05267,0.31175 -0.05267,0.31175l-0.38158,0.41953c-0.55835,0.16187 -1.02809,0.5912 -1.63897,0.45911c-1.46095,-0.31589 -1.74509,-1.79457 -1.90996,-3.02008c-0.14499,-1.07773 -0.45881,-1.92241 -0.45881,-3.05536c0,-0.44611 -0.1764,-1.52806 0.04716,-1.90464c0.56603,-0.95349 2.59481,-0.68955 3.15103,0.05462c0.85797,1.1479 1.08781,2.61101 1.14432,4.03293c0.10784,0.10765 0.10784,0.26931 0.10784,0.26931z" fill="#fbe8bf" stroke="none" stroke-width="0.5" stroke-linecap="butt"/><path d="M381.77393,79.15511c0.05651,-1.42193 0.28635,-2.88503 1.14432,-4.03293c0.55622,-0.74417 2.58499,-1.00811 3.15102,-0.05463c0.22356,0.37658 0.04715,1.45853 0.04715,1.90463c0,1.13295 -0.31382,1.97763 -0.4588,3.05536c-0.16487,1.2255 -0.449,2.70419 -1.90995,3.02008c-0.61088,0.13209 -1.08063,-0.29724 -1.63898,-0.45911l-0.38159,-0.41953c0,0 -0.1011,-0.15166 -0.05266,-0.31175c-0.00836,-0.04204 -0.00836,-0.07142 -0.00836,-0.07142v-0.18165c0,-0.72659 0,-1.45317 0,-2.17976c0,0 0,-0.16166 0.10784,-0.26931z" data-paper-data="{&quot;index&quot;:null}" fill="#fbe8bf" stroke="none" stroke-width="0.5" stroke-linecap="butt"/><path d="M366.74155,86.23617c0,1.60513 -1.40287,2.90634 -3.1334,2.90634c-1.73053,0 -3.1334,-1.30121 -3.1334,-2.90634c0,-1.60513 1.40287,-2.90635 3.1334,-2.90635c1.73053,0 3.1334,1.30121 3.1334,2.90635z" fill="#fbe8bf" stroke="#000000" stroke-width="0.5" stroke-linecap="butt"/><path d="M365.60757,86.11937c-0.33731,-0.13492 -0.20239,-0.47223 -0.20239,-0.47223l0.0999,-0.24049c-0.00338,-0.00587 -0.00653,-0.01173 -0.00946,-0.01759c-0.03609,-0.05085 -0.0657,-0.10061 -0.08936,-0.14911c-0.06149,-0.01133 -0.12732,-0.04342 -0.19313,-0.10923c-0.25689,-0.25688 0,-0.51377 0,-0.51377c0.41481,-0.4127 0.81207,-0.87538 1.16314,-1.34349l0.02541,-0.01102l-0.00784,-0.00784l0.27247,-0.27247c0.06574,-0.06575 0.15657,-0.10641 0.25689,-0.10641c0.20064,0 0.36329,0.16265 0.36329,0.36329c0,0.06102 -0.01504,0.11853 -0.04162,0.169l-0.24677,0.49353c-0.02563,0.14578 -0.05548,0.28821 -0.09308,0.42733h0.109c0.20064,0 0.36329,0.16266 0.36329,0.3633c0,0.1107 -0.04951,0.20983 -0.12759,0.27646c0.175,0.02611 0.30924,0.17703 0.30924,0.3593c0,0.20064 -0.16265,0.36329 -0.36329,0.36329h-0.06029l0.10568,0.16009c0.09089,0.08514 0.19207,0.17691 0.30793,0.24617l0.34704,0.17352c0.12288,0.05826 0.20786,0.18343 0.20786,0.32846c0,0.20064 -0.16265,0.36329 -0.36329,0.36329h-0.46556c0.00747,0.02903 0.01144,0.05946 0.01144,0.09082c0,0.17971 -0.13048,0.32894 -0.30187,0.35812c0.05037,0.11539 0.10225,0.24697 0.1727,0.38764l0.17838,0.35676c0.02658,0.05048 0.04162,0.10799 0.04162,0.169c0,0.20064 -0.16265,0.36329 -0.36329,0.36329c-0.11598,0 -0.21927,-0.05435 -0.28578,-0.13897l-0.11825,-0.14782c-0.01693,0.03257 -0.03864,0.06223 -0.06421,0.08809c0.03595,0.09747 0.04136,0.23112 -0.09228,0.36476c-0.06682,0.06682 -0.13364,0.09888 -0.19594,0.10974l0.0607,0.15997c0.08713,0.08384 0.15742,0.18131 0.21643,0.28702l0.04339,-0.03254l0.27027,0.36036c0.04696,0.06122 0.07486,0.13781 0.07486,0.22091c0,0.20064 -0.16265,0.36329 -0.36329,0.36329c-0.07051,0 -0.13632,-0.02008 -0.19203,-0.05485l-0.449,-0.2694l0.01664,-0.02773l-0.08043,-0.02087c-0.26631,-0.39029 -0.74088,-1.96367 -1.10893,-1.99941c0,0 -0.35245,-0.08811 -0.26433,-0.44055c0.08812,-0.35245 0.44055,-0.26434 0.44055,-0.26434c0.15638,0.04976 0.28642,0.11999 0.39669,0.20609c0.02675,-0.06069 0.06961,-0.11268 0.12317,-0.15053l-0.04171,-0.12512c-0.0138,-0.03839 -0.02132,-0.07978 -0.02132,-0.12293c0,-0.13554 0.07423,-0.25374 0.18424,-0.31618c0.00898,-0.07492 0.04077,-0.14283 0.08823,-0.19659v-0.123c0,-0.10541 0.0449,-0.20034 0.11662,-0.26671c-0.04746,0.00126 -0.10091,-0.00782 -0.16073,-0.03175z" fill="#fbe8bf" stroke="none" stroke-width="0.5" stroke-linecap="butt"/><path d="M370.55613,89.91508c0,2.26177 -2.92774,4.0953 -6.53928,4.0953c-3.61154,0 -6.53927,-1.83353 -6.53927,-4.0953c0,-2.26177 2.86168,0.72659 6.47322,0.72659c3.61154,0 6.60533,-2.98836 6.60533,-0.72659z" fill="#000000" stroke="none" stroke-width="0" stroke-linecap="butt"/><path d="M359.29405,81.42254c0,1.85593 -1.66719,3.36046 -3.72375,3.36046c-2.05657,0 -3.72376,-1.50453 -3.72376,-3.36046c0,-1.85593 1.66719,-3.36046 3.72376,-3.36046c2.05657,0 3.72375,1.50453 3.72375,3.36046z" fill="#ffffff" stroke="#000000" stroke-width="0.5" stroke-linecap="butt"/><path d="M375.09729,81.87666c0,1.85593 -1.66719,3.36046 -3.72376,3.36046c-2.05657,0 -3.72375,-1.50453 -3.72375,-3.36046c0,-1.85593 1.66719,-3.36047 3.72375,-3.36047c2.05657,0 3.72376,1.50454 3.72376,3.36047z" fill="#ffffff" stroke="#000000" stroke-width="0.5" stroke-linecap="butt"/><path d="M358.65828,81.37713c0,1.47973 -1.38255,2.67929 -3.088,2.67929c-1.70545,0 -3.08799,-1.19956 -3.08799,-2.67929c0,-1.47973 1.38254,-2.67929 3.08799,-2.67929c1.70545,0 3.088,1.19956 3.088,2.67929z" fill="#563200" stroke="#000000" stroke-width="0.5" stroke-linecap="butt"/><path d="M374.55236,81.83124c0,1.47973 -1.38254,2.67929 -3.088,2.67929c-1.70545,0 -3.08799,-1.19956 -3.08799,-2.67929c0,-1.47973 1.38254,-2.67929 3.08799,-2.67929c1.70545,0 3.088,1.19956 3.088,2.67929z" fill="#563200" stroke="#000000" stroke-width="0.5" stroke-linecap="butt"/><path d="M354.02629,81.51336c0,-0.70225 0.56928,-1.27153 1.27152,-1.27153c0.70225,0 1.27152,0.56928 1.27152,1.27153c0,0.70225 -0.56928,1.27153 -1.27152,1.27153c-0.70225,0 -1.27152,-0.56928 -1.27152,-1.27153z" fill="#ff0000" stroke="none" stroke-width="0.5" stroke-linecap="butt"/><path d="M370.28366,81.96747c0,-0.70225 0.56928,-1.27152 1.27152,-1.27152c0.70225,0 1.27153,0.56928 1.27153,1.27152c0,0.70225 -0.56928,1.27153 -1.27153,1.27153c-0.70224,0 -1.27152,-0.56928 -1.27152,-1.27153z" fill="#ff0000" stroke="none" stroke-width="0.5" stroke-linecap="butt"/><path d="M362.29121,81.55063c0,3.74144 -3.10404,6.77448 -6.93307,6.77448c-3.82903,0 -6.93307,-3.03303 -6.93307,-6.77448c0,-3.74144 3.10404,-6.77449 6.93307,-6.77449c3.82903,0 6.93307,3.03304 6.93307,6.77449z" fill="url(#color-1)" stroke="none" stroke-width="0" stroke-linecap="butt"/><path d="M377.09541,81.85279c0,2.82216 -2.5211,5.10997 -5.63105,5.10997c-3.10994,0 -5.63104,-2.28781 -5.63104,-5.10997c0,-2.82216 2.52111,-5.10997 5.63104,-5.10997c3.10994,0 5.63105,2.28781 5.63105,5.10997z" fill="url(#color-2)" stroke="none" stroke-width="0" stroke-linecap="butt"/><path d="M358.16969,118.4279l2.4063,-2.92887l8.9787,0.30306l2.17758,2.99553" fill="none" stroke="#000000" stroke-width="0.5" stroke-linecap="round"/><path d="M368.71355,152.46658l-0.70528,-9.17118c0,0 11.98058,1.40343 18.96712,3.32812c6.98654,1.92469 2.28404,5.42255 2.28404,5.42255z" fill="#d1d1d1" stroke="none" stroke-width="0" stroke-linecap="butt"/><path d="M361.74627,148.3593c0,1.28109 0.36122,4.16343 -1.12844,4.76203c-2.1849,0.87797 -5.78404,-0.22087 -8.45341,-0.22087c-4.48934,0 -5.13152,-0.7453 -5.13152,-3.9054c0,-3.1601 2.64029,-2.17976 7.12963,-2.17976c4.48935,0 7.58375,-1.61611 7.58375,1.54399z" fill="#d1d1d1" stroke="none" stroke-width="0" stroke-linecap="butt"/><path d="M402.75053,147.84261c-0.18025,0.11159 -0.49568,0.04782 -0.49568,0.04782l-0.00491,-0.00099c-1.60359,-0.32528 -2.1103,-1.06883 -3.67135,-1.39095c-1.37852,-0.4844 -3.19115,-0.52836 -4.99978,-0.42358c-0.43278,0.02507 -0.8224,-0.00871 -1.22245,0.07959c-1.39722,0.30838 -2.49532,0.7483 -3.96364,1.00587c-1.88316,0.16967 -3.9999,-0.01757 -5.80265,0.19142c-0.28053,0.03252 -0.47051,0.13544 -0.75434,0.16416c-0.29098,0.02945 -1.70364,0.03894 -1.56149,0.19864c0,0 0,0.12853 -0.36329,0.12853c-0.36329,0 -0.36329,-0.12853 -0.36329,-0.12853c0.11095,-0.40098 1.17152,-0.36252 2.07143,-0.444c0.6517,-0.05901 1.13945,-0.19775 1.88073,-0.22981c1.57588,-0.06816 3.06574,0.01435 4.64083,-0.1215c1.4123,-0.25221 2.48129,-0.69387 3.84716,-0.9863c0.49662,-0.10632 0.96571,-0.08164 1.50225,-0.11319c1.96612,-0.11563 4.04638,-0.05466 5.53571,0.4761c1.52909,0.33261 2.0292,1.05706 3.58469,1.37037l0.00491,0.00099c0,0 0.31543,0.06377 0.13518,0.17536z" fill="#ff0000" stroke="none" stroke-width="0.5" stroke-linecap="butt"/><path d="M378.57903,159.94632c-0.23455,0.16248 -0.35181,-0.16246 -0.35181,-0.16246l-0.15179,-0.4423c-0.01144,-0.72901 -0.19182,-1.93301 0.39757,-2.066c0.10421,-0.02352 -0.11605,-0.25233 -0.13686,-0.39572c-0.07259,-0.49987 -0.10266,-0.80509 -0.26071,-1.26203c0,-1.05471 -0.88811,-0.93734 -1.26865,-1.68751c-0.2605,-0.51352 -0.24616,-1.59301 -0.17588,-2.18841c0.1675,-1.41897 1.52157,-1.81969 1.70757,-3.1074c0,0 0.0636,-0.35245 0.31799,-0.26433c0.25439,0.08811 0.1908,0.44056 0.1908,0.44056c-0.37588,1.86038 -2.01752,2.13388 -1.70366,4.4604c0.05288,0.39198 0.38975,0.52074 0.5921,0.67324c0.47769,0.36001 0.85015,0.69769 0.85015,1.50652c0.18689,0.49193 0.52672,1.819 0.25799,2.33847c-0.05475,0.10583 -0.20321,-0.04817 -0.28141,0.02406c-0.03406,0.03146 0.02819,1.17075 0.02341,1.36122l0.11044,0.28429c0,0 0.11727,0.32494 -0.11727,0.48741z" fill="#ff0000" stroke="none" stroke-width="0.5" stroke-linecap="butt"/><path d="M339.76704,149.64863c0,-0.17957 0.36329,-0.17957 0.36329,-0.17957h0.27247c0.8391,0 1.28262,0.03679 2.02217,0.18879c0.23418,0.04813 0.51096,-0.02866 0.76072,-0.00689c0.79037,0.06886 1.47992,0.08747 2.30321,0.08747c0.62475,0 1.29227,-0.00503 1.88525,-0.10199c0.76094,-0.12441 1.17485,-0.43821 1.96197,-0.52421c1.23104,-0.13451 3.09287,-0.06794 4.21689,0.19621c0,0 0.32494,0.08031 0.16247,0.24093c-0.16247,0.16062 -0.48741,0.08031 -0.48741,0.08031c-0.85934,-0.22862 -3.26171,-0.36572 -4.1877,-0.09765c-1.22582,0.35486 -2.07849,0.56555 -3.55146,0.56555c-1.0092,0 -2.34826,0.06392 -3.2937,-0.09901c-0.70089,-0.12078 -0.98344,-0.17036 -1.7924,-0.17036h-0.27247c0,0 -0.36329,0 -0.36329,-0.17957z" fill="#ff0000" stroke="none" stroke-width="0.5" stroke-linecap="butt"/><path d="M369.54255,154.43657c-0.01837,0.19204 -0.43985,0.11405 -0.43985,0.11405l-0.57873,-0.10804c-0.85969,-0.23763 -1.0231,-0.46106 -1.74769,-0.74259c-1.01506,-0.3944 -1.94727,-0.77363 -2.66593,-1.30972c-0.79714,-0.32627 -0.88878,-0.73892 -1.577,-1.08355c-0.26404,-0.13222 -1.23183,-0.33285 -1.51441,-0.41157c-1.77113,-0.4934 -3.58986,-0.55345 -5.34775,-1.03742c0,0 -0.4097,-0.11414 -0.30903,-0.28715c0.10067,-0.17301 0.51037,-0.05888 0.51037,-0.05888c2.2106,0.62511 5.03629,0.56369 7.11093,1.53893c0.75235,0.35366 0.87349,0.80305 1.66082,1.1253c0.71981,0.51583 1.54716,0.84522 2.5162,1.23973c0.76269,0.31051 0.71446,0.44392 1.48309,0.66008l0.49585,0.0908c0,0 0.42149,0.07799 0.40312,0.27002z" fill="#ff0000" stroke="none" stroke-width="0.5" stroke-linecap="butt"/><path d="M345.21644,79.60607c0,-0.5016 0.40663,-0.90824 0.90823,-0.90824c0.5016,0 0.90824,0.40663 0.90824,0.90824c0,0.5016 -0.40663,0.90823 -0.90824,0.90823c-0.5016,0 -0.90823,-0.40663 -0.90823,-0.90823z" fill="#f2dfb8" stroke="none" stroke-width="0.5" stroke-linecap="butt"/><path d="M381.72739,79.96937c0,-0.5016 0.40663,-0.90823 0.90824,-0.90823c0.5016,0 0.90823,0.40663 0.90823,0.90823c0,0.5016 -0.40663,0.90823 -0.90823,0.90823c-0.5016,0 -0.90824,-0.40663 -0.90824,-0.90823z" fill="#f2dfb8" stroke="none" stroke-width="0.5" stroke-linecap="butt"/><path d="M360.11145,38.91725l2.99716,18.07383" fill="none" stroke="#000000" stroke-width="2.5" stroke-linecap="round"/><path d="M367.64978,56.90025l5.35858,-17.34724" fill="none" stroke="#000000" stroke-width="2.5" stroke-linecap="round"/><path d="M366.31246,123.81247l3.51607,-2.03347" fill="none" stroke="#000000" stroke-width="0.5" stroke-linecap="round"/></g></g></g></g></svg>