<svg version="1.1" xmlns="http://www.w3.org/2000/svg" xmlns:xlink="http://www.w3.org/1999/xlink" width="138.44136" height="162.02187" viewBox="0,0,138.44136,162.02187"><g transform="translate(-33.64238,-156.85415)"><g data-paper-data="{&quot;isPaintingLayer&quot;:true}" fill-rule="nonzero" stroke-linejoin="miter" stroke-miterlimit="10" stroke-dasharray="" stroke-dashoffset="0" style="mix-blend-mode: normal"><g><g><g><g><path d="M63.3829,202.03826l-17.90058,-7.5017l3.69649,-8.82057" fill="none" stroke="#000000" stroke-width="0.5" stroke-linecap="round"/><path d="M48.51447,172.01801c-0.02087,0.04981 -0.04285,0.09688 -0.06584,0.1414c1.71515,1.43729 4.58132,2.05593 6.44282,2.83604c1.38361,0.57984 2.76725,1.15968 4.15087,1.73953c1.09536,0.45904 2.08241,1.32599 3.26604,1.42404c0.49998,0.04142 0.98331,-0.25315 1.48496,-0.24539c1.54546,0.02388 3.24485,0.65837 4.80267,0.55502c3.04199,-0.20181 5.91375,-1.84874 8.84711,-2.50045c1.2633,-0.30152 2.57899,-0.33232 3.84981,-0.60034c1.12677,-0.23764 2.10208,-0.9494 3.19158,-1.32232c1.4978,-0.5127 2.96467,-1.20494 4.38144,-1.99248c0.60803,-0.47873 1.23046,-0.90268 1.86506,-1.10373c0.35931,-0.22475 0.71457,-0.45345 1.06546,-0.68463l0.96212,-0.97775c0.39039,-0.41555 1.01228,-0.56736 1.56905,-0.33402c0.7164,0.30022 1.05377,1.12434 0.75355,1.84074c-0.03397,0.08108 -0.07467,0.15729 -0.12114,0.22828l-0.89763,1.42543l-0.08615,-0.05424c-0.05793,0.13077 -0.12381,0.25823 -0.19931,0.3817c-0.32561,0.53242 -1.28642,0.67797 -2.09153,0.89002c-0.44227,0.27673 -0.89436,0.55242 -1.35429,0.8237c-0.21953,0.2964 -0.40925,0.62462 -0.69553,0.85157c-0.83211,0.65964 -1.97876,0.8602 -2.77745,1.55993c-1.79576,1.57329 -4.18736,3.29748 -5.69902,5.18406c-0.74585,0.93086 -0.96089,2.67475 -1.53108,3.73312c-1.40435,2.60676 -2.52667,5.31908 -3.6786,8.06783c-0.38078,0.90864 -0.76298,1.81668 -1.14868,2.72326l-0.25,1.27138c0,0 -0.06235,0.30851 -0.27403,0.60416c0.37241,2.7598 1.41735,4.9 2.69164,7.37236c0.40943,0.79438 1.48104,1.57806 1.16581,2.4143c-0.81239,2.1551 -3.53492,1.97869 -5.16112,2.53748c-0.53435,0.18361 -0.93888,0.71783 -1.49911,0.79107c-2.25247,0.29447 -3.70807,-1.029 -4.82118,-2.65506c-2.71175,-3.96138 -3.89035,-7.7534 -4.66745,-12.47653l-0.0394,-0.55042c-0.12566,-0.25231 -0.15744,-0.47213 -0.15744,-0.47213c-0.08211,-0.57838 -0.21764,-1.15166 -0.24631,-1.73513c-0.0185,-0.37644 0.25686,-0.78047 0.10573,-1.12572c-0.80134,-1.83039 -4.69414,-2.69476 -6.30954,-3.37173c-2.63399,-1.10385 -5.40286,-2.66321 -8.15694,-3.42748c-1.05738,-0.29343 -3.2204,-0.43281 -4.32684,-0.88977c-0.82038,-0.33882 -1.53294,-0.89904 -2.33258,-1.28427c-2.07223,-0.99832 -4.96985,-1.44573 -6.33436,-3.55007c-0.37206,-0.57379 -0.36348,-1.31856 -0.54524,-1.97782c0.20034,-2.91858 0.84778,-5.84179 2.7037,-8.20083c0.8017,-1.01904 1.85656,-2.33255 3.26681,-2.5796c2.11595,-0.37068 5.20311,1.64068 7.11032,2.43995l1.03772,0.43488c0,0 1.29714,0.54361 0.75355,1.84074zM40.07631,170.07689c-0.70701,0.08991 -1.06595,0.95796 -1.50189,1.52179c-1.38218,1.78758 -1.94227,4.0379 -2.12949,6.24318c0.2729,1.44546 1.35572,1.5861 2.64086,2.11947c1.63593,0.67894 3.15554,1.61622 4.78488,2.31079c1.28432,0.54748 2.76432,0.4374 4.10835,0.81528c3.64962,1.02613 7.28939,3.04568 10.78136,4.50911c2.36319,0.99036 4.25372,1.42311 5.53272,4.03098c0.39607,0.80759 0.23807,1.76046 0.23454,2.68081c0.14604,0.30169 0.1648,0.58204 0.1648,0.58204l0.0685,1.12098c0.59824,3.64519 1.27981,6.92068 3.28253,10.08297c0.52663,0.83156 1.56434,3.05487 2.967,2.73028c0.36441,-0.08435 0.57479,-0.5067 0.92721,-0.63204c0.77115,-0.27426 1.58535,-0.41791 2.39328,-0.54893c0.35003,-0.05677 0.79206,0.21614 1.06373,-0.01174c0.20672,-0.17338 -0.58453,-0.03956 -0.77615,-0.22948c-0.8236,-0.81625 -1.25868,-1.96265 -1.70051,-3.03476c-0.77762,-1.88687 -1.21015,-3.80374 -1.46796,-5.81674c0,0 -0.08228,-0.66937 0.33062,-1.13803c0.00619,-0.05723 0.01292,-0.09048 0.01292,-0.09048l0.31833,-1.54035c0.41208,-0.99568 0.82667,-1.99034 1.24319,-2.98417c1.18736,-2.83328 2.336,-5.63564 3.79835,-8.31817c0.67071,-1.23035 0.87613,-2.93635 1.73054,-4.04973c0.61582,-0.80251 1.40475,-1.50879 2.23306,-2.17374c-1.01532,0.15239 -2.04869,0.21068 -3.04571,0.45384c-3.09995,0.65583 -6.02675,2.34536 -9.25151,2.5626c-1.67455,0.1128 -3.45323,-0.51875 -5.10512,-0.54718c-0.59185,-0.01018 -1.17406,0.29563 -1.76165,0.22397c-2.64704,-0.32282 -5.69286,-2.33041 -8.14884,-3.35965c-3.19317,-1.33817 -6.90898,-2.13863 -8.79583,-5.21107c0,0 -0.10011,-0.17068 -0.1612,-0.42156c-1.43791,-0.73912 -3.68568,-2.01823 -4.77091,-1.88021z" fill="#919191" stroke="none" stroke-width="0.5" stroke-linecap="butt"/><path d="M44.82796,171.9366c0.0611,0.25088 0.16103,0.42173 0.16103,0.42173c1.88685,3.07244 5.60922,3.86822 8.80237,5.20639c2.45598,1.02925 5.53086,3.03877 8.17792,3.36161c0.5876,0.07166 1.17347,-0.23108 1.76532,-0.22089c1.6519,0.02842 3.4362,0.66801 5.11076,0.55522c3.22476,-0.21721 6.15239,-1.90482 9.25233,-2.56064c0.99701,-0.24316 2.03063,-0.30073 3.04595,-0.45313c-0.8283,0.66495 -1.61671,1.37289 -2.23253,2.1754c-0.85438,1.11338 -1.05887,2.82441 -1.72961,4.05477c-1.46236,2.68254 -2.61323,5.49871 -3.80058,8.33199c-0.4165,0.99385 -0.83372,1.99323 -1.24582,2.98891l-0.31974,1.5422c0,0 -0.00682,0.03335 -0.013,0.09059c-0.41291,0.46868 -0.33174,1.1393 -0.33174,1.1393c0.2578,2.01303 0.68745,3.93256 1.46509,5.81942c0.44185,1.07211 0.84206,2.17436 1.66567,2.99059c0.19162,0.18991 1.01762,0.10035 0.81092,0.27373c-0.27168,0.22788 -0.71442,-0.04451 -1.06445,0.01227c-0.8079,0.13102 -1.62413,0.27603 -2.39527,0.55032c-0.35242,0.12534 -0.56384,0.54833 -0.92825,0.63267c-1.40267,0.32461 -2.44176,-1.89798 -2.9684,-2.72955c-2.00272,-3.16231 -2.71226,-6.48649 -3.31051,-10.13167l-0.0697,-1.12015c0,0 -0.01923,-0.27999 -0.16529,-0.58168c0.00353,-0.92035 0.15782,-1.86976 -0.23827,-2.67736c-1.27898,-2.60788 -3.13908,-2.99535 -5.50228,-3.98571c-3.49197,-1.4634 -7.16816,-3.51763 -10.81779,-4.54375c-1.34404,-0.37788 -2.82423,-0.26705 -4.10855,-0.81452c-1.62934,-0.69456 -3.14857,-1.63315 -4.78451,-2.31208c-1.28515,-0.53337 -2.36749,-0.67536 -2.64039,-2.12081c0.1872,-2.20529 0.75099,-4.4623 2.13315,-6.24988c0.43595,-0.56381 0.79644,-1.43378 1.50343,-1.52369c1.08523,-0.13804 3.33476,1.13926 4.77267,1.87838z" data-paper-data="{&quot;noHover&quot;:false,&quot;origItem&quot;:[&quot;Path&quot;,{&quot;applyMatrix&quot;:true,&quot;segments&quot;:[[[107.91625,76.00387],[1.92905,-0.24535],[-1.25673,0.15984]],[[105.24659,78.7089],[0.77492,-1.00221],[-2.45686,3.1775]],[[101.46137,89.80638],[0.33276,-3.91998],[0.48507,2.56934]],[[106.1556,93.57378],[-2.28439,-0.94807],[2.90791,1.20684]],[[114.66089,97.68127],[-2.89623,-1.2346],[2.28294,0.97317]],[[121.96361,99.13045],[-2.38908,-0.6717],[6.48733,1.82395]],[[141.12784,107.14552],[-6.20711,-2.60125],[4.20066,1.76039]],[[150.96243,114.31072],[-2.27343,-4.63558],[0.70404,1.43554]],[[151.37933,119.07596],[0.00629,-1.63594],[0.2596,0.53627]],[151.67228,120.11055],[[151.79404,122.10313],[0,0],[1.06339,6.47943]],[[157.62886,140.02597],[-3.5599,-5.62111],[0.93611,1.47812]],[[162.90281,144.87911],[-2.49329,0.57701],[0.64776,-0.14991]],[[164.55096,143.75564],[-0.62644,0.2228],[1.37075,-0.48752]],[[168.80508,142.77989],[-1.4361,0.23291],[0.62219,-0.10091]],[[170.69591,142.75904],[-0.48293,0.40506],[0.36743,-0.30818]],[[169.31626,142.35114],[0.34062,0.33758],[-1.46399,-1.45093]],[[166.29353,136.95676],[0.78538,1.90569],[-1.38226,-3.35397]],[[163.68419,126.61729],[0.45825,3.57821],[0,0]],[[164.27187,124.5944],[-0.73394,0.83309],[0.01101,-0.10173]],[164.29483,124.43354],[[164.86069,121.69552],[0,0],[0.7325,-1.76986]],[[167.07047,116.39105],[-0.74034,1.76659],[2.11056,-5.03624]],[[173.82217,101.60522],[-2.5994,4.76829],[1.19222,-2.18699]],[[176.89823,94.40668],[-1.5187,1.97909],[1.09465,-1.4265]],[[180.86755,90.54278],[-1.47234,1.18196],[-1.80476,0.27089]],[[175.45372,91.3495],[1.77222,-0.43221],[-5.51024,1.16574]],[[159.00887,95.90459],[5.73211,-0.38612],[-2.97657,0.2005]],[[149.93436,94.93195],[2.9363,0.05052],[-1.05204,-0.0181]],[[146.80297,95.33006],[1.04446,0.12737],[-4.70522,-0.57383]],[[132.31814,89.35819],[4.36559,1.82951],[-5.67593,-2.37864]],[[116.68326,80.09534],[3.35393,5.46137],[0,0]],[[116.39671,79.346],[0.1086,0.44594],[-2.55594,-1.31381]]],&quot;closed&quot;:true}]}" fill="#777777" stroke="none" stroke-width="0.5" stroke-linecap="butt"/><path d="M71.4308,176.28434c-2.19163,5.22966 -8.6143,7.52212 -14.34545,5.12034c-5.73115,-2.40178 -8.60049,-8.58831 -6.40886,-13.81795c2.19163,-5.22966 8.6143,-7.52212 14.34545,-5.12034c5.73115,2.40178 8.60049,8.58831 6.40886,13.81795z" fill="#919191" stroke="none" stroke-width="0" stroke-linecap="butt"/><path d="M68.38436,175.16014c-1.56116,3.72524 -6.04795,5.39521 -10.02154,3.72997c-3.97359,-1.66524 -5.92926,-6.03507 -4.36808,-9.76032c1.56116,-3.72524 6.04795,-5.39521 10.02154,-3.72997c3.97359,1.66524 5.92926,6.03507 4.36808,9.76032z" fill="#cbcbcb" stroke="none" stroke-width="0" stroke-linecap="butt"/><path d="M56.8387,164.52682c0.30022,-0.7164 1.12434,-1.05377 1.84074,-0.75355c0.7164,0.30022 1.05377,1.12434 0.75355,1.84074c-0.30022,0.7164 -1.12434,1.05377 -1.84074,0.75355c-0.7164,-0.30022 -1.05377,-1.12434 -0.75355,-1.84074z" fill="#cbcbcb" stroke="none" stroke-width="0.5" stroke-linecap="butt"/><path d="M62.52887,164.7765c0.30022,-0.7164 1.12434,-1.05377 1.84074,-0.75355c0.7164,0.30022 1.05377,1.12434 0.75355,1.84074c-0.30022,0.7164 -1.12434,1.05377 -1.84074,0.75355c-0.7164,-0.30022 -1.05377,-1.12434 -0.75355,-1.84074z" fill="#cbcbcb" stroke="none" stroke-width="0.5" stroke-linecap="butt"/><path d="M67.21583,168.87561c0.30022,-0.7164 1.12434,-1.05377 1.84074,-0.75355c0.7164,0.30022 1.05377,1.12434 0.75355,1.84074c-0.30022,0.7164 -1.12434,1.05377 -1.84074,0.75355c-0.7164,-0.30022 -1.05377,-1.12434 -0.75355,-1.84074z" fill="#cbcbcb" stroke="none" stroke-width="0.5" stroke-linecap="butt"/><path d="M51.88706,173.43137c0.30022,-0.7164 1.12434,-1.05377 1.84074,-0.75355c0.7164,0.30022 1.05377,1.12434 0.75355,1.84074c-0.30022,0.7164 -1.12434,1.05377 -1.84074,0.75355c-0.7164,-0.30022 -1.05377,-1.12434 -0.75355,-1.84074z" fill="#cbcbcb" stroke="none" stroke-width="0.5" stroke-linecap="butt"/><path d="M57.39429,178.48423c0.30022,-0.7164 1.12434,-1.05377 1.84074,-0.75355c0.7164,0.30022 1.05377,1.12434 0.75355,1.84074c-0.30022,0.7164 -1.12434,1.05377 -1.84074,0.75355c-0.7164,-0.30022 -1.05377,-1.12434 -0.75355,-1.84074z" fill="#cbcbcb" stroke="none" stroke-width="0.5" stroke-linecap="butt"/><path d="M64.40637,177.76293c0.30022,-0.7164 1.12434,-1.05377 1.84074,-0.75355c0.7164,0.30022 1.05377,1.12434 0.75355,1.84074c-0.30022,0.7164 -1.12434,1.05377 -1.84074,0.75355c-0.7164,-0.30022 -1.05377,-1.12434 -0.75355,-1.84074z" fill="#cbcbcb" stroke="none" stroke-width="0.5" stroke-linecap="butt"/><path d="M72.59711,172.04576l6.86137,-1.08945l0.18519,4.65248" fill="none" stroke="#000000" stroke-width="1.5" stroke-linecap="round"/><path d="M61.02587,190.93791c0.23952,-0.05298 0.5266,-0.03643 0.86492,0.10535c1.29714,0.54361 0.75355,1.84074 0.75355,1.84074l-0.78207,1.67944c-1.42607,0.89161 -5.1055,2.87586 -6.91523,1.79579c-0.10927,-0.06521 -0.2136,-0.13648 -0.31385,-0.21284l-0.03457,0.05491l-1.42829,-0.89943c-0.58632,-0.35489 -0.84011,-1.09498 -0.56724,-1.74605c0.21701,-0.51782 0.70774,-0.83763 1.23365,-0.86174l1.67995,-0.11239c1.46271,-0.61415 2.13319,-0.5802 2.93308,-2.01121c0,0 0.74944,-1.19013 1.93957,-0.44067c0.3839,0.24176 0.56598,0.52937 0.63651,0.8081z" fill="#919191" stroke="none" stroke-width="0.5" stroke-linecap="butt"/><g stroke="none" stroke-linecap="butt"><path d="M58.0938,186.27609l2.08427,-4.97353l12.19315,5.10983l-2.08427,4.97353z" fill="#b5ffd4" stroke-width="0"/><text transform="translate(59.23722,185.62359) rotate(22.73908) scale(0.11364,0.11364)" font-size="40" xml:space="preserve" fill="#000000" fill-rule="nonzero" stroke="none" stroke-width="1" stroke-linecap="butt" stroke-linejoin="miter" stroke-miterlimit="10" stroke-dasharray="" stroke-dashoffset="0" font-family="Sans Serif" font-weight="normal" text-anchor="start" style="mix-blend-mode: normal"><tspan x="0" dy="0">100%</tspan></text></g></g><path d="M83.38202,223.9042c0.00146,0.00227 0.00295,0.00456 0.0044,0.00685c0,0 0.75866,1.18428 -0.42562,1.94293c-1.18428,0.75866 -1.94293,-0.42562 -1.94293,-0.42562c-1.68955,-2.64668 -3.79832,-4.63774 -5.79697,-7.02174c-1.2099,-1.44317 -2.2492,-3.02196 -3.42019,-4.49687c-2.87612,-3.62247 -6.39472,-6.87098 -9.54498,-10.25527l-1.14994,-1.23535c-0.52924,-0.56856 -0.49737,-1.45848 0.07118,-1.98774c0.24626,-0.22924 0.55283,-0.35319 0.86426,-0.37388l1.78491,-0.13389l0.015,0.2c0.14523,-0.01734 0.28634,-0.02749 0.42562,-0.03009c-0.7726,-0.94923 -1.50995,-1.89115 -2.00055,-3.10044l-0.68937,-1.11885c-0.36147,-0.56161 -0.28058,-1.31839 0.22546,-1.78943c0.43292,-0.40299 1.05218,-0.48065 1.55666,-0.24375l1.92962,0.85317l-0.00788,0.0178c0.04981,0.01718 0.09938,0.03523 0.14872,0.05419c0.546,0.20979 1.12202,0.57099 1.70352,1.00205l-0.32607,-1.53594c-0.10927,-0.47393 0.03058,-0.99155 0.41215,-1.34674c0.49888,-0.46439 1.2452,-0.49676 1.77816,-0.11363l2.11385,1.45401l-0.00976,0.01418c0.04409,0.02602 0.08791,0.05257 0.13146,0.07969c1.55543,0.96916 2.5035,2.67713 3.75216,4.01855c3.71602,3.99205 6.74075,8.3204 10.15221,12.56085c1.45239,1.80532 3.14789,3.42263 4.53408,5.28055c0.55475,0.74354 1.68383,1.41806 1.52017,2.33121c-0.19225,1.07264 -1.55481,1.52745 -2.34603,2.27681c-1.42977,1.35416 -3.04095,1.75597 -4.84348,2.45339l-0.37269,0.48435c0,0 -0.0922,0.08584 -0.24712,0.17854z" fill="#ffe6ce" stroke="none" stroke-width="0.5" stroke-linecap="butt"/></g><path d="M81.98595,226.0757l-15.49645,-15.92698l10.28197,-10.00403l15.49645,15.92698z" fill="#464646" stroke="#000000" stroke-width="2" stroke-linecap="butt"/></g><path d="M103.79594,186.40573l-27.28957,0.74395l0.14966,-0.12674l20.91049,-8.03508z" fill="#ffe6ce" stroke="#000000" stroke-width="0.5" stroke-linecap="butt"/><g data-paper-data="{&quot;index&quot;:null}" stroke="none" stroke-linecap="butt"><path d="M133.1344,197.12329c-3.12677,0.61764 -6.08664,0.57545 -9.22202,0.90025c-1.05467,0.10927 -2.10003,0.40239 -3.15972,0.36676c-3.95141,-0.13283 -8.00161,-0.98232 -11.9403,-0.95507c-0.63651,0.0044 -1.25166,0.32974 -1.88709,0.29229c-1.20348,-0.07096 -3.41587,-0.48774 -4.67212,-0.75362c-0.81348,-0.17218 -1.90891,-0.00891 -2.40006,-0.67985c-0.76214,-1.04116 0.03168,-2.58255 -0.04371,-3.87065c-0.30142,-1.79696 -0.59029,-1.87288 0.44002,-3.70142c0.24704,-0.43843 0.81734,-0.64139 1.04357,-1.09088c0.28517,-0.56651 -0.05883,-1.45695 0.43758,-1.8517c0.66169,-0.52617 1.65308,-0.36407 2.49089,-0.47697c2.30536,-0.31069 4.77045,0.15359 7.04979,0.44468c2.06055,0.26313 3.97967,0.21747 6.03426,0.25693c1.10927,0.02132 2.16116,0.5639 3.26882,0.62708c0.55073,0.03141 1.07771,-0.26569 1.62863,-0.29369c3.61234,-0.18344 8.15708,0.62485 11.5909,1.57164c0.17279,2.15147 0.66053,3.97746 0.78508,6.14962l0.06341,1.19172c0,0 0.04276,0.80361 -0.5443,1.22744c-0.32162,0.51861 -0.96365,0.64543 -0.96365,0.64543z" fill="#9c9c9c" stroke-width="0.5"/><path d="M123.16051,197.91256l-0.67669,-11.36905l6.36667,-0.37897l0.67669,11.36905z" fill="#1a1a1a" stroke-width="0"/><path d="M115.19456,197.93808l-0.67669,-11.36905l6.36667,-0.37894l0.67669,11.36905z" fill="#1a1a1a" stroke-width="0"/><path d="M105.78543,197.04447l-0.67669,-11.36905l6.36667,-0.37894l0.67669,11.36905z" fill="#1a1a1a" stroke-width="0"/></g><path d="M106.08563,315.78226v-62.44608h12.09542v62.44608z" fill="#464646" stroke="none" stroke-width="0" stroke-linecap="butt"/><path d="M127.74486,316.34483v-62.44608h12.09542v62.44608z" fill="#464646" stroke="none" stroke-width="0" stroke-linecap="butt"/><path d="M108.37619,317.0755c-0.15928,-0.07381 -0.32042,-0.13919 -0.48323,-0.19701c-0.32115,-0.00039 -0.6423,-0.00063 -0.96344,-0.00063h-0.28129c0,0 -0.5667,0 -0.98064,-0.39344c-1.76545,-0.07599 -3.61527,0.24704 -5.34629,0.07829c-1.49654,-0.14589 -3.53979,-0.10315 -4.9361,-0.74179c-0.8251,-0.37738 -1.57164,-1.01435 -2.45071,-1.19432l-0.17252,-0.16644l-0.03211,0.06145l-1.9453,-1.21581c-0.4364,-0.26113 -0.73236,-0.76796 -0.73236,-1.3504c0,-0.66027 0.38035,-1.2234 0.91451,-1.44155l1.37603,-0.602l0.01648,0.04508c0.0785,-0.04521 0.15841,-0.08778 0.23989,-0.12734c0.50958,-0.24742 1.11488,-0.02275 1.67241,-0.02776c1.90676,-0.01718 3.89468,0.19597 5.79107,0.00525c1.14481,-0.11513 2.29406,-0.26419 3.40956,-0.56837c1.64108,-0.44751 3.46162,-1.92093 5.18641,-1.89744c0.68619,0.00935 1.30961,0.45631 1.94129,0.74964c2.3111,1.07317 4.32219,2.71948 6.05649,4.67873l1.17277,0.51309c0.53416,0.21814 0.91451,0.78127 0.91451,1.44155c0,0.69197 -0.41775,1.27723 -0.99245,1.47053l-1.65695,0.60409l-0.01198,-0.0393c-0.06828,0.03461 -0.13741,0.0675 -0.20748,0.09839c-0.59143,0.2608 -1.27532,0.01636 -1.91301,0.01986c-1.39163,0.00768 -2.78339,0.00623 -4.17515,0.0038c-0.5994,0.54863 -1.4104,0.19384 -1.4104,0.19384z" data-paper-data="{&quot;index&quot;:null}" fill="#000000" stroke="none" stroke-width="0.5" stroke-linecap="butt"/><path d="M130.3167,318.76321c-0.15928,-0.07381 -0.32042,-0.13919 -0.48323,-0.19701c-0.32115,-0.00039 -0.6423,-0.00063 -0.96344,-0.00063h-0.28129c0,0 -0.5667,0 -0.98064,-0.39344c-1.76545,-0.07599 -3.61527,0.24704 -5.34629,0.07829c-1.49654,-0.14589 -3.53979,-0.10315 -4.9361,-0.74179c-0.8251,-0.37738 -1.57164,-1.01435 -2.45071,-1.19432l-0.17252,-0.16644l-0.03211,0.06145l-1.9453,-1.21581c-0.4364,-0.26113 -0.73236,-0.76796 -0.73236,-1.3504c0,-0.66027 0.38035,-1.2234 0.91451,-1.44155l1.37603,-0.602l0.01648,0.04508c0.0785,-0.04521 0.15841,-0.08778 0.23989,-0.12734c0.50958,-0.24742 1.11488,-0.02275 1.67241,-0.02776c1.90676,-0.01718 3.89468,0.19597 5.79107,0.00525c1.14481,-0.11513 2.29406,-0.26419 3.40956,-0.56837c1.64108,-0.44751 3.46162,-1.92093 5.18641,-1.89744c0.68619,0.00935 1.30961,0.45631 1.94129,0.74964c2.3111,1.07317 4.32219,2.71948 6.05649,4.67873l1.17277,0.51309c0.53416,0.21814 0.91451,0.78127 0.91451,1.44155c0,0.69197 -0.41775,1.27723 -0.99245,1.47053l-1.65695,0.60409l-0.01198,-0.0393c-0.06828,0.03461 -0.13741,0.0675 -0.20748,0.09839c-0.59143,0.2608 -1.27532,0.01636 -1.91301,0.01986c-1.39163,0.00768 -2.78339,0.00623 -4.17515,0.0038c-0.5994,0.54863 -1.4104,0.19384 -1.4104,0.19384z" data-paper-data="{&quot;index&quot;:null}" fill="#2b2b2b" stroke="none" stroke-width="0.5" stroke-linecap="butt"/><path d="M111.62271,189.26029c0.38626,0.06266 0.77253,0.12531 1.15879,0.18798c0.99628,0.16597 1.93287,0.59202 2.92621,0.77382c0.95312,0.17444 1.9602,-0.19032 2.90946,0.00303c1.87781,0.38253 3.78833,1.54215 5.50959,2.35371c2.8372,1.33773 5.82528,2.85542 8.82166,3.82284c6.35874,2.05303 13.10222,4.55343 17.51845,9.69892c1.06533,1.72579 2.31263,3.10767 3.17609,4.98329c1.78531,3.87807 3.23594,8.52277 3.63711,12.78691c0.31653,3.36437 -0.21072,6.64337 -0.52422,9.96147c-0.16093,1.70339 0.28352,3.50652 -0.00831,5.19336c-0.09252,0.53472 -1.18435,3.94062 -1.31649,4.36063c-0.00237,0.61161 0.1241,1.23671 -0.00716,1.83483c-0.58051,2.64534 -2.2256,3.55643 -3.62256,5.60682c-2.68065,3.93453 -6.49536,6.62909 -10.73876,8.86817c-1.76178,0.92961 -3.82795,1.26157 -5.71125,1.87068c-0.56204,0.18178 -3.14417,1.28701 -3.31781,1.3229c-1.95667,0.40457 -4.58512,0.02613 -6.57805,0.02613c-5.83832,0 -12.44732,0.77761 -17.91197,-1.65341c-3.83554,-1.70628 -6.57628,-4.80524 -9.35462,-7.71325c-1.94548,-2.03629 -4.30199,-3.74797 -6.40772,-5.62658c-2.93894,-2.62366 -6.1948,-5.20419 -8.01723,-8.76422c-0.56258,-1.09896 -0.72966,-2.35105 -1.12902,-3.5157c-0.66736,-1.94615 -1.75909,-4.01694 -2.14262,-6.04035c-0.54646,-2.88297 -0.12844,-6.65184 0.11114,-9.56331c0.17146,-2.08351 -0.11,-4.87495 0.4416,-6.88166c0.28171,-1.0249 1.00343,-1.89388 1.34301,-2.90202c1.57769,-4.08646 3.29419,-8.75159 7.38352,-11.15686c0.54806,-0.32237 1.22743,-0.36915 1.80791,-0.63234c2.33571,-1.05898 4.43236,-2.4298 6.71843,-3.52338c2.17268,-1.03934 4.63951,-1.61553 6.85524,-2.56788c1.72573,-0.74174 3.29393,-1.99171 4.72858,-3.15944c0,0 0.92385,-0.74933 1.74096,0.04481z" fill="#464646" stroke="none" stroke-width="0.5" stroke-linecap="butt"/><g stroke="none" stroke-linecap="butt"><path d="M125.06264,198.84951c0.36264,-0.97906 1.16648,-1.03883 1.16648,-1.03883l1.19207,-0.08864c2.17368,-0.14763 4.03947,0.32362 6.1974,0.25421c1.28729,5.18838 2.5485,12.12531 2.72923,17.76879c0.02756,0.8607 -0.21505,1.72643 -0.12841,2.57751c0.17425,1.71174 0.81987,3.26142 0.9526,4.98222c0.24586,3.18725 0.39338,6.17727 0.8624,9.33866c0.51881,3.49703 1.22862,7.25559 1.15133,10.8876c-0.02809,1.31995 0.23287,2.8354 -0.22407,3.94651c-0.34284,0.83358 -1.26334,0.4388 -1.79832,0.97102c-0.42446,0.42229 -0.56906,1.34059 -0.98041,1.79341c-1.71567,1.88865 -1.82024,1.45158 -3.63841,1.26539c-1.28914,0.08517 -2.7429,1.56115 -3.85541,0.54012c-0.71693,-0.65799 -0.66466,-2.38626 -0.91776,-3.6236c-0.39088,-1.91079 -1.028,-5.28403 -1.21962,-7.14345c-0.10116,-0.98177 0.16067,-1.989 0.10105,-2.97904c-0.36895,-6.1262 -1.62139,-12.28795 -2.15091,-18.40875c-0.14201,-1.64152 0.04452,-3.31233 0.04717,-4.96877c0.00788,-4.92432 -0.33174,-9.51822 -0.03165,-14.47518c0,0 0.06165,-1.01784 0.54527,-1.59919z" fill="#9c9c9c" stroke-width="0.5"/><path d="M124.47186,206.11987l11.37947,-0.7342l0.26319,9.95523l-11.37947,0.7342z" fill="#1a1a1a" stroke-width="0"/><path d="M125.2475,218.50532l11.37949,-0.7342l0.26319,9.95523l-11.37949,0.7342z" fill="#1a1a1a" stroke-width="0"/><path d="M127.08273,232.98953l11.37949,-0.7342l0.26319,9.95522l-11.37949,0.7342z" fill="#1a1a1a" stroke-width="0"/></g><g stroke="none" stroke-linecap="butt"><path d="M96.65248,198.84951c0.36264,-0.97906 1.16648,-1.03883 1.16648,-1.03883l1.19207,-0.08864c2.17368,-0.14763 4.03945,0.32362 6.1974,0.25421c1.28729,5.18841 2.5485,12.12531 2.72923,17.76879c0.02756,0.8607 -0.21505,1.72643 -0.12841,2.57751c0.17425,1.71174 0.81987,3.26142 0.9526,4.98222c0.24586,3.18725 0.39338,6.17727 0.8624,9.33866c0.51881,3.49703 1.22862,7.25559 1.15133,10.8876c-0.02809,1.31995 0.23287,2.8354 -0.22407,3.94651c-0.34284,0.83358 -1.26334,0.4388 -1.79832,0.97102c-0.42446,0.42229 -0.56906,1.34059 -0.98041,1.79341c-1.71567,1.88865 -1.82024,1.45158 -3.63841,1.26537c-1.28914,0.08515 -2.7429,1.56116 -3.85541,0.54012c-0.71693,-0.65799 -0.66465,-2.38626 -0.91776,-3.6236c-0.39088,-1.91079 -1.028,-5.28403 -1.21962,-7.14345c-0.10116,-0.98177 0.16067,-1.989 0.10105,-2.97904c-0.36895,-6.1262 -1.62139,-12.28795 -2.15091,-18.40876c-0.14201,-1.64152 0.04452,-3.31233 0.04717,-4.96877c0.00788,-4.9243 -0.33174,-9.51819 -0.03165,-14.47518c0,0 0.06165,-1.01784 0.54527,-1.59919z" fill="#9c9c9c" stroke-width="0.5"/><path d="M96.06172,206.11987l11.37949,-0.7342l0.26319,9.95523l-11.37949,0.7342z" fill="#1a1a1a" stroke-width="0"/><path d="M96.83735,218.50532l11.37949,-0.7342l0.26319,9.95523l-11.37949,0.7342z" fill="#1a1a1a" stroke-width="0"/><path d="M98.67256,232.98953l11.37949,-0.7342l0.26319,9.95523l-11.37949,0.7342z" fill="#1a1a1a" stroke-width="0"/></g><path d="M105.89817,191.62061c-0.4346,-0.14904 -0.93769,-0.49414 -0.93769,-1.29311c0,-1.40644 1.55897,-1.40644 1.55897,-1.40644c4.57297,0 10.39315,0 14.96612,0c2.16828,0 5.06995,-0.53017 6.41441,1.68131c0.25547,0.42021 -0.36792,2.97783 -0.52059,3.65769c-0.2354,1.04815 -0.01753,2.16419 -0.33809,3.19378c-0.42116,1.3527 -1.57237,2.42644 -2.31046,3.66368c-0.96567,1.61874 -1.88007,3.12025 -3.04272,4.63546c-0.19884,1.0442 -0.78923,2.00149 -1.31601,2.94842c-0.72043,1.29508 -0.46941,2.60734 -1.64893,3.79252c-0.76312,0.76677 -1.71957,1.85213 -2.85156,1.71438c-1.07597,-0.13095 -2.52108,-3.99512 -2.7446,-4.64839c-0.97036,-2.83599 -1.64477,-5.81181 -2.77092,-8.62228c-1.22113,-3.04749 -3.22197,-5.71635 -4.38024,-8.75894c0,0 -0.09014,-0.244 -0.07769,-0.55808z" fill="#131313" stroke="none" stroke-width="0.5" stroke-linecap="butt"/><g data-paper-data="{&quot;index&quot;:null}" stroke="none" stroke-linecap="butt"><path d="M139.19127,194.59215c-1.08119,2.9982 -2.64196,5.51348 -3.97855,8.36821c-0.44961,0.96026 -0.73679,2.00725 -1.31321,2.89722c-2.14921,3.31846 -4.96358,6.35243 -6.969,9.74247c-0.3241,0.54786 -0.36208,1.2427 -0.72151,1.76805c-0.68073,0.99499 -2.17754,2.67662 -3.05253,3.61642c-0.5666,0.60856 -0.9909,1.6316 -1.81898,1.70699c-1.28499,0.11698 -2.19726,-1.35742 -3.34018,-1.95627c-1.6955,-0.66725 -1.90936,-0.45874 -2.94596,-2.28373c-0.24855,-0.43756 -0.12876,-1.03093 -0.39748,-1.45641c-0.33869,-0.53623 -1.2791,-0.70003 -1.36176,-1.32887c-0.11016,-0.83818 0.53944,-1.60444 0.8742,-2.38069c0.92116,-2.13604 2.58889,-4.0098 4.01245,-5.81355c1.28693,-1.63064 2.2363,-3.29909 3.32843,-5.03984c0.58963,-0.93982 1.59653,-1.56193 2.22125,-2.47881c0.3106,-0.45587 0.32738,-1.0606 0.58717,-1.54722c1.70344,-3.19076 4.73724,-6.66987 7.3175,-9.1254c1.9331,0.96011 3.74944,1.4826 5.67546,2.49469l1.05412,0.55951c0,0 0.71084,0.37729 0.7717,1.09879c0.27885,0.5428 0.05686,1.15843 0.05686,1.15843z" fill="#9c9c9c" stroke-width="0.5"/><path d="M134.73029,203.54769l-10.09337,-5.27611l2.95462,-5.65229l10.09337,5.27611z" fill="#1a1a1a" stroke-width="0"/><path d="M130.64896,210.38871l-10.09337,-5.27611l2.95464,-5.65229l10.09337,5.27611z" fill="#1a1a1a" stroke-width="0"/><path d="M125.03645,217.9933l-10.09337,-5.27611l2.95464,-5.65227l10.09337,5.27611z" fill="#1a1a1a" stroke-width="0"/></g><g stroke="none" stroke-linecap="butt"><path d="M94.85525,192.30856c0.06088,-0.72149 0.77172,-1.09879 0.77172,-1.09879l1.05412,-0.55951c1.92599,-1.0121 3.74235,-1.5346 5.67545,-2.49469c2.58026,2.45553 5.61404,5.93463 7.3175,9.12538c0.25979,0.48662 0.27657,1.09135 0.58717,1.54724c0.6247,0.91689 1.63162,1.53899 2.22125,2.47881c1.09212,1.74075 2.04149,3.40919 3.32843,5.03984c1.42355,1.80375 3.09129,3.67753 4.01245,5.81355c0.33478,0.77626 0.98438,1.54255 0.8742,2.38069c-0.08265,0.62882 -1.02307,0.79263 -1.36176,1.32887c-0.26874,0.42546 -0.14896,1.01884 -0.39748,1.45641c-1.0366,1.825 -1.25046,1.61649 -2.94596,2.28373c-1.14291,0.59887 -2.05519,2.07325 -3.34018,1.95627c-0.82808,-0.07537 -1.25239,-1.09841 -1.81898,-1.70699c-0.87497,-0.93979 -2.3718,-2.62143 -3.05251,-3.61642c-0.35942,-0.52535 -0.39742,-1.2202 -0.72151,-1.76805c-2.00544,-3.39003 -4.81979,-6.42403 -6.969,-9.74248c-0.57639,-0.88997 -0.8636,-1.93694 -1.31321,-2.89723c-1.33659,-2.85473 -2.89738,-5.37001 -3.97855,-8.36821c0,0 -0.22199,-0.61564 0.05686,-1.15843z" fill="#9c9c9c" stroke-width="0.5"/><path d="M96.30475,196.77024l10.09337,-5.27611l2.95462,5.65229l-10.09337,5.27611z" fill="#1a1a1a" stroke-width="0"/><path d="M100.38608,203.61127l10.09337,-5.27611l2.95462,5.65229l-10.09337,5.27611z" fill="#1a1a1a" stroke-width="0"/><path d="M105.99859,211.21587l10.09337,-5.27611l2.95462,5.65229l-10.09337,5.27611z" fill="#1a1a1a" stroke-width="0"/></g><path d="M109.19884,195.72161l2.41187,0.30826c1.74882,-0.68964 3.27087,-0.47097 5.08696,-0.59604c1.16597,-0.08031 2.32526,-0.2387 3.48872,-0.34949c0.80124,-0.0763 5.31684,-0.21976 5.96474,0.49008c0.40106,0.4394 -1.74379,2.53635 -1.92986,2.96992c-0.36017,0.83924 -0.62619,1.59409 -0.94617,2.44946c-0.197,0.52657 -0.73326,0.83947 -0.93813,1.36302c-0.12058,0.30813 -0.97871,0.51775 -1.14502,0.80378c-0.48735,0.83821 -0.95863,1.68805 -1.36825,2.56683c-0.21304,0.45707 -1.37825,0.71459 -1.65637,1.13524c-0.01308,0.01979 1.09883,0.32072 1.08543,0.34027l0.00701,0.004l0.4254,1.50585c-0.1503,0.27471 -1.56715,0.17973 -1.90237,0.17973c-0.37232,0 0.4342,-1.35497 0.30337,-1.6805l-1.61708,-0.02263c-1.40779,-1.88429 -3.1056,-3.68741 -4.30114,-5.73555c-0.79466,-1.36135 -1.05338,-2.98796 -1.99909,-4.24785c0,0 -0.53121,-0.70827 0.17707,-1.2395c0.49384,-0.37037 -1.34871,-0.41947 -1.14707,-0.24493z" fill="#787878" stroke="none" stroke-width="0.5" stroke-linecap="butt"/><path d="M139.2777,178.37273c0,11.88438 -9.73668,21.51858 -21.7475,21.51858c-12.01082,0 -21.7475,-9.6342 -21.7475,-21.51858c0,-11.88438 9.73668,-21.51858 21.7475,-21.51858c12.01082,0 21.7475,9.6342 21.7475,21.51858z" fill="#ffe6ce" stroke="none" stroke-width="0" stroke-linecap="butt"/><path d="M107.21078,192.29652l4.21932,-4.21932h7.5948l5.0632,3.09417" fill="none" stroke="#000000" stroke-width="1" stroke-linecap="round"/><path d="M115.64944,172.46566c0,3.1847 -2.95953,5.76642 -6.61028,5.76642c-3.65075,0 -6.61028,-2.58172 -6.61028,-5.76642c0,-3.1847 2.95953,-5.76642 6.61028,-5.76642c3.65075,0 6.61028,2.58172 6.61028,5.76642z" fill="#ffffff" stroke="#000000" stroke-width="1" stroke-linecap="butt"/><path d="M130.83904,172.18438c0,3.1847 -2.95953,5.76642 -6.61028,5.76642c-3.65075,0 -6.61028,-2.58172 -6.61028,-5.76642c0,-3.1847 2.95953,-5.76642 6.61028,-5.76642c3.65075,0 6.61028,2.58172 6.61028,5.76642z" fill="#ffffff" stroke="#000000" stroke-width="1" stroke-linecap="butt"/><path d="M105.38241,172.60631c0,-1.63119 1.32235,-2.95352 2.95352,-2.95352c1.63119,0 2.95352,1.32235 2.95352,2.95352c0,1.63119 -1.32235,2.95352 -2.95352,2.95352c-1.63119,0 -2.95352,-1.32235 -2.95352,-2.95352z" fill="#000000" stroke="none" stroke-width="0.5" stroke-linecap="butt"/><path d="M120.2907,172.60631c0,-1.63119 1.32235,-2.95352 2.95352,-2.95352c1.63119,0 2.95352,1.32235 2.95352,2.95352c0,1.63119 -1.32235,2.95352 -2.95352,2.95352c-1.63119,0 -2.95352,-1.32235 -2.95352,-2.95352z" fill="#000000" stroke="none" stroke-width="0.5" stroke-linecap="butt"/><path d="M153.50688,228.0375l-0.15935,-0.76321c-1.16653,-2.72253 -2.45083,-5.37784 -2.71889,-8.36715c-0.04692,-0.52322 -0.18509,-1.08209 -0.00602,-1.57593v-0.92231c-0.26787,-0.36105 -0.51865,-0.74078 -0.74028,-1.15229c-0.67437,-1.25209 -1.7318,-2.45141 -1.79098,-3.87231c-0.13774,-3.30713 4.89185,-6.16113 7.66909,-4.47164c0.61887,0.37648 1.00007,0.87637 1.24017,1.44114c0.41106,0.478 0.56222,1.00703 0.56222,1.00703c0.58093,2.12813 1.64075,3.15647 2.79342,4.96967c1.16944,1.83961 2.49043,3.93985 3.95803,5.57691c1.49512,1.66777 3.61181,3.71492 3.17785,6.33643c-0.20945,1.26537 -0.69228,2.51175 -1.39001,3.58794c-0.35731,0.55113 -1.1357,0.67082 -1.64215,1.08902c-1.0242,0.84575 -1.20034,2.76346 -1.73377,3.83477c-0.46725,0.9384 -1.07495,1.81839 -1.40644,2.8129c-1.31172,1.81091 -2.47795,3.65856 -3.87863,5.41048l-0.81039,1.08053c-0.43507,0.59338 -1.13727,0.97864 -1.92946,0.97864c-1.32049,0 -2.39095,-1.07046 -2.39095,-2.39095c0,-0.17764 0.01936,-0.35073 0.05612,-0.51732l0.2716,-1.35803l0.07356,0.01473c-0.00112,-0.10691 0.00187,-0.21415 0.00942,-0.32177c0.11519,-1.63891 2.40948,-4.72253 3.17459,-6.39186c0.07007,-0.15289 0.13847,-0.30876 0.20517,-0.46732c-0.42801,-0.31417 -0.74758,-0.76739 -0.89218,-1.2931l-0.82842,-2.76144l0.07939,-0.02382c-0.01473,-0.02871 -0.02932,-0.05749 -0.04376,-0.08634c-0.6935,-0.54168 -0.90894,-1.40344 -0.90894,-1.40344z" data-paper-data="{&quot;index&quot;:null}" fill="#464646" stroke="none" stroke-width="0.5" stroke-linecap="butt"/><path d="M149.68537,207.4861l6.75093,-1.68773l12.09542,20.53408l-11.53284,16.87731l-2.53161,1.12515" data-paper-data="{&quot;index&quot;:null}" fill="none" stroke="#000000" stroke-width="6" stroke-linecap="round"/><path d="M150.81053,214.23704l4.50063,9.28252l-4.78191,14.34572" fill="none" stroke="#000000" stroke-width="1.5" stroke-linecap="round"/><path d="M119.86878,261.77484l-3.37546,-41.63073" fill="none" stroke="#7d7d7d" stroke-width="2" stroke-linecap="round"/><path d="M117.61847,222.95699h-3.37546" fill="none" stroke="#000000" stroke-width="0.5" stroke-linecap="round"/><path d="M114.52431,229.9892l5.62576,-0.28129" fill="none" stroke="#000000" stroke-width="0.5" stroke-linecap="round"/><path d="M116.21203,239.27173h4.78191" fill="none" stroke="#000000" stroke-width="0.5" stroke-linecap="round"/><path d="M120.71266,250.24199l-5.34449,0.56258" fill="none" stroke="#000000" stroke-width="0.5" stroke-linecap="round"/><path d="M118.18105,258.39934h3.93803" fill="none" stroke="#000000" stroke-width="0.5" stroke-linecap="round"/></g></g></g></svg>