<svg version="1.1" xmlns="http://www.w3.org/2000/svg" xmlns:xlink="http://www.w3.org/1999/xlink" width="76" height="159" viewBox="0,0,76,159"><g transform="translate(-258.39024,-131.04268)"><g data-paper-data="{&quot;isPaintingLayer&quot;:true}" fill-rule="nonzero" stroke-linejoin="miter" stroke-miterlimit="10" stroke-dasharray="" stroke-dashoffset="0" style="mix-blend-mode: normal"><g><path d="M295.95843,183.2245v94" fill="none" stroke="#252525" stroke-width="4" stroke-linecap="round"/><path d="M260.39024,169.04268c0,-19.88225 16.11775,-36 36,-36c19.88225,0 36,16.11775 36,36c0,19.88225 -16.11775,36 -36,36c-19.88225,0 -36,-16.11775 -36,-36z" fill="#10ffff" stroke="#252525" stroke-width="4" stroke-linecap="butt"/><path d="M276.95843,166.2245c0,-3.31371 2.68629,-6 6,-6c3.31371,0 6,2.68629 6,6c0,3.31371 -2.68629,6 -6,6c-3.31371,0 -6,-2.68629 -6,-6z" fill="#ff0000" stroke="none" stroke-width="0" stroke-linecap="butt"/><path d="M306.95843,171.22451c0,-3.31371 2.68629,-6 6,-6c3.31371,0 6,2.68629 6,6c0,3.31371 -2.68629,6 -6,6c-3.31371,0 -6,-2.68629 -6,-6z" fill="#ff0000" stroke="none" stroke-width="0" stroke-linecap="butt"/><path d="M270.89024,288.04268v-28h51v28z" fill="#d6d6d6" stroke="#000000" stroke-width="4" stroke-linecap="butt"/></g></g></g></svg>